<svg xmlns="http://www.w3.org/2000/svg" width="35.583" height="122.132" viewBox="0 0 35.583 122.132">
  <g id="그룹_708" data-name="그룹 708" transform="translate(-3788 423.828)">
    <path id="패스_2431" data-name="패스 2431" d="M17.892.031,35.583,121.99H0Z" transform="translate(3788 -423.852)" fill="#77ced8"/>
    <path id="패스_2409" data-name="패스 2409" d="M35.783,72.7h0l.109,43.251V175.2H20.669Z" transform="translate(3767.331 -477.059)" fill="#5ab5c3"/>
    <path id="패스_2448" data-name="패스 2448" d="M.4.075,31.624.019l.117.769L.313.8Z" transform="translate(3789.78 -316.836)" fill="#88e2e0"/>
    <path id="패스_2449" data-name="패스 2449" d="M.41.075,33.962.019l.126.769L.313.8Z" transform="translate(3788.604 -308.875)" fill="#88e2e0"/>
    <path id="패스_2410" data-name="패스 2410" d="M11.2,13.233,7.5,75.627" transform="translate(3788.956 -377.353)" fill="#88e2e0" stroke="#88e2e0" stroke-width="1"/>
    <path id="패스_2411" data-name="패스 2411" d="M8.019,12.916,11.5,75.31" transform="translate(3803.457 -377.036)" fill="#88e2e0" stroke="#88e2e0" stroke-width="1"/>
    <path id="패스_2433" data-name="패스 2433" d="M-.27,36.33l.225,62.4" transform="translate(3806.394 -400.449)" fill="none" stroke="#88e2e0" stroke-width="1"/>
    <path id="패스_2444" data-name="패스 2444" d="M.437.016,22.37.038l.1.712L.313.8Z" transform="translate(3794.428 -348.681)" fill="#88e2e0"/>
    <path id="패스_2453" data-name="패스 2453" d="M0,0H2.9L1.523,17.256Z" transform="translate(3804.648 -322.172)" fill="#ec5757"/>
    <path id="패스_2450" data-name="패스 2450" d="M.425.016,20.247.038l.092.712L.313.8Z" transform="translate(3795.5 -355.919)" fill="#88e2e0"/>
    <path id="패스_2445" data-name="패스 2445" d="M.449.016,24.477.04l.112.781L.313.87Z" transform="translate(3793.359 -341.48)" fill="#88e2e0"/>
    <path id="패스_2446" data-name="패스 2446" d="M.432.049l26.344,0L26.9.763.313.809Z" transform="translate(3792.216 -333.492)" fill="#88e2e0"/>
    <path id="패스_2447" data-name="패스 2447" d="M.426.049l28.86,0,.134.717L.313.809Z" transform="translate(3790.956 -324.806)" fill="#88e2e0"/>
    <rect id="사각형_1954" data-name="사각형 1954" width="6" height="42" transform="translate(3803 -360.595)" fill="#f94f4f"/>
    <path id="패스_2429" data-name="패스 2429" d="M8.55-3.763,5.894,55.912H0L4.264,25.7Z" transform="translate(3797.33 -420.031)" fill="#5ab5c3"/>
    <rect id="사각형_1956" data-name="사각형 1956" width="2" height="42" transform="translate(3803 -360.595)" fill="#d83636"/>
    <path id="패스_2443" data-name="패스 2443" d="M-.2.172-2.623,16.7H2.171L.978,8.47Z" transform="translate(3806.096 -424)" fill="#40b3c1"/>
    <path id="패스_2442" data-name="패스 2442" d="M.47.266,2.845,16.721H-.278Z" transform="translate(3805.433 -424.026)" fill="#77ced8"/>
    <path id="패스_2451" data-name="패스 2451" d="M2.692-.554l3.1,59.228H0Z" transform="translate(3803.2 -423.275)" fill="#f94f4f"/>
    <path id="패스_2452" data-name="패스 2452" d="M2.675-.467,2.171,58.7H0Z" transform="translate(3803.2 -423.299)" fill="#d83636"/>
    <path id="패스_2440" data-name="패스 2440" d="M4.073,2.67,15.3,4.25,27.118,2.67c3,0,4.006.5,4.006,3.5A5.429,5.429,0,0,1,25.7,11.595H5.429A5.429,5.429,0,0,1,0,6.166C0,3.168,1.075,2.67,4.073,2.67Z" transform="translate(3790.895 -371.576)" fill="#58969f"/>
    <path id="패스_2441" data-name="패스 2441" d="M4.125,2.662,11.644,3.7l-.194,7.9H5.429A5.429,5.429,0,0,1,0,6.164C0,3.166,1.127,2.662,4.125,2.662Z" transform="translate(3790.895 -371.573)" fill="#426e75"/>
    <path id="패스_2436" data-name="패스 2436" d="M1.252.082,2.47,2.931,1.252,5.491H.385l1.023-2.56L.385.082Z" transform="translate(3816.974 -366.874)"/>
    <path id="패스_2458" data-name="패스 2458" d="M1.6.082.385,2.931,1.6,5.491H2.47L1.447,2.931,2.47.082Z" transform="translate(3793.088 -366.874)"/>
    <path id="패스_2455" data-name="패스 2455" d="M1.252.082,2.47,2.931,1.252,5.491H.385l1.023-2.56L.385.082Z" transform="translate(3814.078 -366.874)"/>
    <path id="패스_2457" data-name="패스 2457" d="M1.6.082.385,2.931,1.6,5.491H2.47L1.447,2.931,2.47.082Z" transform="translate(3795.983 -366.874)"/>
    <path id="패스_2456" data-name="패스 2456" d="M1.252.082,2.47,2.931,1.252,5.491H.385l1.023-2.56L.385.082Z" transform="translate(3811.183 -366.874)"/>
    <path id="패스_2459" data-name="패스 2459" d="M1.6.082.385,2.931,1.6,5.491H2.47L1.447,2.931,2.47.082Z" transform="translate(3798.878 -366.874)"/>
    <circle id="타원_75" data-name="타원 75" cx="1" cy="1" r="1" transform="translate(3803 -364.595)"/>
    <circle id="타원_76" data-name="타원 76" cx="1" cy="1" r="1" transform="translate(3807 -364.595)"/>
    <path id="패스_2454" data-name="패스 2454" d="M.379,0,.532-.064.89,4.993V5.05Z" transform="translate(3804.482 -319.294)" fill="#d83636"/>
  </g>
</svg>
