<?xml version="1.0" encoding="utf-8"?>
<!-- Generator: Adobe Illustrator 23.0.0, SVG Export Plug-In . SVG Version: 6.00 Build 0)  -->
<svg version="1.1" id="Layer_1" xmlns="http://www.w3.org/2000/svg" xmlns:xlink="http://www.w3.org/1999/xlink" x="0px" y="0px"
	 viewBox="0 0 486 495" style="enable-background:new 0 0 486 495;" xml:space="preserve">
<style type="text/css">
	.st0{fill:none;stroke:#FFFFFF;stroke-width:6;}
	.st1{fill:#B9B9B9;}
	.st2{fill:none;stroke:#FFFFFF;stroke-width:2;}
</style>
<g id="layer1">
	<g id="g3808">
		<path id="path3001" class="st0" d="M249.8,71.9c0,0,22.1,0.4,25.3-1.1c3.2-1.4,25.8,0.9,26.9,2.1s2.8,6.4,6.9,6.4
			s18.6,0.2,21.6-3.4c3-3.5,4.6-9.7,4.9-13.1s0.9-8.5,3.5-10.8c2.7-2.3,7.8-6,14-8.5s11-3.7,12.2-2.8s1.6,2.5,3.7,3s3.2-0.2,3.2,4.1
			s-0.2,6-3.5,8.5c-3.4,2.5-6.2,3-6,5.5s0.5,8.7,2.7,9.5c2.1,0.9,0.7,1.4,4.8,1.4s26.9,1.1,29,3s3.2,5.3,3.2,7.6
			c0,2.3-5.3,10.8-7.1,12.2c-1.8,1.4-1.9,4.2-5.8,7.2s-4.6,3.5-4.8,6.4c-0.2,2.8-0.2,4.4-1.4,5.5c-1.2,1.1-2.3,0.2-0.9,3.5
			c1.4,3.4,10.3,7.2,11,12.6c0.7,5.3,2.5,8.3,4.4,8.8s9.2,0.9,11-1.6s5.3-12.4,8.7-12.9c3.4-0.5,11-1.6,13.3-1.2s6.2,3,12.2,1.8
			s6.4-5.8,10.1-5.7s6.9,1.1,7.2,3.2c0.4,2.1-4.8,8.3-3.9,10.6s7.4,7.6,10.1,10.4s7.6,11,7.2,13.8s0.2,3.2-3.2,4.2
			c-3.4,1.1-10.1,2.3-16.4,3s-10.8-0.4-11.1,1.9c-0.4,2.3-1.9,3.5-2.7,6c-0.7,2.5-7.8,2.5-9,4.8s-1.4,13.3,0,15.7
			c1.4,2.5,2.3,12.9,1.6,16.3c-0.7,3.4-2.7,7.4-2.7,10.3s0.9,10.8-2.1,11.7s-11.1,2.5-13.4,2.8s-6,0.4-7.2,2.1s-2.8,1.1-2.1,2.7
			c0.7,1.6,2.3,2.8,1.2,5.3s-3.9,7.2-6.4,8.1c-2.5,0.9-4.2,1.4-3.2,3.4c1.1,1.9,3.9,4.8,4.2,8.7c0.4,3.9,2.3,5.5,0.5,8.1
			c-1.8,2.7-8,5.8-8.7,8.7s-1.6,10.8-2.3,15.7c-0.7,4.9,0,10.1-2.5,13.4s-7.1,2.1-6.7,4.9s5.8,3.9,7.1,5.3c1.2,1.4,2.5,4.4,1.9,8.1
			c-0.5,3.7,3.4,5.7,2.5,8.5s1.2,4.8-3.5,7.2c-4.8,2.5-9.4,1.8-10.8,5.8s-5.3,10.8-4.6,13.1c0.7,2.3,3.2,6.2,3.9,8.8
			c0.7,2.7-0.2,7.6-1.1,9s6.2,6.7,5.5,9.7s1.6,5.1-1.2,8.1s-0.7,12.6-3.5,14.3s-5.5,1.9-8,2.1s-7.1,0.7-8.3,3.2
			c-1.2,2.5,1.2,7.2-3.7,9s-8,1.2-9.5,3.5c-1.6,2.3-1.4,3.4-2.7,5.5c-1.2,2.1-0.4,4.9-3.7,6.5s-5.1-1.4-8.8,1.4s-1.4,6.2-4.8,6.4
			c-3.4,0.2,0.2,3,0.5,6c0.4,3,0.2,8-4.2,11.1c-4.4,3.2-21.2,4.2-24.4,3.2c-3.2-1.1-8.1-4.6-9.5-5.7s0.2-8.3-4.9-9.4
			s-7.6-0.9-16.6-3.7s-14.5-4.9-14-9s4.9-6.5,0.4-8.3s-12.4-6.5-12.2-10.8c0.2-4.2,2.1-13.3-2.3-14c-4.4-0.7-4.1,3.4-8.1,2.3
			c-4.1-1.1-8.5-3.5-7.4-5.5s3.4-6.7,1.8-9.5s-4.8-13.3-1.9-20.9c2.8-7.6,2.7-11.3-1.2-12.4s-14.1-9.9-17.3-8.3s-3.2,2.8-4.4,3.2
			c-1.2,0.4-15-0.4-16.8,3s1.1,13.1,3.4,12.9c2.3-0.2,2.7,5.1,2.3,7.1c-0.4,1.9,1.4,5.3,1.8,7.6c0.4,2.3,0.5,7.4-3,9.9
			s-6.4,3.5-6.2,8.1s1.1,13.1,3.7,15.2c2.7,2.1,4.8,0.5,4.6,3.5s-2.7,7.4-3.7,10.6c-1.1,3.2,0,6.9-6.5,7.8s-8.5,1.1-11.1,4.4
			c-2.7,3.4-6.7,8.8-7.4,11.8s2.3,16.1-2.7,18.6c-4.9,2.5-9.2,4.8-13.4,3.7c-4.2-1.1-7.1-4.6-6.7-9.4c0.4-4.8,2.8-13.3-2.3-14.1
			c-5.1-0.9-10.1,4.1-12-1.4c-1.9-5.5-2.1-8-1.9-11.1c0.2-3.2,3.2-5.3-3-10.4S102,417.9,100.7,421c-1.2,3.2,3.5,8.7-3,8.8
			c-6.5,0.2-9.7-3.5-10.8-7.2c-1.1-3.7-3.4-8.7-6.5-9.7s-11.8-4.4-11.7-7.2c0.2-2.8,5.3-8,2.5-9.2s-10.3-3.5-7.4-7.1
			c2.8-3.5,2.1-12,5.1-12.9s6.5-4.2,6-8.3s-6.5-5.3-10.4-5.3s-9.5-0.5-11.7-4.1s-17.9-10.1-20.3-9.7c-2.5,0.4-6.5-0.7-6.7-3
			S23,333,21,332.1c-1.9-0.9-5.7-4.1-1.4-9.5c4.2-5.5,8.7-6.2,10.6-8s3-6.7,4.6-9.9s-0.9-10.8-0.5-13.4c0.4-2.7-1.8-4.4-1.6-6.5
			s2.7-4.4,3.7-10.8s6.4-10.6,8.1-12.4c1.8-1.8,1.9-6.5,0.9-8.8s0.4-7.1,2.7-8.1c2.3-1.1,9-6,9.2-7.6s2.3-4.2,2.5-5.3
			s-3.4-3.2-3.9-4.9c-0.5-1.8-3.9-6.5-2.8-9.4s5.3-5.1,7.6-9.9c2.3-4.8,8.7-18,8.1-20.9c-0.5-2.8-7.2-18.9-5.8-22.6
			c1.4-3.7,4.6-24.6,6.9-27.9c2.3-3.4,5.1-6,6.7-7.1s12-10.6,19.1-11s20,1.2,22.6,3c2.7,1.8,6.2,3.5,12.7,1.2s21.7-4.9,21.7-9.4
			c0-4.4,0.9-8.7,5.3-15.6c4.4-6.9,9.5-11,12.4-11.3c2.8-0.4,7.2-6.4,8.3-9.4s0.9-11.7,0.4-15s4.4-8.8,7.1-11.7
			c2.7-2.8,5.7-5.3,3-8.3s-3.5-10.8-2.5-13.3c1.1-2.5,1.6-2.5,2.5-4.8s1.4-3.2,4.8-3.4c3.4-0.2,8.5-0.2,12.4-5.7s6.7-9.7,12-7.2
			s30.8,19.4,31.8,24c1.1,4.6,5.5,5.5,2.8,8.1c-2.7,2.7-2.1,6.4-5.8,7.1s-5.3,0.4-5.8,4.8s0.9,11.7,2.5,13.3
			C244.5,66.8,249.8,71.9,249.8,71.9L249.8,71.9z"/>
		<path id="path3795" class="st1" d="M141.5,479.5c-2.4-2,0.5-5.1,0-12.4l-1.2-6.4c-5.6-1.7-6.2,0.3-9.2,0.5
			c-6.5,0.6-3.1-1.6-5.5-4.9c-1.6-2.2-2.1-7.1-0.9-9.9c1.8-4.4,0.8-4.9-9.8-15.3c-12.4-12-15.5-13.4-15.5-6.7c0,3.5-0.6,4.2-3.2,4.2
			c-4.7,0-6.9-1.9-10.1-8.7c-2.3-4.8-4.5-6.9-9.8-9.4c-5.2-2.4-6.7-3.8-6.1-5.7c2.7-8.5,2.7-8.3-1.8-10.2c-2.4-1-4.3-2.2-4.3-2.7
			c0.1-4.4,4.3-13.3,7.4-15.7c4.2-3.3,5.1-8.6,1.8-11.3c-1.1-0.9-5.6-2.2-9.9-2.8c-4.8-0.6-9.1-2.2-11-4c-4.3-3.9-11.7-7.6-19.3-9.5
			c-5.9-1.5-6.4-2-8.7-9.1c-1.4-4.2-3.2-8-4.2-8.6c-3.1-1.9-0.2-8.3,5.7-12.1c8-5.3,10.9-13.5,9-25.1c-1.2-7.4-1-9.9,1.2-16.4
			c1.5-4.3,4.3-9.5,6.4-11.6c2.8-2.9,3.7-5.2,3.5-9.2c-0.3-7.6,0.7-9.8,6-13.1c2.6-1.6,5.5-4.8,6.4-7c1.5-3.6,1.3-4.9-2-10.4
			l-3.7-6.3l3.6-4.3c4.3-5.1,12-21.5,12.2-26.1c0.1-1.7-1-7.4-2.4-12.6c-2.3-8.3-2.4-10.7-0.9-19.1c3.5-19.9,6.3-24.5,20.1-33.2
			c5.3-3.4,7.8-4,15.6-3.9c5.1,0,11.8,1,14.9,2.1c8,2.9,12.6,2.5,25.3-1.9l11.2-3.8l1.6-6.6c2.2-8.9,8-17.3,14.9-21.7
			c8.1-5.1,11.2-10.9,11.2-21c0-7.5,0.5-9,5.1-14.6c3.6-4.4,4.9-7.1,4.3-9.3c-2.4-9.2-2.6-11.1-1.8-14.3c1.3-5,4.7-7.9,9.5-7.9
			c3.2,0,5.7-1.6,10.5-6.7l6.3-6.7l6.1,3.2c8.4,4.4,25,17.2,28.4,21.8c4,5.4,2.3,10.7-4.2,13.4l-5.1,2.1l0.6,7.8
			c0.5,6.4,1.4,8.6,5.2,12.3l4.5,4.5h25.1h25.1l4,4.1c3.8,3.9,4.4,4,13.4,3.3c5.2-0.4,10.6-1.2,11.9-1.8c3.3-1.3,6.4-7.4,7.5-15
			c1.3-8.9,3.6-11.7,13.5-16.6c9.6-4.8,12.1-5.2,17.4-2.7c5.3,2.4,4.7,7.3-1.5,12c-4.6,3.5-5,4.3-4.1,8.9c0.5,2.8,1.6,5.8,2.3,6.7
			c0.7,0.9,6.8,1.2,14.3,1.8c7.7,0.6,12.5,0.1,16.1,1.5c1.8,0.7,3.3,0.3,4.4,1.4s2.1,4.1,2.5,5c0.6,1.6-1,6.1-3.9,10.3
			c-0.7,1.1-1.5,2.1-2.3,3.1s-1.7,2-2.6,3s-1.3,2.3-2.2,3.2c-0.9,0.9-2.2,1.4-3,2.3c-2.9,3-3.1,3.5-3.6,5.4
			c-0.2,0.9-0.1,3.6-0.4,4.6c-0.4,1-2.1,1.2-2.3,2c-0.7,2.3-0.4,2.2,3.9,6.5c1.5,1.5,5.1,4.4,6.4,6.2c1.3,1.9,1.6,5,1.8,6.3
			c0.6,2.8,1.7,4.6,3.7,5.5s4.8,1,8,0.4c4-0.7,4.1-1.8,6.6-6.9c3.4-7.1,4.5-9,14.8-8.6c1,0,2.3-0.5,3.4-0.4s2.7,0.8,3.9,1
			c2.5,0.5,5.4,1.3,6.9,1c3.1-0.6,5.9-1.5,7.5-3c1.5-1.3,2.3-2.5,3.6-2.8s3.1,0.2,4.3,0.3c0.9,0,2.9,1.3,3.2,2.2
			c0.3,0.7,0,1.8-0.7,2.9c-1.3,1.9-1.8,4-2.5,5.3c-0.6,1.3-1.2,1.9,0.6,4.2c2,2.6,6.1,6.6,7,7c1,0.4,3.9,3.9,6,7.8
			c1.5,2.7,2.6,4.3,3.1,6.1c0.4,1.8,0.2,3.9-0.5,4.4c-2.4,1.9-16.3,4.4-23.2,4.4c-2.3,0-4.4-0.1-5.4,0.3c-1,0.4-1.1,1.3-2,3.1
			c-0.3,0.6-1,1.3-1.3,2.4c-0.3,1.1-0.7,2.3-1.5,3c-1.5,1.4-4.2,1.2-5.7,2l-2.8,1.7c-0.8,3.9-1.2,8-0.7,11.9c0.4,3.2,1.6,6,2.1,9.2
			c0.5,3.3,0.6,6.9,0.6,9.3c-0.1,4.7-2.7,6.7-2.7,12.6c0,5,0.5,8.2-1.1,10.1c-1.6,1.9-5.9,2.5-11.3,3.1c-4.9,0.6-5.4,1-8,1.3
			c-1.3,0.2-2.7,1-3.5,2.2c-0.7,1-1.6,1-1.4,2.3c0.3,1.4,1.9,2,1.6,3.7s-2.1,5.3-3.4,6.7c-1.9,2-2.5,2.7-3.6,3.1
			c-0.8,0.3-1.8,0.3-2.4,1s-1,1.3,0.3,3.8c0.5,1.1,2,2.8,2.5,3.9c0.5,1.2,0.9,2.4,1.2,3.5c0.5,1.9,1.1,4.4,1.1,5.8
			c0.1,2.9-2.1,3.1-4.9,5.7c-4.3,4.1-4.7,2.2-5.5,11.8c-0.4,4-1.3,10.3-1.6,13c-0.2,2.6-0.2,4.8-0.7,6.3c-0.9,3.1-2.6,4.2-4.4,5
			c-2.6,1.2-3.8,1.5-3.7,2.9c0.1,1.3,0,1.5,2.7,3.5c1.8,1.4,3.9,1.3,4.6,2.6c0.3,0.6,1.2,2.3,1.6,4s0.2,3.2,0.2,4
			c0,2.3,0.7,3.1,1.5,4.6c1.1,2,1,6.2,0.3,8s-2.6,2.4-5.6,3.4c-2.1,0.7-5.2,1.1-6.1,2.1s-1.4,2.1-2.9,5.3c-1.7,3.8-2.7,5.6-3.3,7.2
			s-0.6,2.9,0.6,6.1c0.7,1.8,2.7,5.1,3.1,6.9c0.3,1.8-0.4,5.6-0.8,6.9c-0.9,2.8-0.6,2.2,1.4,4.8c1.1,1.4,2.7,2.9,3.4,5.3
			c0.4,1.2,0.3,2.6,0.3,3.8c0,1.3,0.3,2.4,0.1,3.2c-0.2,1.2-2.2,2.4-2.5,4.3c-0.3,1.8-0.3,2.1-0.5,3.7c-0.5,3.1-0.1,5.5-1,7.3
			c-1,1.7-3.4,2.7-5.7,2.7c-2.7,0-8.6,0.5-10.5,2.5c-1.9,2.1-1.4,5-1.7,7.2c-0.6,3.4-4.1,2.7-8.5,4.2c-4.9,1.7-3.9,1.9-6.4,7
			c-0.7,1.4-1.3,4.3-2,5.6c-0.7,1.2-1.7,1.1-2.2,1.6c-1.1,1-3-0.2-4.8-0.2c-0.7,0-3.3,0.8-4.8,2.5c-1.5,1.6-0.9,3.6-2,4.4
			c-2.2,1.7-2.5,0.3-3.3,2c-1.6,3.2,1.9,3.6,1.9,7.8c0,8.1-5.2,10.4-16.8,11.4c-2.7,0.2-5.5,0.5-7.9,0.2s-2.4,0.2-4.3-0.7
			s-6.9-3.9-8.2-5c-0.9-0.8-0.4-2.2-0.8-3.9c-0.8-3.6-1.6-5.5-6.8-6.1c-1.5-0.2-6-1-10.8-2.2c-4.7-1.2-9.7-2.5-12.1-4l-3.3-2
			c-0.8-1.1-2-2-1.6-4.1l1.2-2.2c0.7-1.2,1-2.5,1.1-3s0.1-0.9-0.2-1.5c-0.7-1.2-3.2-1.9-5.9-3.3c-6.5-3.3-8.7-6.3-7.5-11.1
			c0.5-1.9,0.4-7-0.1-9c-0.4-1.7-3.3-3.3-5-3.1c-1.7,0.2-2,2.3-5,2.7c-3.6,0.5-7.7-3.7-8.5-4.3c-0.8-0.6,3.3-4.3,2.4-8.1
			c-0.9-3.6-3.2-8.9-3.2-13.1c0.1-4.7,0.3-8.7,1.4-11.9c1.2-3.7,2.2-6.6,0.8-8.7s-5.3-3.4-10.5-6.3c-8.3-4.6-9-5-11.7-3.3
			c-0.8,0.5-1.5,1.7-3.5,2.2s-5.2,0.3-7.4,0.5c-4.5,0.5-8.7,1-9.2,1.5c-1.9,1.9-0.5,11.2,2.2,14.8c1.6,2.2,3.2,7.4,4.2,12.3
			c1.4,6.7,1.1,8.8-3.1,12.1c-4.6,3.7-5.3,2.6-5.1,11.8c0.1,4.5,0.6,9.2,3.7,11.6c1.7,1.3,2.7,1.6,3.9,2.2c1.6,4-1.9,7.5-2.9,10.6
			c-1.3,4-0.8,5.8-2.7,7s-6.1,1.7-11,2.8c-2.4,0.5-5.2,4.2-8,8.7c-3.7,5.8-3.7,5.7-3.7,13c0,8,0.4,10.5-3.2,12.3
			c-7.2,3.7-11.9,4.5-15,1.9l-2.7-3.5L141.5,479.5z"/>
	</g>
	<path id="path3813" class="st2" d="M249.4,71.2c0,0-2.3,5.4-9.3,6.4c-6.9,1-14.2,0.8-14.7,4.6c-0.5,3.9-3.1,6.9-1.8,10.3
		c1.3,3.3-0.3,9.8,7.2,12.9s26.2,12.9,27.8,16.7c1.5,3.9,5.1,6.7,4.6,11.6c-0.5,4.9-6.9,12.1-6.9,14.7s3.1,5.7,2.1,9.3
		s-8.5,12.1-8,15.2c0.5,3.1,3.1,6.7-0.5,11.3s-15.7,13.4-23.2,12.9s-18-0.8-31.6,8.7s-30.1,17-30.6,21.6s-0.8,14.9-0.8,14.9
		s0,2.1,1.5,4.6s-0.8,10-4.1,11.1c-3.3,1-12.3-0.5-13.4,2.3S133,286,133,286s-2.8,6.2-3.3,10s-1.3,11.6-5.4,16.2s-5.1,8-4.9,11.1
		c0.3,3.1,0.5,6.4-4.1,6.9s-6.2,2.8-8,4.9s-6.7,9.3-6.7,9.3s2.1,1.5-4.4,6.4s-16.6,14-19.2,14s-3.9,2.8-3.9,2.8"/>
	<path id="path3815" class="st2" d="M384.4,107.9c0,0-16.2-0.6-20.6,3.1s-7.5,7.7-8,9s-2.4,4.1-3.9,5c-1.4,0.9-7.1,6.8-9.3,12.1
		c-2.2,5.3-1.5,7.8-6,9.1s-12.3,3.7-14.2,6.8s-4,9.3-4.2,12.9s-1,11.4-1.7,13.4s-3.5,7.2-1,9.4s6.6,6.7,6.4,9.5
		c-0.1,2.8,0.5,5.9,2.8,7.6s12,10.8,11.2,15.4s-4.5,7.8-6.6,7.6s-3.9-1.9-6.3-2.1c-2.4-0.1-7.6,1.4-10.3,1.7
		c-2.7,0.3-13.5-0.3-14.8-2.8c-1.3-2.6-3.1-8.7-5.9-7.6c-2.8,1.2-7.7,2.1-8,3.2s-3.7,8.5-6.2,9.5c-2.4,1-7.6,3.2-13.1,3.7
		s-13.6,2.8-17,0c-3.3-2.8-10.9-10.3-12.2-14.3s-4.1-5-4.8-7.1s-3.2-3.3-3-8.2s-0.5-7.7-0.5-7.7"/>
	<path id="path3817" class="st2" d="M189.3,361.1c0,0,3.6-6.1,5.1-9s4.4-8,2.7-10.9c-1.6-2.9-4-4.5-3.3-10.6c0.7-6,0.2-7.3,2.9-7.8
		s5.5-0.9,8.4-5.3s4.2-5.5,3.3-8.6s-4.7-4.9-1.6-8.4s7.3-6,7.1-11.8s-1.3-14.7,2.2-16.7s7.6-5.3,9.1-8.7c1.5-3.5,12-10,13.5-14.6
		c1.5-4.5,7.3-16,7.3-16s27.5,26.9,31.3,28.4s5.6,2.9,7.5,4.9s12,18.2,12.7,20.2s12.4,13.5,12.2,15.5c-0.2,2,9.8,4.5,9.3,9.5
		c-0.5,4.9,0.5,5.8-1.5,6s-9.5,2.2-12.6-0.4s-3.5-3.5-5.1-2.2s-6.4,6.5-13.5,6.2c-7.1-0.4-7.5,1.8-6.7,4c0.7,2.2,7.1,10,7.3,14.4
		c0.2,4.4-2,7.5-1.6,10.4s5.1,6.2,5.8,8.4c0.7,2.2-0.9,2.4-1.8,3.1s-4.7,6-6,8.6s-2.2,5.1-0.4,6.2c1.8,1.1,5.8,3.3,6.7,5.5
		c0.9,2.2,2,10.2,2,10.2s3.5,2,5.6,4.9c2.2,2.9,1.8,6-0.7,7.3s-3.5,0.9-4,4.9s-0.9,7.3-6.4,7.6c-5.5,0.4-10.2,2.2-10.7,5.8
		c-0.5,3.6,2.5,6,1.1,10.6c-1.5,4.5-2,5.1-3.3,9.1s-2,4.9-8,5.1s-10.6-0.4-10.6-0.4"/>
</g>
</svg>
