<svg xmlns="http://www.w3.org/2000/svg" width="331.527" height="337.987" viewBox="0 0 331.527 337.987">
  <g id="그룹_1693" data-name="그룹 1693" transform="translate(-867.592 -197)">
    <g id="person_01" transform="translate(1069.001 197)">
      <path id="패스_4358" data-name="패스 4358" d="M426.045,848.847s.557.552.573.757a9.4,9.4,0,0,1-.179,2.575c-.227.2-.9.346-.682.573a6.523,6.523,0,0,0,2.245.087c.243-.016.546-1.975.644-2.262.141-.417.644-1.326.514-1.618a3.8,3.8,0,0,0-.936-.736,3.8,3.8,0,0,1-.855-.925Z" transform="translate(-405.273 -801.94)" fill="#f7a491"/>
      <path id="패스_4359" data-name="패스 4359" d="M256.912,900.432s.433,1.239.492,1.412a8.426,8.426,0,0,1,.189,1.012c0,.774-3.446-.655-2.673-1a.854.854,0,0,0,.314-.541,1.8,1.8,0,0,0-.292-.914Z" transform="translate(-243.612 -852.167)" fill="#f7a491"/>
      <g id="그룹_1648" data-name="그룹 1648" transform="translate(6.807 21.095)">
        <path id="패스_4360" data-name="패스 4360" d="M175.424,398.8l-1.25,3.23a78.218,78.218,0,0,0-.341,12.325c.2,1.931,4.491,12.26,4.491,12.26l2.132-.3L177.6,414.079l1.05-4.68,1.493-9.246Z" transform="translate(-173.686 -398.8)" fill="#b75742"/>
        <path id="패스_4361" data-name="패스 4361" d="M217.256,401.9l1.071,3.6,1.628,10.853,5.5,10.155s-.828,1.271-1.715,1.472l-7.812-10.263L211.7,404.865l.146-2.857Z" transform="translate(-209.643 -401.732)" fill="#f47458"/>
      </g>
      <path id="패스_4362" data-name="패스 4362" d="M57.226,255.532c.108-.281,1.169-5.832,1.169-5.832l-2.64.281-.768,4.7c-.931-.427-1.71-.79-1.71-.79a16.551,16.551,0,0,1-1.612-.806,1.714,1.714,0,0,0-.341-.849,1.4,1.4,0,0,0-.427-.379s-.373-.206-.449-.135a.2.2,0,0,0-.005.265c.054.065.211.13.265.189a.615.615,0,0,1-.005.406c-.043.087-1.125-.557-1.125-.557s-.3-.2-.395-.271-.308-.271-.308-.271-.4-.308-.482-.2c-.1.13,1.185,1.223,1.142,1.288-.049.087-.655-.254-.655-.254a2.252,2.252,0,0,0-.384-.281c-.13-.162-.46-.357-.552-.222a3.054,3.054,0,0,0,.335.4s.243.206.352.308a7.7,7.7,0,0,0,.682.476c.114.1.049.1.049.119a4.64,4.64,0,0,1-.411-.227,3.79,3.79,0,0,1-.4-.222,4.026,4.026,0,0,0-.411-.265c-.314-.173-.368.049-.1.254.1.081.211.168.325.254.438.335.9.552.887.606-.027.07-.855-.368-.855-.368s-.514-.114-.124.195a4.023,4.023,0,0,0,.893.541,4.116,4.116,0,0,0,1,.438c.471.092,1.223.216,1.223.216.368.211,3.4,2.056,5.232,3.133l1.342-1.634c-.151-.07-.449-.206-.817-.373A.935.935,0,0,0,57.226,255.532Z" transform="translate(-47.864 -236.672)" fill="#f8a492"/>
      <path id="패스_4363" data-name="패스 4363" d="M183.8,167.944l3.035.314s.141-2.521.141-3.728c0-1.461-.195-3.279-.368-3.241a2.369,2.369,0,0,0-1.466.871C183.789,164.049,183.8,167.944,183.8,167.944Z" transform="translate(-176.445 -153.044)" fill="#3c8f7c"/>
      <path id="패스_4364" data-name="패스 4364" d="M424.387,864.1s-1.174,3.609-1.677,3.782c-.135.049-.887.238-1.006.525a.04.04,0,0,0-.005.027.3.3,0,0,0,.3.352h2.391s.341-1.618.476-2.332a10.926,10.926,0,0,0,.633-1.893A4.474,4.474,0,0,0,424.387,864.1Z" transform="translate(-401.467 -817.831)" fill="#184655"/>
      <path id="패스_4365" data-name="패스 4365" d="M211.3,928.466l-.384-1.266a3.414,3.414,0,0,1-1.25.3,12.177,12.177,0,0,1-1.223-.3c-1.656.552-3.008.817-2.759,1.261H211.3Z" transform="translate(-197.115 -877.517)" fill="#3c8f7c"/>
      <path id="패스_4366" data-name="패스 4366" d="M189.441,156.847a7.312,7.312,0,0,1,2.029.536,9.945,9.945,0,0,1,1.363,1.748s-2.483,9.035-2.364,10.6.454,3.885.454,3.885-5.962.379-8.224-.514c0,0,.714-3.549.714-4.48s.4-10.242.687-10.729.86-.763,1.948-1A15.783,15.783,0,0,1,189.441,156.847Z" transform="translate(-175.405 -148.769)" fill="#50bfa5"/>
      <path id="패스_4367" data-name="패스 4367" d="M258.982,109.012l.4,2.608s-1.39,2.224-2.256,1.953c-.73-.227-.341-2.094-.341-2.094a10.7,10.7,0,0,0,.227-1.087,4.033,4.033,0,0,0,.049-1.12C256.937,108.53,258.982,109.012,258.982,109.012Z" transform="translate(-245.384 -103.45)" fill="#f7a491"/>
      <path id="패스_4368" data-name="패스 4368" d="M262.749,109.349c-.119-.736,1.926-.254,1.926-.254l.032.216a1.179,1.179,0,0,1-.222.362,2.723,2.723,0,0,1-1.785.806A4.11,4.11,0,0,0,262.749,109.349Z" transform="translate(-251.077 -103.527)" fill="#f47458"/>
      <g id="그룹_1649" data-name="그룹 1649" transform="translate(10.438 0)">
        <path id="패스_4369" data-name="패스 4369" d="M244.3,29.374c.06-.022.465,2.965-.308,3.787s-2.267,1.093-2.808.444c-.6-.714-.563-3.928.633-4.772S244.3,29.374,244.3,29.374Z" transform="translate(-240.801 -27.497)" fill="#f7a491"/>
        <path id="패스_4370" data-name="패스 4370" d="M253.557,8.918a5.171,5.171,0,0,1,2.959,1.953,2.413,2.413,0,0,1-.655,3.16,1.9,1.9,0,0,0-.833,1.4l-.13-.39a2.169,2.169,0,0,1-.108-.909,1.841,1.841,0,0,1,.135-.546c.2-.433-.438-.72-.617-1.082-.135-.276-.146-.909-.362-1.369l-.26-.352a2.476,2.476,0,0,0-1.185-.33C252.145,10.465,252.372,8.68,253.557,8.918Z" transform="translate(-251.723 -8.896)" fill="#f47458"/>
        <path id="패스_4371" data-name="패스 4371" d="M289.4,73.855c-.005.362.162.665.373.665s.39-.287.395-.655-.162-.665-.373-.665S289.4,73.492,289.4,73.855Z" transform="translate(-286.768 -69.721)" fill="#f7a491"/>
      </g>
      <g id="그룹_1651" data-name="그룹 1651" transform="translate(14.393 27.587)">
        <rect id="사각형_1986" data-name="사각형 1986" width="1.326" height="1.001" transform="translate(0.806 22.393)" fill="#13375b"/>
        <g id="그룹_1650" data-name="그룹 1650" transform="translate(2.803 0.13)">
          <path id="패스_4372" data-name="패스 4372" d="M366.3,522.066a.206.206,0,0,1,.195-.216h3.365a.206.206,0,0,1,.195.216v5.941h.6v-5.941a.834.834,0,0,0-.79-.866H366.49a.83.83,0,0,0-.79.866v5.941h.6Z" transform="translate(-365.7 -521.2)" fill="#355389"/>
        </g>
        <path id="패스_4373" data-name="패스 4373" d="M323.487,659.245l-8.051-.449a.8.8,0,0,1-.779-.817l-.763-14.321c-.022-1,1.115-1.158,1.542-1.158H324.2a.8.8,0,0,1,.779.817v14.662A1.4,1.4,0,0,1,323.487,659.245Z" transform="translate(-313.894 -635.807)" fill="#13375b"/>
        <path id="패스_4374" data-name="패스 4374" d="M323.043,667.1h-7.975a1.167,1.167,0,0,1-1.169-1.169V651.969a1.167,1.167,0,0,1,1.169-1.169h7.975a1.167,1.167,0,0,1,1.169,1.169v13.953A1.165,1.165,0,0,1,323.043,667.1Z" transform="translate(-313.9 -643.658)" fill="#466eb6"/>
        <path id="패스_4375" data-name="패스 4375" d="M357.3,754.213h-6.4V745.7a2.8,2.8,0,0,1,2.8-2.8h.8a2.8,2.8,0,0,1,2.8,2.8Z" transform="translate(-348.898 -730.776)" fill="#355389"/>
        <path id="패스_4376" data-name="패스 4376" d="M375.975,622.492c.812,0,1.5.357,1.526.79h.649c-.022-.709-.985-1.282-2.175-1.282s-2.153.573-2.175,1.282h.649C374.482,622.849,375.163,622.492,375.975,622.492Z" transform="translate(-370.559 -616.417)" fill="#13375b"/>
        <path id="패스_4377" data-name="패스 4377" d="M383.078,519.628h-2.716a.363.363,0,0,1-.363-.362v-.1a.363.363,0,0,1,.363-.362h2.716a.362.362,0,0,1,.362.362v.1A.363.363,0,0,1,383.078,519.628Z" transform="translate(-376.423 -518.8)" fill="#13375b"/>
      </g>
      <path id="패스_4378" data-name="패스 4378" d="M343.6,238.723s2.088,3.657,2.2,4.631.417,6.79.417,6.79a11.211,11.211,0,0,0-.211,2.716c.211.211.8.141.974.173a3.89,3.89,0,0,0,.752-.054.8.8,0,0,0,.222-.065l.287-.135s-.6-2.364-.584-2.537.5-6.649.227-7.937a58.5,58.5,0,0,0-2.159-5.605Z" transform="translate(-327.6 -224.375)" fill="#f8a492"/>
      <path id="패스_4379" data-name="패스 4379" d="M330.07,174.1l-2.808,1.461s-.914-2.132-1.509-3.392c-.606-1.277.238-4.263.876-4.09C328.068,168.463,330.07,174.1,330.07,174.1Z" transform="translate(-310.52 -159.455)" fill="#96d9c9"/>
      <path id="패스_4380" data-name="패스 4380" d="M165.794,422.381c.027.476.054.947.076,1.423a1.38,1.38,0,0,1-1.488,1.315,22.578,22.578,0,0,1-3.317-.233,1.289,1.289,0,0,1-1.206-1.493c.108-.46.211-.925.314-1.39a1.356,1.356,0,0,1,1.5-1.017,19.464,19.464,0,0,0,2.754.184A1.355,1.355,0,0,1,165.794,422.381Z" transform="translate(-153.771 -398.678)" fill="#184655"/>
      <path id="패스_4381" data-name="패스 4381" d="M269.838,434.6s-2.364.66-3.538.855l.081,1.2,3.614-.249Z" transform="translate(-254.482 -411.568)" fill="#184655"/>
      <path id="패스_4382" data-name="패스 4382" d="M157.994,422.381c.027.476.054.947.076,1.423a1.38,1.38,0,0,1-1.488,1.315,22.578,22.578,0,0,1-3.317-.233,1.289,1.289,0,0,1-1.206-1.493c.108-.46.211-.925.314-1.39a1.356,1.356,0,0,1,1.5-1.017,19.464,19.464,0,0,0,2.754.184A1.351,1.351,0,0,1,157.994,422.381Z" transform="translate(-146.393 -398.678)" fill="#3c8f7c"/>
      <g id="그룹_1652" data-name="그룹 1652" transform="translate(6.429 23.432)">
        <path id="패스_4383" data-name="패스 4383" d="M169.286,442.644a8.731,8.731,0,0,1-2.586-.406l.081-.238a7.733,7.733,0,0,0,4.3.114l.081.238A5.572,5.572,0,0,1,169.286,442.644Z" transform="translate(-166.7 -442)" fill="#184655"/>
      </g>
      <path id="패스_4384" data-name="패스 4384" d="M229.658,447.863l-.141.022a.117.117,0,0,1-.135-.1l-.011-.06a.117.117,0,0,1,.1-.135l.141-.022a.117.117,0,0,1,.135.1l.011.06A.12.12,0,0,1,229.658,447.863Z" transform="translate(-219.549 -423.836)" fill="#355389"/>
      <path id="패스_4385" data-name="패스 4385" d="M231.646,450.2l-.124.027-.022.525.39-.054Zm-.043.1.162.325-.179.027Z" transform="translate(-221.565 -426.324)" fill="#13375b"/>
      <rect id="사각형_1987" data-name="사각형 1987" width="3.3" height="1.315" transform="translate(21.54 30.595)" fill="#9bc1f9"/>
    </g>
    <g id="person_02" transform="translate(1144.442 313.4)">
      <g id="그룹_1665" data-name="그룹 1665" transform="translate(0 0)">
        <g id="그룹_1659" data-name="그룹 1659" transform="translate(0 4.076)">
          <path id="패스_4386" data-name="패스 4386" d="M51.635,195.9c-.184,4.032-1.3,4.394-1.325,4.449a1.474,1.474,0,0,1-1.91-.217l.329-.334a1.309,1.309,0,0,0,.562.334,1,1,0,0,0,.8-.123,1.387,1.387,0,0,0,.379-.356,9.562,9.562,0,0,0,.93-3.753Z" transform="translate(-48.4 -189.246)" fill="#355389"/>
          <path id="패스_4387" data-name="패스 4387" d="M142.9,84.811a20.06,20.06,0,0,0-.54,3.486c-.056,1.565-1.125,2.868-1.264,6.777a73.332,73.332,0,0,1-.691,7.506s-4.3.3-5.151-.618-3.2-9.132-2.361-13.2-.128-5.346,1.782-6.677,4.4-.429,5.457-.067S142.932,83.947,142.9,84.811Z" transform="translate(-128.025 -81.103)" fill="#184655"/>
          <path id="패스_4388" data-name="패스 4388" d="M100.531,184.711a29.414,29.414,0,0,0,.006,6.259,59.99,59.99,0,0,1-.228,9.4s-3.208,2.255-4.149.462a42.257,42.257,0,0,1-.64-6c-.05-2.127.312-10.614.312-10.614S96.984,182.823,100.531,184.711Z" transform="translate(-92.891 -177.746)" fill="#f7cc7f"/>
          <path id="패스_4389" data-name="패스 4389" d="M88.639,79.531c-1.091.3-1.275,4.544-1.275,4.544l-3.464-.4s.629-4.427,2.461-6.281,6.454-.718,8.208.434a2.019,2.019,0,0,1,1,2.623S89.73,79.236,88.639,79.531Z" transform="translate(-81.923 -76.414)" fill="#13375b"/>
          <g id="그룹_1653" data-name="그룹 1653" transform="translate(8.303 7.89)">
            <path id="패스_4390" data-name="패스 4390" d="M197.5,221.447c2.528,0,4.678-2.528,4.806-2.656l.095-.69c-.028.028-2.55,2.717-4.878,2.717Z" transform="translate(-197.5 -218.1)" fill="#13375b"/>
          </g>
          <g id="그룹_1654" data-name="그룹 1654" transform="translate(2.773 8.558)">
            <path id="패스_4391" data-name="패스 4391" d="M103.05,234.232l-.033-.523c-1.125-.123-3.8-2.634-4.8-3.608l-.017.657C98.356,230.9,101.541,234.065,103.05,234.232Z" transform="translate(-98.2 -230.1)" fill="#13375b"/>
          </g>
          <g id="그룹_1655" data-name="그룹 1655" transform="translate(2.601 16.204)">
            <path id="패스_4392" data-name="패스 4392" d="M100.29,367.912l-.011-.512c-.863.384-3.987.134-5.179,0l.006.5C96.208,368.024,99.271,368.369,100.29,367.912Z" transform="translate(-95.1 -367.4)" fill="#13375b"/>
          </g>
          <g id="그룹_1656" data-name="그룹 1656" transform="translate(2.89 19.384)">
            <path id="패스_4393" data-name="패스 4393" d="M105.044,425.074l.045-.574c-1.036.451-3.742,1.609-4.789,1.381l.061.479C101.564,426.622,103.925,425.564,105.044,425.074Z" transform="translate(-100.3 -424.5)" fill="#13375b"/>
          </g>
          <g id="그룹_1657" data-name="그룹 1657" transform="translate(2.756 19.506)">
            <path id="패스_4394" data-name="패스 4394" d="M102.672,429.005l.033-.473A38.693,38.693,0,0,1,97.9,426.7l.067.574A32.455,32.455,0,0,0,102.672,429.005Z" transform="translate(-97.9 -426.7)" fill="#13375b"/>
          </g>
          <g id="그룹_1658" data-name="그룹 1658" transform="translate(5.418 13.748)">
            <path id="패스_4395" data-name="패스 4395" d="M146.569,331.051h.735a.87.87,0,0,0,.869-.869v-6.014a.87.87,0,0,0-.869-.869h-.735a.87.87,0,0,0-.869.869v6.02A.869.869,0,0,0,146.569,331.051Z" transform="translate(-145.7 -323.3)" fill="#50bfa5"/>
            <rect id="사각형_1988" data-name="사각형 1988" width="2.472" height="0.523" transform="translate(0 2.305)" fill="#13375b"/>
          </g>
        </g>
        <g id="그룹_1664" data-name="그룹 1664" transform="translate(3.269)">
          <g id="그룹_1663" data-name="그룹 1663">
            <g id="그룹_1662" data-name="그룹 1662">
              <path id="패스_4396" data-name="패스 4396" d="M122.126,854.5s-1.147,1.058-1.147,1.064c-.161.122-.59.384-.718.512-.468.484,2.539,1.7,2.266,1.013a1.359,1.359,0,0,1,.072-.791c.223-.278.629-.674.629-.674Z" transform="translate(-119.481 -807.096)" fill="#f7a491"/>
              <path id="패스_4397" data-name="패스 4397" d="M110.146,874.913a10.715,10.715,0,0,1-.941-.562c-.3-.217-.329-.863-.6-.958-.29-.106-1.509,1.153-1.509,1.153a33.971,33.971,0,0,0,3.631,3.48,1.077,1.077,0,0,0,.707.128C111.883,878.16,110.837,876.272,110.146,874.913Z" transform="translate(-107.1 -824.931)" fill="#184655"/>
              <path id="패스_4398" data-name="패스 4398" d="M413.6,884.04l.356,1.737c.022.228.028.8.078,1,.195.741,3.1-1.509,2.278-1.643a1.065,1.065,0,0,1-.568-.39,6.778,6.778,0,0,1-.429-1.142Z" transform="translate(-396.532 -834.576)" fill="#f7a491"/>
              <path id="패스_4399" data-name="패스 4399" d="M420.115,911.1a12.3,12.3,0,0,1-1.08.6c-.379.161-1.069-.29-1.309-.084-.267.223.167,2.211.167,2.211s4.962-1.325,6.014-2.016C424.325,911.534,421.819,911.206,420.115,911.1Z" transform="translate(-400.346 -860.544)" fill="#184655"/>
              <path id="패스_4400" data-name="패스 4400" d="M341.435,235.378a1.962,1.962,0,0,0-.924-.256,16.518,16.518,0,0,1-.991-1.559s-2.606-4.4-2.74-4.65l-.518-5.312-2.762-.4s.724,5.758.813,6.048,4.332,5.819,4.694,6.32c0,0,.195.757.34,1.231a4.012,4.012,0,0,0,.546.974,4.447,4.447,0,0,0,.652.852c.362.367.195-.15.195-.15s-.54-.8-.468-.83c.056-.028.323.429.718.835.1.106.2.206.3.3.245.245.473.167.262-.134a3.68,3.68,0,0,0-.312-.39,2.719,2.719,0,0,1-.273-.384,4.39,4.39,0,0,1-.278-.4c.017,0,.017-.072.128.033.134.128.351.468.562.646.123.1.356.323.356.323a3.157,3.157,0,0,0,.451.251c.139-.106-.1-.373-.278-.484a2.3,2.3,0,0,0-.334-.362s-.412-.579-.323-.64a7.983,7.983,0,0,1,.674.568c.317.251.685.451.746.4.106-.095-.217-.412-.217-.412s-.239-.212-.312-.284c-.084-.089-.323-.373-.323-.373s-.774-1.03-.685-1.086a.634.634,0,0,1,.423-.05c.072.045.15.2.223.251a.231.231,0,0,0,.278-.039c.067-.084-.184-.445-.184-.445A1.34,1.34,0,0,0,341.435,235.378Z" transform="translate(-320.893 -210.95)" fill="#f8a492"/>
              <path id="패스_4401" data-name="패스 4401" d="M331.837,141.5c2.138.512,2.673,5.324,2.807,5.942-.707.251-1.548.507-2.278.718l-.869-6.76A1.457,1.457,0,0,0,331.837,141.5Z" transform="translate(-319.001 -133.706)" fill="#3c8f7c"/>
              <path id="패스_4402" data-name="패스 4402" d="M319.712,463.7l3.074,12.39,1.943,12-2.422.329s-3.408-9.177-3.5-10.229A59.967,59.967,0,0,0,317,472.2Z" transform="translate(-305.312 -438.058)" fill="#355389"/>
              <path id="패스_4403" data-name="패스 4403" d="M147,437.9s.228,11.878.039,12.986-5.34,10.525-5.34,10.525l1.732,1.9s7.367-8.615,7.69-9.372c.507-1.192,3.024-14.623,3.024-14.623Z" transform="translate(-139.773 -413.695)" fill="#13375b"/>
              <path id="패스_4404" data-name="패스 4404" d="M234.53,141.567a1.854,1.854,0,0,0-1.826,1.125c-.523,1.247-1.041,7.25-.807,10.129a25.162,25.162,0,0,1-.5,6.27c4.55,2.378,7.518.407,7.518.407s1.2-11.02.757-13.058c-.924-4.254-2.7-4.939-2.7-4.939Z" transform="translate(-224.478 -133.8)" fill="#96d9c9"/>
              <path id="패스_4405" data-name="패스 4405" d="M175.249,225.06c-.5-.813-.6-.7-.663-.8a19.325,19.325,0,0,1,.006-2.055s.195-5.686.217-5.992l2.523-5.251-2.183-2.06s-2.6,5.791-2.684,6.114.518,8.058.546,8.737c0,0-.251.824-.4,1.348a4.546,4.546,0,0,0-.067,1.242,5.107,5.107,0,0,0,.095,1.186c.106.557.251-.022.251-.022a4.471,4.471,0,0,1,.061-1.058c.061.011.039.6.156,1.214.028.161.061.317.089.462.072.379.317.44.3.033a4.02,4.02,0,0,0-.056-.551,2.784,2.784,0,0,1-.022-.518,5.28,5.28,0,0,1-.022-.535c.017.011.056-.056.095.111.045.2.045.652.128.947.05.167.128.518.128.518a3.293,3.293,0,0,0,.251.507c.178-.017.123-.407.028-.624a2.908,2.908,0,0,0-.089-.54s-.033-.791.072-.8a9.3,9.3,0,0,1,.267.941c.134.429.34.841.429.824.145-.022.045-.518.045-.518s-.089-.34-.111-.457c-.022-.134-.072-.546-.072-.546a6.828,6.828,0,0,1,.011-1.431.687.687,0,0,1,.4.212c.033.089.022.284.056.368a.223.223,0,0,0,.262.134c.106-.033.089-.523.089-.523A1.369,1.369,0,0,0,175.249,225.06Z" transform="translate(-168.818 -197.447)" fill="#f8a492"/>
              <path id="패스_4406" data-name="패스 4406" d="M201.6,150.263l2.862,2.239a10.327,10.327,0,0,0,1.9-2.556c.64-1.359-.139-4.945-.824-4.761C204.006,145.6,201.6,150.263,201.6,150.263Z" transform="translate(-196.338 -137.273)" fill="#3c8f7c"/>
              <g id="그룹_1661" data-name="그룹 1661" transform="translate(7.637)">
                <g id="그룹_1660" data-name="그룹 1660">
                  <path id="패스_4407" data-name="패스 4407" d="M248.053,3.479a.932.932,0,0,0-1.52.4,1.883,1.883,0,0,0-.418-.022,3.532,3.532,0,0,0-.646.362,2.545,2.545,0,0,0-1.2,1.955,3.068,3.068,0,0,0,.763,2.378,2.524,2.524,0,0,0,.568.574c.273.178.512.078.78.161.223.072.284.317.557.256.384-.089.824-.523,1.281-.418a4.713,4.713,0,0,0,1.576-.217c1.431-.418.724-3.157.54-4.126A1.938,1.938,0,0,0,248.053,3.479Z" transform="translate(-244.241 -3.224)" fill="#9bc1f9"/>
                  <path id="패스_4408" data-name="패스 4408" d="M290.766,89.876l.273,1.008.145.562s.523.674.217.819c-1.292.629-2.45-.958-2.45-.958L288.7,88.2Z" transform="translate(-286.224 -83.468)" fill="#f7a491"/>
                  <path id="패스_4409" data-name="패스 4409" d="M288.884,89.108a3.547,3.547,0,0,0,2.255,1.687l-.278-1.013L288.8,88.1Z" transform="translate(-286.319 -83.374)" fill="#f47458"/>
                  <path id="패스_4410" data-name="패스 4410" d="M280.736,29.476a1.554,1.554,0,0,1,2.177.952,10.872,10.872,0,0,1,.323,1.453c.206,1.336-.317,2.729-.93,2.812a2.905,2.905,0,0,1-2.734-2.456A2.561,2.561,0,0,1,280.736,29.476Z" transform="translate(-277.564 -27.863)" fill="#f7a491"/>
                  <path id="패스_4411" data-name="패스 4411" d="M273.784,75.321a.452.452,0,1,1-.512-.479A.5.5,0,0,1,273.784,75.321Z" transform="translate(-271.303 -70.851)" fill="#f7a491"/>
                </g>
                <path id="패스_4412" data-name="패스 4412" d="M305.384,95.6s-.813.189-.9.473a1.082,1.082,0,0,0,.329,1.064,1.457,1.457,0,0,0,1.448.067,1.368,1.368,0,0,0,.29-1.331C306.353,95.44,305.384,95.6,305.384,95.6Z" transform="translate(-301.093 -90.43)" fill="#9bc1f9"/>
                <path id="패스_4413" data-name="패스 4413" d="M315.664,102.788s-.022.323.078.39a.976.976,0,0,0,.351.145.522.522,0,0,0,.5-.178c.011-.017.022-.028.033-.045a1.421,1.421,0,0,0,.134-.434,1.725,1.725,0,0,0-.523-.095A2.235,2.235,0,0,0,315.664,102.788Z" transform="translate(-311.685 -97.037)" fill="#f7a491"/>
              </g>
            </g>
          </g>
        </g>
        <path id="패스_4414" data-name="패스 4414" d="M225.49,132.47c.061-2.478-.095-5.886-2.439-6.849a3.745,3.745,0,0,0-2.634.334h0a3.84,3.84,0,0,1,2.311.5c1.932.986,1.916,3.8,1.843,6-.178,5.518-4.371,4.934-4.371,4.934l-.1.368a5.034,5.034,0,0,0,3.586-.479C225.3,136.474,225.49,132.47,225.49,132.47Z" transform="translate(-210.539 -118.672)" fill="#184655"/>
      </g>
      <g id="그룹_1673" data-name="그룹 1673" transform="translate(33.111 0.557)">
        <path id="패스_4415" data-name="패스 4415" d="M895.661,358.934c-.44-1.236-2.912-7.273-3.53-7.434l-1.03,2.667c.056.022.15.106,2.45,4.227.056.106.117.212.178.317.161.29.334.6.518.93l-.195,1.114s0,1.788.195,1.854c.089.028.145-.117.189-.3v-.006c.005-.028.011-.05.017-.078v-.006c.039-.195.056-.4.078-.451a1.239,1.239,0,0,1,.15-.262c.373,1.142.217,1.047.173,1.414-.011.095.006.189-.006.278-.022.15-.122.262-.134.379a.515.515,0,0,0,.078.345c.039.045.1-.028.173-.167a4.8,4.8,0,0,0,.412-1.776c.05-.15.083.134.011.568a2.139,2.139,0,0,1-.033.4c-.028.095-.095.178-.128.267a2.344,2.344,0,0,0-.05.245c-.022.095-.106.223-.123.3a.758.758,0,0,0,.011.457,7.268,7.268,0,0,0,.64-1.186s.189-.88.206-1.08c0,0,.061-.117.084.123,0,.039-.033.212-.039.356a2.865,2.865,0,0,0,.006.379,1,1,0,0,0-.15.217c-.033.061-.05.161-.089.228s-.106.122-.139.189c-.089.173-.117.334-.028.39.072.05.741-.885.741-.885A5,5,0,0,0,895.661,358.934Z" transform="translate(-877.284 -332.663)" fill="#f48c7f"/>
        <g id="그룹_1671" data-name="그룹 1671" transform="translate(0 7.916)">
          <g id="그룹_1666" data-name="그룹 1666" transform="translate(15.943 37.227)">
            <path id="패스_4416" data-name="패스 4416" d="M931.578,828.962a47.93,47.93,0,0,1-.011-5.062c-.874-.006-1.392,1.576-2.266,1.559a13.851,13.851,0,0,1,.345,3.686l-.039.5.033,1.459,4.945-.189a21.843,21.843,0,0,1-2.562-1.258A.987.987,0,0,1,931.578,828.962Z" transform="translate(-929.3 -823.9)" fill="#f7a491"/>
            <path id="패스_4417" data-name="패스 4417" d="M932.567,928.4l5.212-.178c.189-.028.228-.178.156-.273a6.235,6.235,0,0,0-1.426-.579,8.16,8.16,0,0,1-3.853-.774A6.368,6.368,0,0,0,932.567,928.4Z" transform="translate(-932.344 -920.881)" fill="#f47458"/>
          </g>
          <g id="그룹_1667" data-name="그룹 1667" transform="translate(0.012 37.693)">
            <path id="패스_4418" data-name="패스 4418" d="M651.207,836.529a34.19,34.19,0,0,1,2.489-4.11c-.718-.5-1.671.44-2.378-.067a14.089,14.089,0,0,1-1.8,3.235l-.312.384-.8,1.225,3.569,1.8a2.715,2.715,0,0,0-.273-.64c-.111-.234-.306-.568-.512-1A.976.976,0,0,1,651.207,836.529Z" transform="translate(-648.111 -832.267)" fill="#f7a491"/>
            <path id="패스_4419" data-name="패스 4419" d="M643.221,899.937l3.146,2.01a6.706,6.706,0,0,0,1.531,0c-.011-.234-.7-.434-1.1-1.052a6.632,6.632,0,0,1-2.484-2.394A6.518,6.518,0,0,0,643.221,899.937Z" transform="translate(-643.216 -894.812)" fill="#f47458"/>
          </g>
          <path id="패스_4420" data-name="패스 4420" d="M682.559,170.871c-.39-1.375,1.108-6.71,1.108-8.086s-1.815-6.053-3.23-6.955-4.394-.139-4.394-.139l-1.08,4.733.24,5.023-2.807,11.4-1.025,5.279L666.7,193.941s5.474,3.681,10.753,2.829,7.1-.635,7.1-.635l1.164-12.663Z" transform="translate(-665.38 -155.389)" fill="#b75742"/>
          <g id="그룹_1670" data-name="그룹 1670" transform="translate(0 18.616)">
            <g id="그룹_1668" data-name="그룹 1668" transform="translate(5.084)">
              <path id="패스_4421" data-name="패스 4421" d="M739.206,492.551h-.629v-2.111a.112.112,0,0,0-.111-.111h-3.425a.112.112,0,0,0-.111.111v2.111H734.3v-2.111a.744.744,0,0,1,.741-.741h3.425a.744.744,0,0,1,.741.741Z" transform="translate(-734.3 -489.7)" fill="#184655"/>
            </g>
            <path id="패스_4422" data-name="패스 4422" d="M651.6,632.2l.624,4.221H665.3l.674-4.221Z" transform="translate(-651.121 -624.265)" fill="#f7cc7f"/>
            <path id="패스_4423" data-name="패스 4423" d="M662.612,536.4H647.8l.746-5.034a.779.779,0,0,1,.768-.663h11.728a.778.778,0,0,1,.768.657Z" transform="translate(-647.533 -528.417)" fill="#f7cc7f"/>
            <g id="그룹_1669" data-name="그룹 1669" transform="translate(3.458 3.23)">
              <path id="패스_4424" data-name="패스 4424" d="M776.112,551.514h0a.411.411,0,0,1-.412-.412v-2.99a.411.411,0,0,1,.412-.412h0a.411.411,0,0,1,.412.412v2.99A.408.408,0,0,1,776.112,551.514Z" transform="translate(-771.768 -547.7)" fill="#184655"/>
              <path id="패스_4425" data-name="패스 4425" d="M740.312,551.514h0a.411.411,0,0,1-.412-.412v-2.99a.411.411,0,0,1,.412-.412h0a.411.411,0,0,1,.412.412v2.99A.411.411,0,0,1,740.312,551.514Z" transform="translate(-737.962 -547.7)" fill="#184655"/>
              <path id="패스_4426" data-name="패스 4426" d="M705.512,551.514h0a.411.411,0,0,1-.412-.412v-2.99a.411.411,0,0,1,.412-.412h0a.411.411,0,0,1,.412.412v2.99A.411.411,0,0,1,705.512,551.514Z" transform="translate(-705.1 -547.7)" fill="#184655"/>
              <path id="패스_4427" data-name="패스 4427" d="M842.012,551.514h0a.411.411,0,0,1-.412-.412v-2.99a.411.411,0,0,1,.412-.412h0a.411.411,0,0,1,.412.412v2.99A.411.411,0,0,1,842.012,551.514Z" transform="translate(-833.999 -547.7)" fill="#184655"/>
              <path id="패스_4428" data-name="패스 4428" d="M807.212,551.514h0a.411.411,0,0,1-.412-.412v-2.99a.411.411,0,0,1,.412-.412h0a.411.411,0,0,1,.412.412v2.99A.411.411,0,0,1,807.212,551.514Z" transform="translate(-801.137 -547.7)" fill="#184655"/>
            </g>
            <rect id="사각형_1989" data-name="사각형 1989" width="15.369" height="1.075" transform="translate(0 7.612)" fill="#f47458"/>
          </g>
          <path id="패스_4429" data-name="패스 4429" d="M746.175,249.079a12.239,12.239,0,0,1,.006-2.122s-.173-5.741-.15-6.059l2.1-3.8-2.907-.4s-1.9,3.475-1.994,3.814,1.27,7.334,1.3,8.041a15.3,15.3,0,0,0-.624,1.6A3.056,3.056,0,0,0,744,251.4c0,.022.59.368.746.323a2.406,2.406,0,0,1,.841-.15c.652.15.434-.807.546-.8s.568-.017.568-.017C746.743,250.766,746.843,249.519,746.175,249.079Z" transform="translate(-737.643 -232.172)" fill="#f8a492"/>
          <path id="패스_4430" data-name="패스 4430" d="M767.082,160.9a3.789,3.789,0,0,0-1.542.752,41.336,41.336,0,0,0-2.439,4.3l2.762,1.843.846-1.509a6.271,6.271,0,0,0,.54-4.817Z" transform="translate(-756.412 -160.593)" fill="#f47458"/>
        </g>
        <g id="그룹_1672" data-name="그룹 1672" transform="translate(10.49)">
          <path id="패스_4431" data-name="패스 4431" d="M838.483,18.823s1.882-3.709.072-4.867c-1.392-.891-2.01-.239-2.01-.239s-2.138-1.565-2.935.941a2.14,2.14,0,0,0-2,1.453,1.968,1.968,0,0,0,.44,2.049,2.034,2.034,0,0,0-.646,1.832A1.974,1.974,0,0,0,834.257,21c.969-.624.858-.123,1.626-.123S838.483,18.823,838.483,18.823Z" transform="translate(-831.371 -13.234)" fill="#9bc1f9"/>
          <path id="패스_4432" data-name="패스 4432" d="M874.863,118.153s-1.208,2.283-.813,3.414c.217.629-2.35-2-2.35-2L873.042,117Z" transform="translate(-869.454 -111.222)" fill="#f7a491"/>
          <path id="패스_4433" data-name="패스 4433" d="M891.7,117.523a3.162,3.162,0,0,0,1.153,1.565,2.73,2.73,0,0,0,.418.239,10.693,10.693,0,0,1,.479-1.075l-1.826-1.153Z" transform="translate(-888.341 -111.316)" fill="#f47458"/>
          <path id="패스_4434" data-name="패스 4434" d="M885.25,37.587a2.6,2.6,0,0,0-1.5.919c-.6.774-.83,3.614.919,4.828s2.974-.763,3.085-2.289S887.634,37.447,885.25,37.587Z" transform="translate(-880.421 -36.224)" fill="#f7a491"/>
          <path id="패스_4435" data-name="패스 4435" d="M874.629,84.67c.078.412-.095.785-.384.835s-.585-.251-.663-.663.095-.785.384-.835S874.551,84.258,874.629,84.67Z" transform="translate(-871.214 -80.061)" fill="#f7a491"/>
          <path id="패스_4436" data-name="패스 4436" d="M877.872,29.953c.29.267-.117,1.186-.9,2.049s-1.665,1.348-1.955,1.075.117-1.186.9-2.049S877.583,29.685,877.872,29.953Z" transform="translate(-872.497 -28.952)" fill="#9bc1f9"/>
        </g>
      </g>
    </g>
    <g id="person_03" transform="translate(867.591 327.177)">
      <g id="그룹_1674" data-name="그룹 1674" transform="translate(53.454 19.79)">
        <path id="패스_4437" data-name="패스 4437" d="M928.125,347.893a1.846,1.846,0,0,1-.729-.83c-.227-.412-.89-.944-.615-1.022s.693.615.777.412-.7-1.709-.454-1.786.9,1.386.98,1.219c.066-.179-.669-1.47-.317-1.571s.741,1.583.92,1.523-.09-1.344.191-1.434.239,1.6.341,1.547c.06-.024.3-.842.466-.783s-.3,1.739-.09,2.1,1.888,4.953,1.308,5.532c-.627.627-4.594,2.061-5.431,1.81s-1.308-1.069-1.105-1.571,4.116-1.637,4.188-1.8S928.125,347.893,928.125,347.893Z" transform="translate(-924.32 -344.309)" fill="#f7a491"/>
        <path id="패스_4438" data-name="패스 4438" d="M982.7,381.8a1,1,0,0,1,.352.066.961.961,0,0,1,.556.538A1.67,1.67,0,0,0,982.7,381.8Z" transform="translate(-979.212 -379.56)" fill="#f48c7f"/>
      </g>
      <g id="그룹_1677" data-name="그룹 1677" transform="translate(0 0)">
        <path id="패스_4439" data-name="패스 4439" d="M677.048,862.9a18.406,18.406,0,0,1,.066,2.844c-.024.09-.06.215-.1.341a4.444,4.444,0,0,0,.227,1.6l4.881.024c.263,0,.09-.173-.125-.317a9.969,9.969,0,0,0-1.762-.944c-.066-.036-.341-.2-.442-.263a3.5,3.5,0,0,1-.7-.6,6.345,6.345,0,0,1-.412-2.276Z" transform="translate(-638.305 -812.127)" fill="#f7a491"/>
        <path id="패스_4440" data-name="패스 4440" d="M676.057,916.177a4.456,4.456,0,0,1-2.79-.078c-.137.388-.376,1.739-.215,1.739,1.231,0,2.252.012,5.735.036.125,0,.125-.3.048-.412A28.259,28.259,0,0,0,676.057,916.177Z" transform="translate(-634.559 -862.149)" fill="#355389"/>
        <path id="패스_4441" data-name="패스 4441" d="M575.7,372.21a15.836,15.836,0,0,0,.944,5.018c.854,1.912,4.941,6.614,6.028,9.368-.341,1.547-1.261,3.734-1.195,5.449.078,1.948-.036,7.1-.036,7.1l2.2.066,2.88-13.293-4.337-14.339-1.972-3.483Z" transform="translate(-543.074 -346.889)" fill="#3c8f7c"/>
        <path id="패스_4442" data-name="패스 4442" d="M368,811.9a18.609,18.609,0,0,1-1.948,2.324c-.317.251-1.183.591-1.273,1s3.913,4.075,3.913,4.075c.215.179.191-.066.125-.353a9.976,9.976,0,0,0-.753-2c-.036-.078-.137-.4-.173-.514a3.959,3.959,0,0,1-.137-.98c-.012-.556,1.273-2.1,1.273-2.1Z" transform="translate(-344.751 -764.174)" fill="#f7a491"/>
        <path id="패스_4443" data-name="패스 4443" d="M361.929,856.013A4.748,4.748,0,0,1,359.754,854c-.376.215-1.4.681-1.32.818a19.235,19.235,0,0,0,4.29,4.72c.1.09.526-.412.526-.544A22.658,22.658,0,0,0,361.929,856.013Z" transform="translate(-338.784 -803.759)" fill="#355389"/>
        <path id="패스_4444" data-name="패스 4444" d="M448.376,16.484c-.376-2.467-2.6-4.242-4.953-3.041a5.689,5.689,0,0,0-1.607,1.284c-1,1.284-1.243,2.868-2.3,4.1-.908,1.057-3.346.866-4.481,1.673a4.917,4.917,0,0,0-1.936,4.027c0,1.96.442,4.039,1.96,5.281a6.237,6.237,0,0,0,5.562,1.022,8.925,8.925,0,0,0,4.666-3.381,17.153,17.153,0,0,0,2.569-5.168A13.04,13.04,0,0,0,448.376,16.484Z" transform="translate(-408.993 -13.058)" fill="#184655"/>
        <g id="그룹_1675" data-name="그룹 1675" transform="translate(35.494 9.561)">
          <path id="패스_4445" data-name="패스 4445" d="M651.64,264.3s2.366,5.359,2.82,6.578,2.808,5.257,2.915,5.419,2.24.43,2.127.7-1.034-.066-1.034.078c0,.34,1.344,2.844,1.117,2.915-.412.113-.83-1.547-1.016-1.47s.854,1.535.6,1.786-.842-1.47-1.016-1.47.89,1.7.526,1.661c-.191-.012-.944-1.571-1.117-1.41-.066.066.741,1.32.514,1.284a4.72,4.72,0,0,1-1.117-1.6c-.251-.556-.137-1.105-.807-1.864s-3.37-3.184-4.176-5.12-2.581-6.2-2.581-6.2Z" transform="translate(-647.865 -258.851)" fill="#f48c7f"/>
          <path id="패스_4446" data-name="패스 4446" d="M625.486,173.1s1.972.944,2.933,6.793l-3.334.932-1.386-3.776Z" transform="translate(-623.7 -173.1)" fill="#f47458"/>
        </g>
        <path id="패스_4447" data-name="패스 4447" d="M409.418,404.1a16.008,16.008,0,0,0-2.1,4.654c-.4,2.061.263,8.251-.418,11.13-1.159,1.081-3.166,2.33-4.1,3.776-1.057,1.637-4.1,5.789-4.1,5.789l1.762,1.308,9.977-9.254,4.045-12.331,1.386-3.608Z" transform="translate(-376.649 -380.738)" fill="#50bfa5"/>
        <path id="패스_4448" data-name="패스 4448" d="M549.235,161.069s-2.24-.149-3.13.818,1.971,8.615,2.127,9.846-1.607,5.449-1.607,5.449,6.464,1.129,7.976.125c0,0-.239-9.852-.4-10.742a26.013,26.013,0,0,0-1.834-4.8A13.107,13.107,0,0,0,549.235,161.069Z" transform="translate(-515.085 -152.219)" fill="#f7cc7f"/>
        <path id="패스_4449" data-name="패스 4449" d="M600.675,110.26s-.012.066-.036.179a17.065,17.065,0,0,1-.753,2.82c-.317.591,1.081,2.491,2.426,2.252.4-.066-.341-1.739-.3-1.924.066-.341.161-.795.251-1.273.06-.275.1-.538.161-.795.149-.729.263-1.32.263-1.32Z" transform="translate(-565.773 -104.396)" fill="#f7a491"/>
        <path id="패스_4450" data-name="패스 4450" d="M612.26,110.627c.024-.114.036-.179.036-.179l2.013-.048s-.114.591-.263,1.32c-.048.251-.1.526-.161.783a1.854,1.854,0,0,1-.956-.478,2.488,2.488,0,0,1-.729-1.081A1.67,1.67,0,0,1,612.26,110.627Z" transform="translate(-577.393 -104.584)" fill="#f47458"/>
        <path id="패스_4451" data-name="패스 4451" d="M601.64,34.907a1.789,1.789,0,0,0-1.535.657c-.591.765-1.231,3.131.239,4.427s2.933-.173,3.154-1.721S603.791,34.848,601.64,34.907Z" transform="translate(-565.4 -33.597)" fill="#f7a491"/>
        <path id="패스_4452" data-name="패스 4452" d="M661.851,77.366c-.173.341-.466.538-.657.418s-.191-.478-.024-.818.466-.538.657-.418S662.036,77.026,661.851,77.366Z" transform="translate(-623.323 -72.722)" fill="#f7a491"/>
        <path id="패스_4453" data-name="패스 4453" d="M587.8,30.233s-1.261,2.252-2.175,2.354-1.022,1.3-1.022,1.3.317-2.754,1.219-3.286A3.383,3.383,0,0,1,587.8,30.233Z" transform="translate(-551.442 -29.185)" fill="#184655"/>
        <path id="패스_4454" data-name="패스 4454" d="M591.07,69.525c.066.4-.078.765-.329.818s-.526-.227-.591-.627.078-.765.329-.818S590.986,69.131,591.07,69.525Z" transform="translate(-556.645 -65.556)" fill="#f7a491"/>
        <g id="그룹_1676" data-name="그룹 1676" transform="translate(0 28.864)">
          <path id="패스_4455" data-name="패스 4455" d="M136.4,519.271l1.195.478,17.469-23.485h0c-.657-.263-.992.179-1.344.657Z" transform="translate(-130.019 -496.185)" fill="#355389"/>
          <path id="패스_4456" data-name="패스 4456" d="M167.5,524.866l1.195.478,17.469-24.1c.251-.329-.418-.544-.418-.544Z" transform="translate(-159.261 -500.43)" fill="#86b1f2"/>
          <path id="패스_4457" data-name="패스 4457" d="M39.422,598.013l-1.774-.705,2.187-2.915c1.81-2.414,5.962-3.31,9.272-1.99l2.993,1.183L39.034,611l-7.205-2.868L29.6,606.556Z" transform="translate(-29.6 -586.081)" fill="#f47458"/>
          <path id="패스_4458" data-name="패스 4458" d="M87.159,617.863l-13.054,17.4L66.9,632.393l.173-.227h0c5.018.341,16.591-11.548,19.447-14.565Z" transform="translate(-64.672 -610.346)" fill="#b75742"/>
          <path id="패스_4459" data-name="패스 4459" d="M169.363,651.6c1.081-1.195,2.742-2.945,3.937-4a56.18,56.18,0,0,1-3.764,4.493c-1.434-.579-3.3-1.284-5.437-2.324C165.9,650.324,167.649,650.952,169.363,651.6Z" transform="translate(-156.064 -638.554)" fill="#b75742"/>
          <ellipse id="타원_76" data-name="타원 76" cx="1.637" cy="1.637" rx="1.637" ry="1.637" transform="matrix(0.227, -0.974, 0.974, 0.227, 7.219, 26.43)" fill="#13375b"/>
          <ellipse id="타원_77" data-name="타원 77" cx="0.669" cy="0.669" rx="0.669" ry="0.669" transform="translate(8.391 25.719) rotate(-77.743)" fill="#9bc1f9"/>
        </g>
        <path id="패스_4460" data-name="패스 4460" d="M445.846,260.5s-1.559,5.658-1.834,6.918-2.025,5.61-2.091,5.783-1.613,1.739-1.41,2.073a.89.89,0,0,0,.627.364c.161-.024.263.1.478.179s.627.024.795-.568a4.808,4.808,0,0,1,.795-1.583c.556-.854,2.88-3.644,3.381-5.67s1.649-6.506,1.649-6.506Z" transform="translate(-415.944 -245.717)" fill="#f79c8d"/>
        <path id="패스_4461" data-name="패스 4461" d="M460.6,501.58c.227.036.556-.078.7-.591.048-.149.078-.263.114-.364a.194.194,0,0,0-.078-.024Z" transform="translate(-434.85 -471.472)" fill="#86b1f2"/>
        <path id="패스_4462" data-name="패스 4462" d="M520,172.8s.137-4.654.777-5.95,2.2-2.049,2.8-.908c.615,1.183-.454,6.918-.454,6.918Z" transform="translate(-490.702 -156.276)" fill="#fae0b2"/>
      </g>
      <g id="그룹_1678" data-name="그룹 1678" transform="translate(44.244 26.52)">
        <path id="패스_4463" data-name="패스 4463" d="M929.857,465.6l-2.557.185.783,3.035,2.629-.466Z" transform="translate(-917.912 -465.084)" fill="#50bfa5"/>
        <path id="패스_4464" data-name="패스 4464" d="M814.368,492.7s-.568,7.056-.568,7.659,2.438.783,2.438.783l.741-7.235Z" transform="translate(-811.193 -490.565)" fill="#466eb6"/>
        <path id="패스_4465" data-name="패스 4465" d="M812.729,457.689a3.238,3.238,0,0,0-2.88-.066c-1.3.777-1.649,5.323-1.649,5.323l4.164.5Z" transform="translate(-805.928 -457.274)" fill="#86b1f2"/>
        <path id="패스_4466" data-name="패스 4466" d="M772.231,886.987a4.88,4.88,0,0,1-.478,1.171c-.215.215-.92,1.046-.753,1.458s4.493,1,4.654.842-.753-.854-1.261-1.285a1.432,1.432,0,0,1-.669-1.583c.215-.639.215-.568.215-.639A14.884,14.884,0,0,0,772.231,886.987Z" transform="translate(-770.926 -861.241)" fill="#f7a491"/>
        <path id="패스_4467" data-name="패스 4467" d="M774.9,908.942c.191-.149-.412-.795-1.284-1.308a5.634,5.634,0,0,1-1.273-.125,2.721,2.721,0,0,1-1.3-.908c-.012.024-1.057,1.022-.854,1.511C770.355,908.518,774.508,909.235,774.9,908.942Z" transform="translate(-770.162 -879.737)" fill="#355389"/>
        <path id="패스_4468" data-name="패스 4468" d="M902.8,889.115a3.655,3.655,0,0,1-.078,1.243c-.161.251-.729,1.261-.412,1.583.287.287,4.242.1,4.367-.09s-.556-.783-1.147-1.081-1.069-.729-1-1.4.09-.6.066-.669A17.269,17.269,0,0,0,902.8,889.115Z" transform="translate(-894.329 -862.902)" fill="#f7a491"/>
        <path id="패스_4469" data-name="패스 4469" d="M906.052,917.009c.2-.137-.7-.956-1.673-1.255a5.673,5.673,0,0,1-1.272.149,2.674,2.674,0,0,1-1.47-.6c-.012.024-.908,1.332-.514,1.661A17.463,17.463,0,0,0,906.052,917.009Z" transform="translate(-893.205 -887.917)" fill="#355389"/>
        <path id="패스_4470" data-name="패스 4470" d="M791.852,659.121l-2.563,7.408-2.933,6.847-2.455-.615s.89-4.756,1.721-6.249c.627-1.129,1.069-7.611,1.069-7.611Z" transform="translate(-783.079 -646.835)" fill="#f47458"/>
        <path id="패스_4471" data-name="패스 4471" d="M892.263,636.781l.89,13.006h2.091s.908-13.633.58-14.93-3.824-1-3.824-1Z" transform="translate(-884.721 -623.259)" fill="#b75742"/>
        <path id="패스_4472" data-name="패스 4472" d="M829.951,457.712a22.648,22.648,0,0,0-3.107-.753,7.8,7.8,0,0,0-1.559.639s.066,4.678-.125,6.01-1.559,5.562-1.559,5.562a8.953,8.953,0,0,0,5.168.753c3.232-.364,3.017-1.147,3.017-1.147s-.3-4.69-.615-6.745A22.76,22.76,0,0,0,829.951,457.712Z" transform="translate(-820.408 -456.957)" fill="#96d9c9"/>
        <path id="패스_4473" data-name="패스 4473" d="M839.167,458.27s.6-.09,1.129,1.876c.591,2.228-.048,4.541-1.022,5.132s-1.374.478-1.374.478l.149,1.374s2.88-.651,3.28-3.107c.651-4.039-1.255-6.124-1.255-6.124a4.385,4.385,0,0,0-.466.1A2.408,2.408,0,0,0,839.167,458.27Z" transform="translate(-833.853 -457.844)" fill="#466eb6"/>
        <path id="패스_4474" data-name="패스 4474" d="M834.1,542v2.88a17.36,17.36,0,0,0,1.284,5.066,13.012,13.012,0,0,0,1.864,2.539c.191.078.627.353.854.125s.4-.125.681-.239-.036-.526-.43-.908-.478-.478-.412-.544.388.3.544.239-.1-.639-.538-.842-1.135-.6-1.195-.818-.066-.161-.066-.215-.49-3.435-.49-4.1-.191-2.808-.191-2.808Z" transform="translate(-830.28 -536.919)" fill="#f7a491"/>
        <path id="패스_4475" data-name="패스 4475" d="M825.337,465.7a1.538,1.538,0,0,0-1.183,1.105,15.679,15.679,0,0,0-.765,4.278,21.969,21.969,0,0,0,2.718.239,16.076,16.076,0,0,0,.3-4.3C826.138,465.9,825.773,465.641,825.337,465.7Z" transform="translate(-820.197 -465.167)" fill="#50bfa5"/>
        <path id="패스_4476" data-name="패스 4476" d="M922.9,467.5l1.888,6.781h0c-.078-.89-.173-1.733-.263-2.342a23.288,23.288,0,0,0-1.219-4.367A1.982,1.982,0,0,0,922.9,467.5Z" transform="translate(-913.775 -466.87)" fill="#466eb6"/>
      </g>
      <path id="패스_4477" data-name="패스 4477" d="M832.841,349a1.434,1.434,0,0,1,1.685.669c.657,1.034.3.944.627,1.458s1.159.412,1.159,1.219-.376.932-.376.932a1.373,1.373,0,0,1-.036,1.273,2.378,2.378,0,0,1-2.091,1.105,3.57,3.57,0,0,1-2.354.341c-1.183-.3-.777-.3-1.255-.3s-1.786-.657-1.571-1.625a1.3,1.3,0,0,1-.024-1.721,7.053,7.053,0,0,0,1.368-2.593C830.415,348.718,832.3,348.748,832.841,349Z" transform="translate(-780.553 -328.791)" fill="#184655"/>
      <path id="패스_4478" data-name="패스 4478" d="M886.958,434.4a6.281,6.281,0,0,0,.09,1.559.52.52,0,0,1,.125.693c-.191.341-1.046.125-1.446-.066a1.707,1.707,0,0,1-.627-.538l.2-2.252Z" transform="translate(-833.989 -408.663)" fill="#f7a491"/>
      <path id="패스_4479" data-name="패스 4479" d="M888.929,434.807a2.005,2.005,0,0,1-1.129-.89l.024-.317,1.661.6s-.012.353,0,.717A1.649,1.649,0,0,1,888.929,434.807Z" transform="translate(-836.528 -408.475)" fill="#b75742"/>
      <path id="패스_4480" data-name="패스 4480" d="M870.9,395.9s-.048-.842-.556-.669-.125,1.422.3,1.386C871.079,396.557,870.9,395.9,870.9,395.9Z" transform="translate(-819.884 -372.376)" fill="#f7a491"/>
      <path id="패스_4481" data-name="패스 4481" d="M878.047,360.657a1.509,1.509,0,0,1,1.219.6,4.153,4.153,0,0,1,.179,3.65,1.4,1.4,0,0,1-1.9.807,2.124,2.124,0,0,1-1.422-1.559C875.759,363.011,876.022,360.418,878.047,360.657Z" transform="translate(-825.419 -339.875)" fill="#f7a491"/>
    </g>
    <g id="person_04" transform="translate(939.428 482.606)">
      <path id="패스_4482" data-name="패스 4482" d="M141.337,282.073c0-.131,1.123-7.874,1.267-8.1l.86-4.391,2.73-.287s-1.1,5.688-1.207,5.974c-.066.173-2.515,8.95-2.515,8.95s.03,1.141-.37,1.141a12.833,12.833,0,0,1-1.828-.418l-.173-.723Z" transform="translate(-132.62 -255.7)" fill="#f48c7f"/>
      <path id="패스_4483" data-name="패스 4483" d="M17.277,560.016H27.3a2.383,2.383,0,0,0,2.384-2.384v-5.849A2.383,2.383,0,0,0,27.3,549.4H17.283a2.383,2.383,0,0,0-2.384,2.384v5.849A2.374,2.374,0,0,0,17.277,560.016Z" transform="translate(-14.9 -519.065)" fill="#f47458"/>
      <g id="그룹_1679" data-name="그룹 1679" transform="translate(5.831 28.524)">
        <path id="패스_4484" data-name="패스 4484" d="M117.2,521.263v-.526a.918.918,0,0,0-.914-.914h-2.151a.918.918,0,0,0-.914.914v.526H112.5v-.526a1.639,1.639,0,0,1,1.637-1.637h2.151a1.639,1.639,0,0,1,1.637,1.637v.526Z" transform="translate(-112.5 -519.1)" fill="#184655"/>
      </g>
      <path id="패스_4485" data-name="패스 4485" d="M61.577,560.016H71.6a2.383,2.383,0,0,0,2.384-2.384v-5.849A2.383,2.383,0,0,0,71.6,549.4H61.583a2.383,2.383,0,0,0-2.384,2.384v5.849A2.374,2.374,0,0,0,61.577,560.016Z" transform="translate(-56.553 -519.065)" fill="#b75742"/>
      <path id="패스_4486" data-name="패스 4486" d="M215.4,143.369c.257-3.2.6-6.058.717-6.416.7-2.2,10.294-2.348,11.3,1.3a9.243,9.243,0,0,1-.185,4.821l-5.628-2.258Z" transform="translate(-203.421 -129.786)" fill="#184655"/>
      <path id="패스_4487" data-name="패스 4487" d="M215.29,156.231c.394,1.428-1.051,15.8-1.679,16.418s-8.376.119-9.505-1.01.388-17.158,1.01-17.774S214.286,152.581,215.29,156.231Z" transform="translate(-192.42 -146.705)" fill="#3c8f7c"/>
      <g id="그룹_1680" data-name="그룹 1680" transform="translate(16.621 5.947)">
        <path id="패스_4488" data-name="패스 4488" d="M293.1,153.143l.436.078c.257-1.5.466-2.76.639-3.818a38.9,38.9,0,0,0,.753-5.544A2.017,2.017,0,0,1,296.195,142l1.488-.6c-.221-.072-.454-.137-.693-.2l-.962.388a2.472,2.472,0,0,0-1.541,2.3c0,.615-.388,3.19-.759,5.467C293.411,151.344,293.106,153.107,293.1,153.143Z" transform="translate(-293.1 -141.2)" fill="#13375b"/>
      </g>
      <g id="그룹_1681" data-name="그룹 1681" transform="translate(12.194 5.165)">
        <path id="패스_4489" data-name="패스 4489" d="M219.442,140.545c1.535-8.985,1.38-9.29,1.392-9.362a2.017,2.017,0,0,1,1.267-1.858l2-.813-.167-.412-2.007.818a2.472,2.472,0,0,0-1.541,2.3c0,1.153-1.368,9.177-1.386,9.254Z" transform="translate(-219 -128.1)" fill="#13375b"/>
      </g>
      <path id="패스_4490" data-name="패스 4490" d="M234.645,397.176c-.018.155-.042.3-.06.454-2.175.221-7.9.627-9.386-.472l.263-.358C226.837,397.81,232.7,397.38,234.645,397.176Z" transform="translate(-212.636 -375.582)" fill="#184655"/>
      <path id="패스_4491" data-name="패스 4491" d="M415.823,824.083s.579.568.591.771a9.379,9.379,0,0,1-.185,2.641c-.233.209-.926.352-.7.591a6.791,6.791,0,0,0,2.318.09c.251-.012.562-2.019.663-2.312.143-.43.663-1.362.532-1.661a4.122,4.122,0,0,0-.968-.759,3.886,3.886,0,0,1-.884-.944Z" transform="translate(-391.549 -775.849)" fill="#f7a491"/>
      <path id="패스_4492" data-name="패스 4492" d="M257.81,871.736s.448,1.266.508,1.446a8.365,8.365,0,0,1,.2,1.039c0,.795-3.561-.675-2.76-1.027a.848.848,0,0,0,.323-.556,1.867,1.867,0,0,0-.3-.938Z" transform="translate(-241.255 -822.11)" fill="#f7a491"/>
      <g id="그룹_1682" data-name="그룹 1682" transform="translate(9.842 21.791)">
        <path id="패스_4493" data-name="패스 4493" d="M181.433,406.4l-1.29,3.31s-.842,7.9-.352,12.624c.2,1.977,4.642,12.558,4.642,12.558l2.2-.311-2.951-12.528,1.087-4.791,1.535-9.469Z" transform="translate(-179.637 -406.4)" fill="#184655"/>
        <path id="패스_4494" data-name="패스 4494" d="M220.947,409.3l1.105,3.686,1.685,11.118,5.688,10.4s-.854,1.3-1.774,1.506L219.573,425.5,215.2,412.335l.155-2.921Z" transform="translate(-213.075 -409.127)" fill="#355389"/>
      </g>
      <path id="패스_4495" data-name="패스 4495" d="M189.1,192.993l3.137.323s.143-2.587.143-3.818c0-1.494-.275-3.37-.454-3.316a2.518,2.518,0,0,0-1.446.884C189.088,189,189.1,192.993,189.1,192.993Z" transform="translate(-178.693 -177.546)" fill="#fae0b2"/>
      <path id="패스_4496" data-name="패스 4496" d="M410.7,842.415a3.21,3.21,0,0,1,1.04-.538c.52-.179,1.739-3.877,1.739-3.877s1.057.311,1.135.472a10.7,10.7,0,0,1-.651,1.942c-.137.729-.49,2.384-.49,2.384H411C410.809,842.8,410.474,842.678,410.7,842.415Z" transform="translate(-386.983 -790.423)" fill="#184655"/>
      <path id="패스_4497" data-name="패스 4497" d="M215.253,897.9l-.4-1.3a3.576,3.576,0,0,1-1.29.311,12.5,12.5,0,0,1-1.267-.3c-1.709.568-3.107.836-2.856,1.3h5.813Z" transform="translate(-197.79 -845.522)" fill="#184655"/>
      <path id="패스_4498" data-name="패스 4498" d="M195.066,181.978a7.578,7.578,0,0,1,2.1.55,28.175,28.175,0,0,1,2.019,2.031s-3.172,9.009-3.053,10.616.472,3.979.472,3.979-6.166.388-8.5-.526c0,0,.735-3.632.735-4.588s.412-10.491.711-10.987.89-.783,2.013-1.028A16.439,16.439,0,0,1,195.066,181.978Z" transform="translate(-177.752 -173.522)" fill="#f7cc7f"/>
      <path id="패스_4499" data-name="패스 4499" d="M259.126,137.651l.412,2.575s-1.5,3.274-2.4,3c-.753-.233-.287-3.041-.287-3.041a7.516,7.516,0,0,0,.287-2.264C257.011,137.161,259.126,137.651,259.126,137.651Z" transform="translate(-242.266 -131.77)" fill="#f7a491"/>
      <path id="패스_4500" data-name="패스 4500" d="M263.048,137.9c-.125-.753,1.989-.263,1.989-.263l.036.221a1.181,1.181,0,0,1-.227.37,2.794,2.794,0,0,1-1.846.824A4.291,4.291,0,0,0,263.048,137.9Z" transform="translate(-248.178 -131.753)" fill="#f47458"/>
      <g id="그룹_1683" data-name="그룹 1683" transform="translate(13.599 0.908)">
        <path id="패스_4501" data-name="패스 4501" d="M246.131,63.833c.06-.024.478,3.041-.317,3.883s-2.342,1.117-2.9.454c-.615-.735-.586-4.021.651-4.887S246.131,63.833,246.131,63.833Z" transform="translate(-242.524 -62.635)" fill="#f7a491"/>
        <path id="패스_4502" data-name="패스 4502" d="M258.96,58.146a2.494,2.494,0,0,1-.675,3.238,1.9,1.9,0,0,0-.854,1.422l-.143-.388a2.155,2.155,0,0,1-.108-.932,1.622,1.622,0,0,1,.143-.562c.209-.442-.448-.735-.633-1.105-.143-.287-.149-.932-.376-1.4l-.269-.358a1.741,1.741,0,0,0-1.225-.341C254.217,57.848,257.407,55.422,258.96,58.146Z" transform="translate(-254.015 -56.847)" fill="#f7cc7f"/>
        <path id="패스_4503" data-name="패스 4503" d="M287.9,105.168c-.006.376.167.681.382.681s.4-.3.406-.669-.167-.681-.382-.681S287.9,104.791,287.9,105.168Z" transform="translate(-285.187 -101.652)" fill="#f7a491"/>
      </g>
      <path id="패스_4504" data-name="패스 4504" d="M239.055,42.563a12.172,12.172,0,0,1,1.117-.717,1.642,1.642,0,0,1,1.81.173c.7.568,1.541,1.41,1.44,2.139a11.331,11.331,0,0,0-.813,2.1v.968S238.75,45.3,237,42.987A3.364,3.364,0,0,0,239.055,42.563Z" transform="translate(-223.731 -41.652)" fill="#3c8f7c"/>
      <path id="패스_4505" data-name="패스 4505" d="M262.455,60.4a11.833,11.833,0,0,0,4.045,3.059c-.018.054-.036.108-.048.155a13.546,13.546,0,0,1-1.7-.95,10.236,10.236,0,0,1-2.455-2.2C262.348,60.442,262.4,60.424,262.455,60.4Z" transform="translate(-247.519 -59.28)" fill="#50bfa5"/>
      <g id="그룹_1686" data-name="그룹 1686" transform="translate(14.542 28.692)">
        <g id="그룹_1685" data-name="그룹 1685" transform="translate(6.96)">
          <g id="그룹_1684" data-name="그룹 1684">
            <path id="패스_4506" data-name="패스 4506" d="M374.8,524.547h.532v-1.96a.1.1,0,0,1,.1-.108h2.892a.1.1,0,0,1,.1.108v1.96h.532v-1.96a.657.657,0,0,0-.627-.687h-2.892a.661.661,0,0,0-.627.687Z" transform="translate(-374.8 -521.9)" fill="#184655"/>
          </g>
        </g>
        <path id="패스_4507" data-name="패스 4507" d="M259.833,557.473H274.56a1.434,1.434,0,0,0,1.434-1.434v-7.205a1.434,1.434,0,0,0-1.434-1.434H259.833a1.434,1.434,0,0,0-1.434,1.434v7.205A1.43,1.43,0,0,0,259.833,557.473Z" transform="translate(-258.393 -545.877)" fill="#f7cc7f"/>
        <path id="패스_4508" data-name="패스 4508" d="M259.25,547.4h1.565a.9.9,0,0,0-.95.836v8.4a.9.9,0,0,0,.95.836H259.25a.9.9,0,0,1-.95-.836v-8.4A.9.9,0,0,1,259.25,547.4Z" transform="translate(-258.3 -545.877)" fill="#fae0b2"/>
      </g>
      <path id="패스_4509" data-name="패스 4509" d="M352.077,263.145a11.4,11.4,0,0,0-.006-1.972s-.191-5.461-.215-5.753l-2.455-5.042,2.121-1.978s2.527,5.556,2.6,5.873-.5,7.737-.532,8.394a15.079,15.079,0,0,1,.579,1.494,2.846,2.846,0,0,1-.09,1.159c0,.024-.55.341-.693.3a2.114,2.114,0,0,0-.783-.137c-.609.137-.406-.741-.508-.735s-.442,0-.5,0A1.677,1.677,0,0,1,352.077,263.145Z" transform="translate(-329.416 -236.048)" fill="#f8a492"/>
      <path id="패스_4510" data-name="패스 4510" d="M330.608,196.9l-2.778,2.151a10.02,10.02,0,0,1-1.846-2.455c-.621-1.308-.185-5.174.478-4.995C327.949,192,330.608,196.9,330.608,196.9Z" transform="translate(-307.117 -182.641)" fill="#fae0b2"/>
      <path id="패스_4511" data-name="패스 4511" d="M196.342,162.363v.866l.066-.173a13.3,13.3,0,0,0-2.5,5.9l-.078.394c-.209,1.255-.263,1.989-.263,1.989a21.984,21.984,0,0,0,.042,4,.247.247,0,0,0,.472.078,10.205,10.205,0,0,0,.615-2.455c.108-.693.191-1.894.191-1.888a28.8,28.8,0,0,1,.5-3.352,19.429,19.429,0,0,1,1.41-4.319c.006-.006.066-.078.066-.078v-.962a.26.26,0,1,0-.52,0Z" transform="translate(-182.822 -154.904)" fill="#184655"/>
      <path id="패스_4512" data-name="패스 4512" d="M284.375,165.647l-.024.711v.143a15.974,15.974,0,0,0-1.709,10.067c.3,1.356.962,3.131,2.222,3.716.125.078.359-.03.436-.155s-.233-.484-.233-.484c-.651-1.213-.944-5.138-.9-6.261a51.769,51.769,0,0,1,.717-6.715l.012-1a.261.261,0,0,0-.251-.275A.265.265,0,0,0,284.375,165.647Z" transform="translate(-266.433 -158.003)" fill="#184655"/>
      <path id="패스_4513" data-name="패스 4513" d="M143.113,520.828s.532-.663.209-.9-1.655.066-1.75.161-.472.43-.472.43Z" transform="translate(-133.56 -491.276)" fill="#f48c7f"/>
    </g>
    <g id="person_05" transform="translate(1050.743 439.731)">
      <g id="그룹_1688" data-name="그룹 1688" transform="translate(0 28.203)">
        <rect id="사각형_1990" data-name="사각형 1990" width="1.619" height="1.535" transform="translate(7.952 22.667)" fill="#184655"/>
        <rect id="사각형_1991" data-name="사각형 1991" width="1.619" height="1.535" transform="translate(1.458 22.667)" fill="#184655"/>
        <rect id="사각형_1992" data-name="사각형 1992" width="1.302" height="0.98" transform="translate(8.8 22.01)" fill="#13375b"/>
        <g id="그룹_1687" data-name="그룹 1687" transform="translate(3.28 0.125)">
          <path id="패스_4514" data-name="패스 4514" d="M68.272,526.748a.2.2,0,0,0-.191-.209h-3.3a.2.2,0,0,0-.191.209v5.837H64v-5.837a.816.816,0,0,1,.777-.848h3.3a.816.816,0,0,1,.777.848v5.837h-.585Z" transform="translate(-64 -525.9)" fill="#355389"/>
        </g>
        <path id="패스_4515" data-name="패스 4515" d="M10.564,650.259l7.91-.442a.784.784,0,0,0,.765-.807l.753-14.07c.024-.986-1.093-1.141-1.517-1.141H9.865a.784.784,0,0,0-.765.807v14.4A1.388,1.388,0,0,0,10.564,650.259Z" transform="translate(-9.1 -627.228)" fill="#3c8f7c"/>
        <path id="패스_4516" data-name="패스 4516" d="M23.09,657.311h7.552a1.289,1.289,0,0,0,1.29-1.29V642.59a1.289,1.289,0,0,0-1.29-1.29H23.09a1.289,1.289,0,0,0-1.29,1.29v13.43A1.285,1.285,0,0,0,23.09,657.311Z" transform="translate(-21.041 -634.28)" fill="#50bfa5"/>
        <path id="패스_4517" data-name="패스 4517" d="M53.2,734.318h6.291v-8.161a2.956,2.956,0,0,0-2.957-2.957h-.376a2.956,2.956,0,0,0-2.957,2.957Z" transform="translate(-50.565 -711.287)" fill="#3c8f7c"/>
        <path id="패스_4518" data-name="패스 4518" d="M68.639,616.084c-.795,0-1.47.353-1.5.777H66.5c.024-.7.974-1.261,2.139-1.261s2.115.562,2.139,1.261h-.639C70.109,616.436,69.433,616.084,68.639,616.084Z" transform="translate(-63.071 -610.116)" fill="#13375b"/>
        <path id="패스_4519" data-name="패스 4519" d="M76.382,524.612H79a.385.385,0,0,0,.382-.382v-.048A.385.385,0,0,0,79,523.8H76.382a.385.385,0,0,0-.382.382v.048A.385.385,0,0,0,76.382,524.612Z" transform="translate(-72.003 -523.8)" fill="#13375b"/>
      </g>
      <g id="그룹_1692" data-name="그룹 1692" transform="translate(4.229 0)">
        <path id="패스_4520" data-name="패스 4520" d="M288.041,66.621l1.428-3.459c.663-1.6,2.814-3.005,4.391-2.276l3.883-8.185a1.572,1.572,0,0,1,2.049-.854h0a1.566,1.566,0,0,1,.848,2.049L296.8,61.985c3.591,1.314.257,6.058-.406,7.665a7.626,7.626,0,0,1,.526,4.487c-1.553,5.927-5.251,6.339-8.036,5.192l-1.691-.7c-2.784-1.147-2.712-6.6-1.255-9.643A13.351,13.351,0,0,1,288.041,66.621Z" transform="translate(-272.697 -51.728)" fill="#184655"/>
        <path id="패스_4521" data-name="패스 4521" d="M160.6,116.627a3.937,3.937,0,0,1,.137-2.927,2.67,2.67,0,0,1,2.091-1.428c2.509-.3,2.73,1.942,5.108,2.921,1.016.418,2.061.3,2.969.842,1.643.98,1.04,2.163-.054,4.72-2.665,6.255-7.253,2.635-8.059,1.4A37.887,37.887,0,0,1,160.6,116.627Z" transform="translate(-155.569 -108.629)" fill="#13375b"/>
        <g id="그룹_1689" data-name="그룹 1689" transform="translate(5.713 8.74)">
          <path id="패스_4522" data-name="패스 4522" d="M176.265,236.767c1.344.418,4.194,2.521,4.379,2.473l3.322-2.641,2.043,1.792s-4.558,3.376-4.815,3.5c-.191.09-3.806-2.975-5.694-3.9C175.518,237.371,175.96,237.3,176.265,236.767Z" transform="translate(-175.5 -234.295)" fill="#f48c7f"/>
          <path id="패스_4523" data-name="패스 4523" d="M276.7,201.8l2.079,2.694a31.179,31.179,0,0,0,3-2.593,9.546,9.546,0,0,0,1.894-3.549,3.5,3.5,0,0,0-2.061-.287C279.323,198.579,276.7,201.8,276.7,201.8Z" transform="translate(-270.654 -198.018)" fill="#b75742"/>
        </g>
        <g id="그룹_1690" data-name="그룹 1690" transform="translate(0 4.298)">
          <path id="패스_4524" data-name="패스 4524" d="M91.037,239.79l.257-1.338a2.214,2.214,0,0,0-1.237.932c-.484.747-1.29,3.28-1.428,3.358a22.462,22.462,0,0,1-1.93-2.647,8.928,8.928,0,0,1-.657-1.386,1.343,1.343,0,0,0-1.207-.484c-.275.048.376,1.219.376,1.219a37.442,37.442,0,0,1,2.2,4.445c.55,1.571,2.27,2.324,2.545,2.1S91.037,239.79,91.037,239.79Z" transform="translate(-84.475 -231.37)" fill="#f48c7f"/>
          <path id="패스_4525" data-name="패스 4525" d="M151.6,247.559l-2.1-1.2s.956-4.027,2.659-4.158Z" transform="translate(-145.341 -235.119)" fill="#f7cc7f"/>
          <path id="패스_4526" data-name="패스 4526" d="M87.365,241.55s-.072-.3-.257-.364a1.373,1.373,0,0,0-.532,0c-.018.006-.376-.185-.376-.185l.293.55s.58.681.771.424S87.365,241.55,87.365,241.55Z" transform="translate(-85.822 -233.99)" fill="#f7a491"/>
          <path id="패스_4527" data-name="패스 4527" d="M82.016,241.4a6.825,6.825,0,0,0-.155,1.285c.054.221.185.1.209.054a4.218,4.218,0,0,0,.173-.878Z" transform="translate(-81.734 -234.367)" fill="#f48c7f"/>
          <path id="패스_4528" data-name="패스 4528" d="M86.024,251.123a2.5,2.5,0,0,1-.2.735c-.066.048-.149.018-.179-.114a6.293,6.293,0,0,1,.131-.944Z" transform="translate(-85.294 -243.205)" fill="#f48c7f"/>
          <path id="패스_4529" data-name="패스 4529" d="M81.218,237.378l.347-.167L80.1,234.2h0a.388.388,0,0,0-.179.514Z" transform="translate(-79.879 -227.597)" fill="#184655"/>
          <path id="패스_4530" data-name="패스 4530" d="M307.547,847.2s.179,1.81.639,2.145a2.384,2.384,0,0,1,.765,2.228.763.763,0,0,1-.5.394,1.343,1.343,0,0,1-1.607-.753,3.855,3.855,0,0,1-.317-1.38,5.054,5.054,0,0,0-.526-2.222Z" transform="translate(-292.491 -803.974)" fill="#f7a491"/>
          <path id="패스_4531" data-name="패스 4531" d="M144.484,859.6a15.7,15.7,0,0,0-.03,2.426c.066.317.412.974.251,1.273a.825.825,0,0,1-.347.376l-4.164.066c-.227.006-.078-.143.108-.275a8.293,8.293,0,0,1,1.5-.824c.06-.03.287-.173.37-.227a2.883,2.883,0,0,0,.6-.526,5.319,5.319,0,0,0,.323-1.942Z" transform="translate(-136.483 -815.633)" fill="#f7a491"/>
          <path id="패스_4532" data-name="패스 4532" d="M154.719,445.46a17.752,17.752,0,0,0-.179,4.917c.346,1.948,2,20,2,20l1.834.1s.382-7.54.317-8.585a16.513,16.513,0,0,0-.615-2.8l.185-6.088-2.318-8Z" transform="translate(-149.968 -425.803)" fill="#b75742"/>
          <path id="패스_4533" data-name="패스 4533" d="M168.462,431.575a13.657,13.657,0,0,1,1.792,3.967c.346,1.8-.251,7.319.412,9.678.358,1.273,1.715,3.244,1.924,4.893s1.016,5.962,1.016,5.962l-1.834.364L167.5,445.663l-3.346-9.744L163.3,430.9Z" transform="translate(-158.316 -412.545)" fill="#f47458"/>
          <path id="패스_4534" data-name="패스 4534" d="M162.521,235.4a3.587,3.587,0,0,1,1.733.884c1.583,1.547-.932,7.528-1.069,8.573s1.129,3.5,1.129,3.5-4.732.872-6.016.024c0,0-.149-8.412-.012-9.159a14.627,14.627,0,0,1,1.954-3.358A7.5,7.5,0,0,1,162.521,235.4Z" transform="translate(-153.546 -228.725)" fill="#fae0b2"/>
          <path id="패스_4535" data-name="패스 4535" d="M99.456,254.912a.662.662,0,0,0-.9-.394,2.881,2.881,0,0,0-1.494,1.3c-.55,1.147-2.479,5.09-3.077,5.24s-3.029-4.092-3.029-4.092a2.728,2.728,0,0,0-.137-1.171c-.209-.424-.824-.872-.92-.723s.347.526.347.6-.185.125-.436-.024a1.14,1.14,0,0,1-.388-.454,1.5,1.5,0,0,0,.024,1.428c.436.675.621.95.621.95s2.82,6.267,3.853,6.339C94.879,263.976,100.418,257.834,99.456,254.912Z" transform="translate(-88.689 -246.648)" fill="#f7a491"/>
          <path id="패스_4536" data-name="패스 4536" d="M192.509,191.848s.012.054.03.149a14.353,14.353,0,0,0,.633,2.4c.269.508-.92,2.121-2.061,1.924-.341-.06.287-1.482.257-1.637-.06-.287-.137-.681-.215-1.087-.048-.227-.09-.46-.131-.675-.119-.615-.221-1.123-.221-1.123Z" transform="translate(-184.173 -187.73)" fill="#f7a491"/>
          <path id="패스_4537" data-name="패스 4537" d="M192.445,192.191c-.018-.1-.03-.149-.03-.149L190.7,192s.1.508.221,1.123c.042.215.09.448.131.675a1.621,1.621,0,0,0,.818-.406,2.122,2.122,0,0,0,.621-.92C192.474,192.352,192.456,192.263,192.445,192.191Z" transform="translate(-184.079 -187.918)" fill="#f47458"/>
          <path id="패스_4538" data-name="패스 4538" d="M174.582,124.489a2.025,2.025,0,0,1,1.207.747c.508.651,1.051,2.671-.2,3.77s-2.5-.143-2.682-1.464S172.754,124.447,174.582,124.489Z" transform="translate(-167.274 -124.439)" fill="#f7a491"/>
          <path id="패스_4539" data-name="패스 4539" d="M165.6,156.859c.149.293.4.454.562.358s.167-.4.018-.693-.4-.454-.562-.358S165.455,156.567,165.6,156.859Z" transform="translate(-160.382 -154.199)" fill="#f7a491"/>
          <path id="패스_4540" data-name="패스 4540" d="M198.6,123.693s1.075,1.918,1.852,2.007.872,1.111.872,1.111-.275-2.348-1.04-2.8A2.857,2.857,0,0,0,198.6,123.693Z" transform="translate(-191.507 -123.673)" fill="#13375b"/>
          <path id="패스_4541" data-name="패스 4541" d="M225.132,156.763c-.066.341.066.651.281.7s.448-.2.508-.538-.066-.651-.281-.7S225.192,156.422,225.132,156.763Z" transform="translate(-216.439 -154.276)" fill="#f7a491"/>
          <path id="패스_4542" data-name="패스 4542" d="M318,895.936a2.064,2.064,0,0,0,2.013-.836,1.893,1.893,0,0,1,.221,1.518c-.167.358-.6.388-.974.4a1.055,1.055,0,0,1-.992-.472A3.263,3.263,0,0,1,318,895.936Z" transform="translate(-303.774 -849.012)" fill="#3c8f7c"/>
          <path id="패스_4543" data-name="패스 4543" d="M137.661,905.2a3.771,3.771,0,0,0,2.372-.1,1.881,1.881,0,0,1,.191.992c-.1.293-.245.359-.37.365-1,.024-3.686.06-4.451.072a.123.123,0,0,1-.1-.2A19.289,19.289,0,0,1,137.661,905.2Z" transform="translate(-131.967 -858.415)" fill="#3c8f7c"/>
        </g>
        <path id="패스_4544" data-name="패스 4544" d="M195.179,254.514l-2.479-1.625s1.034-2.915,2.169-3.949,1.673-.783,1.912-.568c.657.591.544,2.037-.209,3.824A6.517,6.517,0,0,1,195.179,254.514Z" transform="translate(-185.96 -236.443)" fill="#f7cc7f"/>
        <path id="패스_4545" data-name="패스 4545" d="M261.7,865l.1,1.709c.036.215.173.753.173.95,0,.741-3.292-.627-2.557-.956.066-.03.418-.257.436-.508.036-.388.119-1.171.119-1.171Z" transform="translate(-248.59 -816.412)" fill="#f7a491"/>
        <path id="패스_4546" data-name="패스 4546" d="M213.593,893.4a11.033,11.033,0,0,0,1.171.281c.394.054.962-.215,1.237-.084.311.143.209,1.822.209,1.822s-4.182.107-5.568.036C210.152,895.431,212.01,893.926,213.593,893.4Z" transform="translate(-202.755 -843.115)" fill="#f47458"/>
        <path id="패스_4547" data-name="패스 4547" d="M383.2,867.8l.1,1.709c.036.215.173.753.173.95,0,.741-3.292-.627-2.557-.956.066-.03.52-.424.544-.675.036-.388.018-1,.018-1Z" transform="translate(-362.831 -819.045)" fill="#f7a491"/>
        <path id="패스_4548" data-name="패스 4548" d="M336.569,895.677a11.032,11.032,0,0,0,1.171.281c.394.054.92-.418,1.2-.293.311.143.388,1.852.388,1.852s-4.552.2-5.616.048C333.23,897.5,334.986,896.2,336.569,895.677Z" transform="translate(-318.472 -845.225)" fill="#f47458"/>
        <path id="패스_4549" data-name="패스 4549" d="M265.519,455.1l-1.392.6L261.2,469.7l.119,10.491,2.348.054s1.093-9.177,1.093-9.888,5.06-12.445,5.06-12.445Z" transform="translate(-250.367 -431.001)" fill="#355389"/>
        <path id="패스_4550" data-name="패스 4550" d="M351.5,460.6s.388,10.616.388,12.433.556,12.032.556,12.032l3.268.107s.167-3.1.424-7.659c.042-.717-.054-2.157,0-2.9.364-5.317,1.093-10.324.747-12.313a3.949,3.949,0,0,0-.364-1.368C354.971,459.344,351.5,460.6,351.5,460.6Z" transform="translate(-335.272 -435.729)" fill="#466eb6"/>
        <path id="패스_4551" data-name="패스 4551" d="M309.3,196.9a7.646,7.646,0,0,1,2.055.538,5.612,5.612,0,0,1,1.016,1.147s-2,9.428-2,11.017c0,1.225.43,4.242.43,4.242s-6.028.382-8.31-.52c0,0,.723-3.585.723-4.529s.86-9.5,1.057-10.1a2.263,2.263,0,0,1,1.607-1.756A16.307,16.307,0,0,1,309.3,196.9Z" transform="translate(-289.2 -188.152)" fill="#f47458"/>
        <path id="패스_4552" data-name="패스 4552" d="M373.532,153.156l.388,2.545s-1.219,2.181-2.1,1.906c-.735-.227-.514-1.96-.514-1.96a7.563,7.563,0,0,0,.281-2.234C371.464,152.672,373.532,153.156,373.532,153.156Z" transform="translate(-353.869 -146.951)" fill="#f7a491"/>
        <path id="패스_4553" data-name="패스 4553" d="M375.742,153.474c-.119-.747,1.948-.257,1.948-.257l.036.221a1.211,1.211,0,0,1-.221.364,2.721,2.721,0,0,1-1.8.813A4.441,4.441,0,0,0,375.742,153.474Z" transform="translate(-358.027 -147.005)" fill="#f47458"/>
        <g id="그룹_1691" data-name="그룹 1691" transform="translate(16.464 0.302)">
          <path id="패스_4554" data-name="패스 4554" d="M358.989,80.353c.06-.024.466,3-.311,3.83s-2.294,1.105-2.838.448c-.6-.723-.574-3.967.639-4.821S358.989,80.353,358.989,80.353Z" transform="translate(-355.456 -78.171)" fill="#f7a491"/>
          <path id="패스_4555" data-name="패스 4555" d="M363.863,56.8a3.4,3.4,0,0,1,1.762,1c.424.048,1,.281,1.6,1.261a2.429,2.429,0,0,1-.663,3.19,2.113,2.113,0,0,0-.759,1.022.114.114,0,0,1-.215,0h0a2.192,2.192,0,0,1-.107-.92,1.763,1.763,0,0,1,.137-.556c.2-.436-.442-.729-.621-1.093-.137-.281-.143-.92-.364-1.386l-.263-.352a1.673,1.673,0,0,0-1.195-.335C362.578,58.767,362.662,56.556,363.863,56.8Z" transform="translate(-362.373 -56.782)" fill="#13375b"/>
          <path id="패스_4556" data-name="패스 4556" d="M400,121.063c-.006.37.161.669.376.675s.394-.293.4-.663-.161-.669-.376-.675S400,120.693,400,121.063Z" transform="translate(-397.336 -116.599)" fill="#f7a491"/>
        </g>
        <path id="패스_4557" data-name="패스 4557" d="M266.38,342.111l-.042.227a.215.215,0,0,1-.245.173l-4.66-.807a.215.215,0,0,1-.173-.245l.042-.227a.215.215,0,0,1,.245-.173l4.66.807A.2.2,0,0,1,266.38,342.111Z" transform="translate(-250.421 -323.771)" fill="#13375b"/>
        <path id="패스_4558" data-name="패스 4558" d="M296.179,218.4c-.544-.018-1.028,3.591-.681,3.943s.412,4.8.412,4.8l-5.156-.125h0c-.1-.066-1.183-.795-1.338-.95a1.248,1.248,0,0,0-1.159.143c-.209.227.4.149.579.233.2.1-.072.37-.072.37s-1.308.191-1.559-.084-.938-.729-1.028-.46c-.048.137.3.562.5.741-.245-.185-.544-.382-.645-.347-.185.06-.108.3-.006.364s1.135.86,1.3.914,2.569.114,2.987.209c0,0,6.8,1.547,7.187,1.452.341-.084.681-2.264.681-3.931S297.888,218.453,296.179,218.4Z" transform="translate(-273.613 -208.441)" fill="#f7a491"/>
        <path id="패스_4559" data-name="패스 4559" d="M433.759,204.7a3.628,3.628,0,0,1,1.936,1.32c.783,1.093,1.458,6.626,1.458,6.626l-3.083.5-.245-2.718L433,209.187Z" transform="translate(-411.903 -195.561)" fill="#f47458"/>
        <path id="패스_4560" data-name="패스 4560" d="M171.964,237.068a.775.775,0,0,0-.615-.209,1.681,1.681,0,0,0-1,.717,3.158,3.158,0,0,0,.323,1c.066.1.215.143.269.1.036-.036,0-.2-.012-.239-.018-.072-.149-.526-.149-.526s.257.46.382.49a.137.137,0,0,0,.179-.108,2.852,2.852,0,0,0-.239-.574s.3.448.454.4.09-.2.066-.257-.233-.364-.233-.364.329.454.394.293c.042-.1-.179-.532-.179-.532Z" transform="translate(-164.937 -225.796)" fill="#f7a491"/>
        <path id="패스_4561" data-name="패스 4561" d="M323.728,196.8l-7.928,7.946v.974l9.075-8.269Z" transform="translate(-301.705 -188.133)" fill="#184655"/>
      </g>
    </g>
  </g>
</svg>
