<?xml version="1.0" encoding="utf-8"?>
<!-- Generator: Adobe Illustrator 23.0.0, SVG Export Plug-In . SVG Version: 6.00 Build 0)  -->
<svg version="1.1" id="Layer_1" xmlns="http://www.w3.org/2000/svg" xmlns:xlink="http://www.w3.org/1999/xlink" x="0px" y="0px"
	 viewBox="0 0 560 960" style="enable-background:new 0 0 560 960;" xml:space="preserve">
<style type="text/css">
	.st0{fill:#F48C7F;}
	.st1{fill:#F47458;}
	.st2{fill:#184655;}
	.st3{fill:#B75742;}
	.st4{fill:#3C8F7C;}
	.st5{fill:#13375B;}
	.st6{fill:#F7A491;}
	.st7{fill:#355389;}
	.st8{fill:#FAE0B2;}
	.st9{fill:#F7CC7F;}
	.st10{fill:#50BFA5;}
	.st11{fill:#F8A492;}
</style>
<g>
	<path class="st0" d="M160.8,483.1c0-2.2,18.8-131.8,21.2-135.5l14.4-73.5l45.7-4.8c0,0-18.4,95.2-20.2,100
		c-1.1,2.9-42.1,149.8-42.1,149.8s0.5,19.1-6.2,19.1s-30.6-7-30.6-7l-2.9-12.1L160.8,483.1z"/>
	<path class="st1" d="M54.7,727.1h167.8c22.1,0,39.9-17.9,39.9-39.9v-97.9c0-22.1-17.9-39.9-39.9-39.9H54.8
		c-22.1,0-39.9,17.9-39.9,39.9v97.9C14.8,709.3,32.7,727.1,54.7,727.1z"/>
	<g>
		<path class="st2" d="M191.2,555.3v-8.8c0-8.4-6.9-15.3-15.3-15.3h-36c-8.4,0-15.3,6.9-15.3,15.3v8.8h-12.1v-8.8
			c0-15.1,12.3-27.4,27.4-27.4h36c15.1,0,27.4,12.3,27.4,27.4v8.8H191.2z"/>
	</g>
	<path class="st3" d="M99,727.1h167.8c22.1,0,39.9-17.9,39.9-39.9v-97.9c0-22.1-17.9-39.9-39.9-39.9H99.1
		c-22.1,0-39.9,17.9-39.9,39.9v97.9C59.1,709.3,77,727.1,99,727.1z"/>
	<path class="st2" d="M215.4,269c4.3-53.5,10.1-101.4,12-107.4c11.7-36.9,172.3-39.3,189.1,21.8c2.5,8.9,8.6,38.5-3.1,80.7
		l-94.2-37.8L215.4,269z"/>
	<path class="st4" d="M397.7,201.1c6.6,23.9-17.6,264.4-28.1,274.8c-10.4,10.4-140.2,2-159.1-16.9s6.5-287.2,16.9-297.5
		C237.7,151.2,380.9,140,397.7,201.1z"/>
	<g>
		<path class="st5" d="M293.1,341.1l7.3,1.3c4.3-25.1,7.8-46.2,10.7-63.9c14.2-88.1,12.5-91.8,12.6-92.8
			c0.1-13.7,8.4-25.9,21.2-31.1l24.9-10.1c-3.7-1.2-7.6-2.3-11.6-3.3l-16.1,6.5c-26.9,11-25.8,38.4-25.8,38.5
			c0,10.3-6.5,53.4-12.7,91.5C298.3,311,293.2,340.5,293.1,341.1z"/>
	</g>
	<g>
		<path class="st5" d="M226.4,336.4c25.7-150.4,23.1-155.5,23.3-156.7c0.1-13.7,8.4-25.9,21.2-31.1l33.5-13.6l-2.8-6.9L268,141.8
			c-26.9,11-25.8,38.4-25.8,38.5c0,19.3-22.9,153.6-23.2,154.9L226.4,336.4z"/>
	</g>
	<path class="st2" d="M383.3,403.1c-0.3,2.6-0.7,5.1-1,7.6c-36.4,3.7-132.2,10.5-157.1-7.9l4.4-6
		C252.6,413.7,350.7,406.5,383.3,403.1z"/>
	<path class="st6" d="M421.2,849c0,0,9.7,9.5,9.9,12.9c0.2,3.5,0.9,40.7-3.1,44.2c-3.9,3.5-15.5,5.9-11.8,9.9
		c2.8,3,24.5,2.3,38.8,1.5c4.2-0.2,9.4-33.8,11.1-38.7c2.4-7.2,11.1-22.8,8.9-27.8c-1.1-2.4-9-8-16.2-12.7
		c-7.6-4.9-14.8-15.8-14.8-15.8L421.2,849z"/>
	<path class="st6" d="M292,872.3c0,0,7.5,21.2,8.5,24.2c0.1,0.2,3.3,13.8,3.3,17.4c0,13.3-59.6-11.3-46.2-17.2
		c1.2-0.5,5-4.8,5.4-9.3c0.6-7-5-15.7-5-15.7L292,872.3z"/>
	<g>
		<path class="st2" d="M209.7,406.4l-21.6,55.4c0,0-14.1,132.2-5.9,211.3c3.4,33.1,77.7,210.2,77.7,210.2l36.9-5.2l-49.4-209.7
			l18.2-80.2l25.7-158.5L209.7,406.4z"/>
		<path class="st7" d="M311.4,409.3l18.5,61.7l28.2,186.1l95.2,174.1c0,0-14.3,21.8-29.7,25.2l-135.2-176l-73.2-220.3l2.6-48.9
			L311.4,409.3z"/>
	</g>
	<path class="st8" d="M189.1,300.2l52.5,5.4c0,0,2.4-43.3,2.4-63.9c0-25-4.6-56.4-7.6-55.5c-8.2,2.5-17.4,5.5-24.2,14.8
		C188.9,233.4,189.1,300.2,189.1,300.2z"/>
	<path class="st2" d="M411.9,911.9c3.5-4.1,15.1-8.2,17.4-9c8.7-3,29.1-64.9,29.1-64.9s17.7,5.2,19,7.9c1.4,2.7-10.9,32.5-10.9,32.5
		c-2.3,12.2-8.2,39.9-8.2,39.9h-41.4C413.7,918.4,408.1,916.3,411.9,911.9z"/>
	<path class="st2" d="M307.2,918.3l-6.7-21.7c0,0-14.5,6.2-21.6,5.2c-7.2-1-21.2-5.1-21.2-5.1c-28.6,9.5-52,14-47.8,21.7l0,0h97.3
		V918.3z"/>
	<path class="st9" d="M304.7,183.2c0,0,27.8,3.8,35.1,9.2c8.2,6,33.8,34,33.8,34s-53.1,150.8-51.1,177.7c2.1,26.8,7.9,66.6,7.9,66.6
		s-103.2,6.5-142.3-8.8c0,0,12.3-60.8,12.3-76.8c0-16,6.9-175.6,11.9-183.9c4.9-8.4,14.9-13.1,33.7-17.2
		C264.9,179.8,304.7,183.2,304.7,183.2z"/>
	<path class="st6" d="M297.1,140.1l6.9,43.1c0,0-25.1,54.8-40.1,50.2c-12.6-3.9-4.8-50.9-4.8-50.9s6.9-25.3,4.8-37.9
		C261.7,131.9,297.1,140.1,297.1,140.1z"/>
	<path class="st1" d="M263.8,144.5c-2.1-12.6,33.3-4.4,33.3-4.4l0.6,3.7c-1,2.5-2.3,4.6-3.8,6.2c-7.9,8.4-20.2,13.4-30.9,13.8
		C264,157,264.6,149.7,263.8,144.5z"/>
	<g>
		<path class="st6" d="M302.9,76.9c1-0.4,8,50.9-5.3,65c-13.3,14.1-39.2,18.7-48.5,7.6c-10.3-12.3-9.8-67.3,10.9-81.8
			S302.9,76.9,302.9,76.9z"/>
		<path class="st9" d="M325.3,78.6c11.9,20.8,3.3,43.1-11.3,54.2c-14.6,11.1-14.3,23.8-14.3,23.8l-2.4-6.5c-1.7-5-2.4-10.4-1.8-15.6
			c0.3-3.2,1-6.6,2.4-9.4c3.5-7.4-7.5-12.3-10.6-18.5c-2.4-4.8-2.5-15.6-6.3-23.5l-4.5-6c0,0-10.4-7.9-20.5-5.7
			C245.9,73.6,299.3,33,325.3,78.6z"/>
		<path class="st6" d="M287.9,115.7c-0.1,6.3,2.8,11.4,6.4,11.4c3.7,0.1,6.7-5,6.8-11.2c0.1-6.3-2.8-11.4-6.4-11.4
			C291.1,104.4,288,109.4,287.9,115.7z"/>
	</g>
	<path class="st4" d="M271.4,56.9c3.9-2.7,11.3-8,18.7-12c9.8-5.2,21.7-4.1,30.3,2.9c11.7,9.5,25.8,23.6,24.1,35.8
		c0,0-13.6,28.3-13.6,35.1s0,16.2,0,16.2S266.3,102.7,237,64C237.1,63.9,257.3,66.7,271.4,56.9z"/>
	<path class="st10" d="M264.9,60.4c21.7,27.5,54,44.7,67.7,51.2c-0.3,0.9-0.6,1.8-0.8,2.6c-6.4-3-16.9-8.3-28.4-15.9
		c-12.7-8.3-28.5-20.7-41.1-36.9C263.1,61.1,264,60.8,264.9,60.4z"/>
	<g>
		<g>
			<g>
				<path class="st2" d="M374.8,566.2h8.9v-32.8c0-1,0.7-1.8,1.6-1.8h48.4c0.9,0,1.6,0.8,1.6,1.8v32.8h8.9v-32.8
					c0-6.4-4.7-11.5-10.5-11.5h-48.4c-5.8,0-10.5,5.2-10.5,11.5V566.2z"/>
			</g>
		</g>
		<path class="st9" d="M282.4,716h246.5c13.3,0,24-10.8,24-24V571.4c0-13.3-10.8-24-24-24H282.4c-13.3,0-24,10.8-24,24V692
			C258.3,705.2,269.1,716,282.4,716z"/>
		<path class="st8" d="M274.2,547.4h26.2c-8.8,0-15.9,6.3-15.9,14V702c0,7.7,7.1,14,15.9,14h-26.2c-8.8,0-15.9-6.3-15.9-14V561.4
			C258.3,553.7,265.4,547.4,274.2,547.4z"/>
	</g>
	<path class="st11" d="M394.2,495.2c1.9-1.3-0.1-33-0.1-33s-3.2-91.4-3.6-96.3l-41.1-84.4l35.5-33.1c0,0,42.3,93,43.6,98.3
		c1.4,5.3-8.4,129.5-8.9,140.5c0,0,7.4,16.6,9.7,25c2.3,8.4-1.7,16.9-1.5,19.4c0,0.4-9.2,5.7-11.6,5c-7.3-2.1-11.4-2.7-13.1-2.3
		c-10.2,2.3-6.8-12.4-8.5-12.3c-1.7,0.1-7.4,0-8.4,0C384.9,521.8,383.8,502,394.2,495.2z"/>
	<path class="st8" d="M408.1,280.4l-46.5,36c0,0-20.5-19.5-30.9-41.1c-10.4-21.9-3.1-86.6,8-83.6
		C363.6,198.3,408.1,280.4,408.1,280.4z"/>
	<path class="st2" d="M241.2,166.5V181l1.1-2.9c-0.1,0.2-28,31.1-41.9,98.8l-1.3,6.6c-3.5,21-4.4,33.3-4.4,33.3
		c-2.1,29.9-1.2,41.9,0.7,66.9c0.4,4.3,6.2,5.2,7.9,1.3c5.8-13.5,8.1-27.5,10.3-41.1c1.8-11.6,3.2-31.7,3.2-31.6
		c0.3-2.5,1.6-22.6,8.4-56.1c9.7-44.4,21.2-66.6,23.6-72.3c0.1-0.1,1.1-1.3,1.1-1.3c0-2.6,0-9.8,0-16.1c0-2.4-2-4.4-4.4-4.4
		C243.2,162.1,241.2,164.1,241.2,166.5z"/>
	<path class="st2" d="M315.2,169.6l-0.4,11.9v2.4c-17.2,30.3-41.9,99.1-28.6,168.5c5,22.7,16.1,52.4,37.2,62.2
		c2.1,1.3,6-0.5,7.3-2.6c1.3-2.1-3.9-8.1-3.9-8.1c-10.9-20.3-15.8-86-15-104.8c0.5-42.7,8.2-84.7,12-112.4L324,170
		c0.1-2.4-1.7-4.5-4.2-4.6C317.4,165.3,315.3,167.2,315.2,169.6z"/>
	<path class="st0" d="M174.8,536.3c0,0,8.9-11.1,3.5-15s-27.7,1.1-29.3,2.7c-1.6,1.6-7.9,7.2-7.9,7.2L174.8,536.3z"/>
</g>
</svg>
