<?xml version="1.0" encoding="utf-8"?>
<!-- Generator: Adobe Illustrator 23.0.0, SVG Export Plug-In . SVG Version: 6.00 Build 0)  -->
<svg version="1.1" id="Layer_1" xmlns="http://www.w3.org/2000/svg" xmlns:xlink="http://www.w3.org/1999/xlink" x="0px" y="0px"
	 viewBox="0 0 1077.3 960" style="enable-background:new 0 0 1077.3 960;" xml:space="preserve">
<style type="text/css">
	.st0{fill:#F7A491;}
	.st1{fill:#F48C7F;}
	.st2{fill:#355389;}
	.st3{fill:#3C8F7C;}
	.st4{fill:#184655;}
	.st5{fill:#F47458;}
	.st6{fill:#50BFA5;}
	.st7{fill:#F7CC7F;}
	.st8{fill:#86B1F2;}
	.st9{fill:#B75742;}
	.st10{fill:#13375B;}
	.st11{fill:#9BC1F9;}
	.st12{fill:#F79C8D;}
	.st13{fill:#FAE0B2;}
	.st14{fill:#466EB6;}
	.st15{fill:#96D9C9;}
</style>
<g>
	<g>
		<path class="st0" d="M988,404.3c0,0-6.5-3-12.2-13.9c-3.8-6.9-14.9-15.8-10.3-17.1c4.6-1.5,11.6,10.3,13,6.9
			c1.3-3.4-11.8-28.6-7.6-29.9c4.2-1.3,15,23.2,16.4,20.4c1.1-3-11.2-24.6-5.3-26.3c5.9-1.9,12.4,26.5,15.4,25.5
			c3-1-1.5-22.5,3.2-24c4.8-1.5,4,26.7,5.7,25.9c1-0.4,5.1-14.1,7.8-13.1c2.9,1.1-5,29.1-1.5,35.2s31.6,82.9,21.9,92.6
			c-10.5,10.5-76.9,34.5-90.9,30.3c-13.9-4.2-21.9-17.9-18.5-26.3c3.4-8.4,68.9-27.4,70.1-30.1C996.6,457.6,988,404.3,988,404.3z"/>
		<path class="st1" d="M982.7,381.8c2.1,0,4,0.4,5.9,1.1c0.2,0.2,6.7,2.1,9.3,9C994.9,388.3,991.5,384.5,982.7,381.8z"/>
	</g>
	<g>
		<path class="st0" d="M678.1,862.9c0,0,3.2,35.8,1.1,47.6c-0.4,1.5-1,3.6-1.7,5.7c-2.3,6.5,3.8,26.7,3.8,26.7l81.7,0.4
			c4.4,0,1.5-2.9-2.1-5.3c-5.9-4.2-10.7-7-29.5-15.8c-1.1-0.6-5.7-3.4-7.4-4.4c-4.2-2.5-8.2-6.3-11.8-10.1
			c-5.9-6.5-6.9-38.1-6.9-38.1L678.1,862.9z"/>
		<path class="st2" d="M724.2,917.4c-21.5,5.7-37.5,2.3-46.7-1.3c-2.3,6.5-6.3,29.1-3.6,29.1c20.6,0,37.7,0.2,96,0.6
			c2.1,0,2.1-5.1,0.8-6.9C766.9,934.7,725.7,918.5,724.2,917.4z"/>
		<path class="st3" d="M575.7,436.9c0,0,1.1,51.2,15.8,84c14.3,32,82.7,110.7,100.9,156.8c-5.7,25.9-21.1,62.5-20,91.2
			c1.3,32.6-0.6,118.9-0.6,118.9l36.8,1.1l48.2-222.5l-72.6-240l-33-58.3L575.7,436.9z"/>
		<path class="st0" d="M418.7,811.9c0,0-22.5,31-32.6,38.9c-5.3,4.2-19.8,9.9-21.3,16.8c-1.5,6.9,65.5,68.2,65.5,68.2
			c3.6,3,3.2-1.1,2.1-5.9c-1.7-7.6-3.6-13.1-12.6-33.5c-0.6-1.3-2.3-6.7-2.9-8.6c-1.5-4.8-2.1-10.9-2.3-16.4
			c-0.2-9.3,21.3-35.2,21.3-35.2L418.7,811.9z"/>
		<path class="st2" d="M417,887.7c-21.3-10.5-31.6-24.6-36.4-33.7c-6.3,3.6-23.4,11.4-22.1,13.7c11.8,17.1,24.2,38.7,71.8,79
			c1.7,1.5,8.8-6.9,8.8-9.1C439.3,931.5,417.8,889.6,417,887.7z"/>
		<path class="st4" d="M688.8,70.4c-6.3-41.3-43.6-71-82.9-50.9c-8.8,4.6-20.8,13.7-26.9,21.5c-16.8,21.5-20.8,48-38.5,68.6
			c-15.2,17.7-56,14.5-75,28c-19,13.7-32.4,38.1-32.4,67.4c0,32.8,7.4,67.6,32.8,88.4c25.3,20.8,61.5,25.9,93.1,17.1
			c31.6-8.8,58.7-30.3,78.1-56.6s33.3-55.2,43-86.5C691.3,132.3,693,97.1,688.8,70.4z"/>
		<g>
			<path class="st1" d="M686.9,264.3c0,0,39.6,89.7,47.2,110.1c7.6,20.2,47,88,48.8,90.7c1.7,2.7,37.5,7.2,35.6,11.8
				c-2.1,4.6-17.3-1.1-17.3,1.3c0,5.7,22.5,47.6,18.7,48.8c-6.9,1.9-13.9-25.9-17-24.6c-3,1.5,14.3,25.7,10.1,29.9
				c-4.2,4.2-14.1-24.6-17-24.6c-2.9,0,14.9,28.4,8.8,27.8c-3.2-0.2-15.8-26.3-18.7-23.6c-1.1,1.1,12.4,22.1,8.6,21.5
				c-3.6-0.6-14.3-17.3-18.7-26.7c-4.2-9.3-2.3-18.5-13.5-31.2c-11.2-12.8-56.4-53.3-69.9-85.7C679.3,357.4,649.4,286,649.4,286
				L686.9,264.3z"/>
			<path class="st5" d="M653.6,173.1c0,0,33,15.8,49.1,113.7l-55.8,15.6l-23.2-63.2L653.6,173.1z"/>
		</g>
		<path class="st6" d="M578.1,404.1c0,0-28.4,42.7-35.2,77.9c-6.7,34.5,4.4,138.1-7,186.3c-19.4,18.1-53,39-68.6,63.2
			c-17.7,27.4-68.6,96.9-68.6,96.9l29.5,21.9l167-154.9L662.9,489l23.2-60.4L578.1,404.1z"/>
		<path class="st7" d="M601.2,161.2c0,0-37.5-2.5-52.4,13.7s33,144.2,35.6,164.8c2.7,20.6-26.9,91.2-26.9,91.2s108.2,18.9,133.5,2.1
			c0,0-4-164.9-6.7-179.8c-2.7-14.7-25.3-74.5-30.7-80.4C648,167.1,601.2,161.2,601.2,161.2z"/>
		<path class="st0" d="M613.8,111.2c0,0-0.2,1.1-0.6,3c-1.7,9-8.2,38.9-12.6,47.2c-5.3,9.9,18.1,41.7,40.6,37.7
			c6.7-1.1-5.7-29.1-5.1-32.2c1.1-5.7,2.7-13.3,4.2-21.3c1-4.6,1.7-9,2.7-13.3c2.5-12.2,4.4-22.1,4.4-22.1L613.8,111.2z"/>
		<path class="st5" d="M613.2,114.2c0.4-1.9,0.6-3,0.6-3l33.7-0.8c0,0-1.9,9.9-4.4,22.1c-0.8,4.2-1.7,8.8-2.7,13.1
			c-5.1-0.8-10.7-3.2-16-8c-5.9-5.1-9.9-11.4-12.2-18.1C612.4,117.4,612.8,115.5,613.2,114.2z"/>
		<path class="st0" d="M636.2,35c0,0-15.8-1.9-25.7,11c-9.9,12.8-20.6,52.4,4,74.1c24.8,21.5,49.1-2.9,52.8-28.8
			C670.9,65.4,672.2,34,636.2,35z"/>
		<path class="st0" d="M674.5,90.8c-2.9,5.7-7.8,9-11,7c-3.2-1.9-3.2-8-0.4-13.7c2.9-5.7,7.8-9,11-7C677.4,79,677.6,85.1,674.5,90.8
			z"/>
		<path class="st4" d="M638.1,30.6c0,0-21.1,37.7-36.4,39.4c-15.2,1.7-17.1,21.7-17.1,21.7s5.3-46.1,20.4-55
			C620,27.9,638.1,30.6,638.1,30.6z"/>
		<path class="st0" d="M605.8,79.5c1.1,6.7-1.3,12.8-5.5,13.7c-4.4,1-8.8-3.8-9.9-10.5c-1.1-6.7,1.3-12.8,5.5-13.7
			C600,68.1,604.4,72.9,605.8,79.5z"/>
		<g>
			<path class="st2" d="M136.4,882.6l20,8l292.4-393.1l0,0c-11-4.4-16.6,3-22.5,11L136.4,882.6z"/>
			<path class="st8" d="M167.5,905.2l20,8l292.4-403.4c4.2-5.5-7-9.1-7-9.1L167.5,905.2z"/>
			<path class="st5" d="M194,695.9l-29.7-11.8l36.6-48.8c30.3-40.4,99.8-55.4,155.2-33.3l50.1,19.8L187.5,913.2l-120.6-48
				l-37.3-26.3L194,695.9z"/>
			<path class="st9" d="M406,622L187.5,913.2l-120.6-48l2.9-3.8l0,0c84,5.7,277.7-193.3,325.5-243.8L406,622z"/>
			<path class="st9" d="M252.2,714.6c18.1-20,45.9-49.3,65.9-67c-21.7,30.7-62.5,74.7-63,75.2c-24-9.7-55.2-21.5-91-38.9
				C194.3,693.2,223.5,703.7,252.2,714.6z"/>
			
				<ellipse transform="matrix(0.2269 -0.9739 0.9739 0.2269 -752.3892 888.3053)" class="st10" cx="183.3" cy="918.1" rx="27.4" ry="27.4"/>
			
				<ellipse transform="matrix(0.2123 -0.9772 0.9772 0.2123 -752.7042 902.318)" class="st11" cx="183.3" cy="918.1" rx="11.2" ry="11.2"/>
		</g>
		<path class="st12" d="M530.1,260.5c0,0-26.1,94.7-30.7,115.8c-4.6,21.1-33.9,93.9-35,96.8c-1.1,2.9-27,29.1-23.6,34.7
			c1.9,3,7.6,6.5,10.5,6.1c2.7-0.4,4.4,1.7,8,3c3.6,1.1,10.5,0.4,13.3-9.5c2.9-9.9,4.2-12.2,13.3-26.5c9.3-14.3,48.2-61,56.6-94.9
			c8.6-33.9,27.6-108.9,27.6-108.9L530.1,260.5z"/>
		<path class="st8" d="M460.6,517c3.8,0.6,9.3-1.3,11.8-9.9c0.8-2.5,1.3-4.4,1.9-6.1c-0.8-0.4-1.3-0.4-1.3-0.4L460.6,517z"/>
		<path class="st13" d="M520,289.6c0,0,2.3-77.9,13-99.6c10.5-21.9,36.8-34.3,46.9-15.2c10.3,19.8-7.6,115.8-7.6,115.8L520,289.6z"
			/>
	</g>
	<g>
		<polygon class="st6" points="970.1,465.6 927.3,468.7 940.4,519.5 984.4,511.7 		"/>
		<path class="st14" d="M823.3,492.7c0,0-9.5,118.1-9.5,128.2c0,10.3,40.8,13.1,40.8,13.1l12.4-121.1L823.3,492.7z"/>
		<path class="st8" d="M884,463.9c0,0-26.5-14.1-48.2-1.1s-27.6,89.1-27.6,89.1l69.7,8.4L884,463.9z"/>
		<path class="st0" d="M792,887.9c0,0-4.6,16-8,19.6c-3.6,3.6-15.4,17.5-12.6,24.4c2.9,6.9,75.2,16.8,77.9,14.1
			s-12.6-14.3-21.1-21.5c-8.6-7-14.9-15.8-11.2-26.5c3.6-10.7,3.6-9.5,3.6-10.7C820.8,886.2,792,887.9,792,887.9z"/>
		<path class="st2" d="M849.4,945.8c3.2-2.5-6.9-13.3-21.5-21.9c-6.1,0-14.5-0.4-21.3-2.1c-10.9-2.7-19.2-12.2-21.7-15.2
			c-0.2,0.4-17.7,17.1-14.3,25.3C773.4,938.7,842.9,950.7,849.4,945.8z"/>
		<path class="st0" d="M912,895.7c0,0,1.3,16.4-1.3,20.8c-2.7,4.2-12.2,21.1-6.9,26.5c4.8,4.8,71,1.7,73.1-1.5
			c2.1-3.2-9.3-13.1-19.2-18.1c-9.9-5.1-17.9-12.2-16.8-23.4s1.5-10.1,1.1-11.2C941.9,887.7,912,895.7,912,895.7z"/>
		<path class="st2" d="M985.2,943.9c3.4-2.3-11.8-16-28-21c-6.1,1.3-14.1,2.7-21.3,2.5c-11.2-0.2-21.5-7.6-24.6-10.1
			c-0.2,0.4-15.2,22.3-8.6,27.8C908,947.5,979.8,947.3,985.2,943.9z"/>
		<path class="st5" d="M917,662.6l-42.9,124L825,901.2l-41.1-10.3c0,0,14.9-79.6,28.8-104.6c10.5-18.9,17.9-127.4,17.9-127.4
			L917,662.6z"/>
		<path class="st9" d="M896.4,683.3L911.3,901h35c0,0,15.2-228.2,9.7-249.9c-5.5-21.7-64-16.8-64-16.8L896.4,683.3z"/>
		<path class="st15" d="M929.9,469.6c0,0-45.1-13.5-52-12.6c-7.6,1-26.1,10.7-26.1,10.7s1.1,78.3-2.1,100.6
			c-3.2,22.1-26.1,93.1-26.1,93.1s32.2,18.7,86.5,12.6c54.1-6.1,50.5-19.2,50.5-19.2s-5.1-78.5-10.3-112.9
			C945,507.1,929.9,469.6,929.9,469.6z"/>
		<path class="st14" d="M859.1,464.1c0,0,10.1-1.5,18.9,31.4c9.9,37.3-0.8,76-17.1,85.9c-16.4,9.7-23,8-23,8l2.5,23
			c0,0,48.2-10.9,54.9-52c10.9-67.6-21-102.5-21-102.5s-5.9,1-7.8,1.7C864.2,460.3,859.1,464.1,859.1,464.1z"/>
		<path class="st0" d="M834.1,542c0,0,0,39.8,0,48.2s9.7,65.3,21.5,84.8s27.8,41.1,31.2,42.5c3.2,1.3,10.5,5.9,14.3,2.1
			c3.8-3.8,6.7-2.1,11.4-4c4.8-2.1-0.6-8.8-7.2-15.2c-6.5-6.5-8-8-6.9-9.1c1.1-1.1,6.5,5,9.1,4s-1.7-10.7-9-14.1
			c-7.2-3.4-19-10.1-20-13.7c-1.1-3.6-1.1-2.7-1.1-3.6c0-1-8.2-57.5-8.2-68.6s-3.2-47-3.2-47L834.1,542z"/>
		<path class="st6" d="M856.2,465.8c-4.2,0.6-15.8,4.8-19.8,18.5c-4,13.7-14.7,52.6-12.8,71.6c0,0,45.5,5.9,45.5,4
			c0-1.9,9.9-50.7,5-72C869.6,469.2,863.5,464.9,856.2,465.8z"/>
		<path class="st14" d="M922.9,467.5L954.5,581l0,0c-1.3-14.9-2.9-29-4.4-39.2c-5.1-34.5-20.4-73.1-20.4-73.1
			S927.3,467.9,922.9,467.5z"/>
	</g>
	<path class="st4" d="M904.8,351.3c0,0,17.1-6.3,28.2,11.2c11,17.3,5.1,15.8,10.5,24.4c5.3,8.8,19.4,6.9,19.4,20.4
		s-6.3,15.6-6.3,15.6s5.7,10.5-0.6,21.3s-21.9,20-35,18.5c0,0-19.6,10.9-39.4,5.7c-19.8-5.1-13-5.1-21-5.1c-8,0-29.9-11-26.3-27.2
		c0,0-13.3-15.8-0.4-28.8c13-13,15.4-26.1,22.9-43.4C864.2,346.6,895.8,347.1,904.8,351.3z"/>
	<path class="st0" d="M916.2,443.9c0,0-0.8,23.8,1.5,26.1c2.3,2.3,5.3,5.9,2.1,11.6c-3.2,5.7-17.5,2.1-24.2-1.1
		c-6.5-3-10.5-9-10.5-9l3.4-37.7L916.2,443.9z"/>
	<path class="st9" d="M906.7,453.8c-4.6-1.5-12.6-4.8-18.9-14.9l0.4-5.3l27.8,10.1c0,0-0.2,5.9,0,12
		C912.2,455.7,909,454.6,906.7,453.8z"/>
	<path class="st0" d="M883.5,406.8c0,0-0.8-14.1-9.3-11.2c-8.6,2.7-2.1,23.8,5.1,23.2C886.5,417.8,883.5,406.8,883.5,406.8z"/>
	<path class="st0" d="M910.5,360.9c0,0,13.5-0.4,20.4,10.1s14.3,40.4,3,61.1c-11.4,20.6-25.9,15.6-31.8,13.5
		c-5.9-2.1-17.9-6.7-23.8-26.1C872.2,400.3,876.6,356.9,910.5,360.9z"/>
</g>
</svg>
