<?xml version="1.0" encoding="utf-8"?>
<!-- Generator: Adobe Illustrator 23.0.0, SVG Export Plug-In . SVG Version: 6.00 Build 0)  -->
<svg version="1.1" id="Layer_1" xmlns="http://www.w3.org/2000/svg" xmlns:xlink="http://www.w3.org/1999/xlink" x="0px" y="0px"
	 viewBox="0 0 560 960" style="enable-background:new 0 0 560 960;" xml:space="preserve">
<style type="text/css">
	.st0{fill:#184655;}
	.st1{fill:#13375B;}
	.st2{fill:#355389;}
	.st3{fill:#3C8F7C;}
	.st4{fill:#50BFA5;}
	.st5{fill:#F48C7F;}
	.st6{fill:#B75742;}
	.st7{fill:#F7CC7F;}
	.st8{fill:#F7A491;}
	.st9{fill:#F47458;}
	.st10{fill:#FAE0B2;}
	.st11{fill:#466EB6;}
</style>
<g>
	<rect x="142.2" y="903.2" class="st0" width="27.1" height="25.7"/>
	<rect x="33.5" y="903.2" class="st0" width="27.1" height="25.7"/>
	<rect x="156.4" y="892.2" class="st1" width="21.8" height="16.4"/>
	<g>
		<path class="st2" d="M135.5,540.1c0-1.9-1.4-3.5-3.2-3.5H77c-1.8,0-3.2,1.6-3.2,3.5v97.7H64v-97.7c0-7.8,5.8-14.2,13-14.2h55.3
			c7.2,0,13,6.4,13,14.2v97.7h-9.8V540.1z"/>
	</g>
	<path class="st3" d="M33.6,909.3l132.4-7.4c7.1,0,12.8-6,12.8-13.5l12.6-235.5c0.4-16.5-18.3-19.1-25.4-19.1H21.9
		c-7.1,0-12.8,6-12.8,13.5v241.1C9.1,900.9,21.4,909.1,33.6,909.3z"/>
	<path class="st4" d="M43.4,909.3h126.4c12,0,21.6-9.7,21.6-21.6V662.9c0-12-9.7-21.6-21.6-21.6H43.4c-12,0-21.6,9.7-21.6,21.6
		v224.8C21.7,899.6,31.4,909.3,43.4,909.3z"/>
	<path class="st3" d="M53.2,909.3h105.3V772.7c0-27.3-22.1-49.5-49.5-49.5h-6.3c-27.3,0-49.5,22.1-49.5,49.5V909.3z"/>
	<path class="st1" d="M102.3,623.7c-13.3,0-24.6,5.9-25.1,13H66.5c0.4-11.7,16.3-21.1,35.8-21.1s35.4,9.4,35.8,21.1h-10.7
		C126.9,629.6,115.6,623.7,102.3,623.7z"/>
	<path class="st1" d="M82.4,537.4h43.8c3.5,0,6.4-2.9,6.4-6.4v-0.8c0-3.5-2.9-6.4-6.4-6.4H82.4c-3.5,0-6.4,2.9-6.4,6.4v0.8
		C76,534.5,78.9,537.4,82.4,537.4z"/>
</g>
<g>
	<path class="st0" d="M336.7,301l23.9-57.9c11.1-26.8,47.1-50.3,73.5-38.1l65-137c5.5-13.4,20.9-19.8,34.3-14.3l0,0
		c13.4,5.6,19.8,20.9,14.2,34.3l-64.2,135.4c60.1,22,4.3,101.4-6.8,128.3c0,0,18.2,39.2,8.8,75.1c-26,99.2-87.9,106.1-134.5,86.9
		L322.6,502c-46.6-19.2-45.4-110.4-21-161.4C308.2,327.1,336.7,301,336.7,301z"/>
	<path class="st1" d="M164,185.6c-3.5-15.8-6.9-31.6,2.3-49c7.4-14,20.2-22.1,35-23.9c42-5,45.7,32.5,85.5,48.9
		c17,7,34.5,5,49.7,14.1c27.5,16.4,17.4,36.2-0.9,79c-44.6,104.7-121.4,44.1-134.9,23.5C190.7,262.8,166.3,195.7,164,185.6z"/>
	<g>
		<path class="st5" d="M188.3,239.4c22.5,7,70.2,42.2,73.3,41.4l55.6-44.2l34.2,30c0,0-76.3,56.5-80.6,58.5
			c-3.2,1.5-63.7-49.8-95.3-65.3C175.8,249.5,183.2,248.4,188.3,239.4z"/>
		<path class="st6" d="M276.7,261.4l34.8,45.1c0,0,36.7-28.2,50.2-43.4c16.4-18.4,34.4-57.9,31.7-59.4c-7.4-4.1-23.5-7.3-34.5-4.8
			C320.6,207.4,276.7,261.4,276.7,261.4z"/>
	</g>
	<g>
		<path class="st5" d="M189.7,264.6l4.3-22.4c0,0-12.7,3-20.7,15.6c-8.1,12.5-21.6,54.9-23.9,56.2c-2.3,1.3-27.8-38.1-32.3-44.3
			c-5.5-7.7-7.6-16.5-11-23.2c-3.5-6.7-15.6-9-20.2-8.1c-4.6,0.8,6.3,20.4,6.3,20.4s27.7,48.1,36.9,74.4c9.2,26.3,38,38.9,42.6,35.1
			C176.3,364.5,189.7,264.6,189.7,264.6z"/>
		<path class="st7" d="M184.7,331.9l-35.2-20.1c0,0,16-67.4,44.5-69.6L184.7,331.9z"/>
		<path class="st8" d="M105.7,250.2c0,0-1.2-5.1-4.3-6.1c-3.1-1-8.5-0.1-8.9,0c-0.3,0.1-6.3-3.1-6.3-3.1l4.9,9.2
			c0,0,9.7,11.4,12.9,7.1C107.3,253.1,105.7,250.2,105.7,250.2z"/>
		<path class="st5" d="M84.6,241.4c0,0-3.5,17.7-2.6,21.5c0.9,3.7,3.1,1.7,3.5,0.9c1.7-3.3,2.9-14.7,2.9-14.7L84.6,241.4z"/>
		<path class="st5" d="M92.1,256.2c0,0-1.7,11-3.4,12.3c-1.1,0.8-2.5,0.3-3-1.9c-0.5-2.2,2.2-15.8,2.2-15.8L92.1,256.2z"/>
		<path class="st0" d="M102.3,287.4l5.8-2.8l-24.6-50.4l0,0c-3.2,1.6-4.5,5.4-3,8.6L102.3,287.4z"/>
		<path class="st8" d="M331.9,847.2c0,0,3,30.3,10.7,35.9c7.7,5.6,17.9,26.2,12.8,37.3c-1.6,3.5-4.8,5.5-8.4,6.6
			c-10.8,3.3-22.3-2.3-26.9-12.6c-2.6-5.8-4.8-13.5-5.3-23.1c-1.2-24.7-8.8-37.2-8.8-37.2L331.9,847.2z"/>
		<path class="st8" d="M213.8,859.6c0,0-2.4,30.6-0.5,40.6c1.1,5.3,6.9,16.3,4.2,21.3s-5.8,6.3-5.8,6.3l-69.7,1.1
			c-3.8,0.1-1.3-2.4,1.8-4.6c5-3.7,9.1-6.1,25.1-13.8c1-0.5,4.8-2.9,6.2-3.8c3.5-2.1,7-5.5,10-8.8c5-5.6,5.4-32.5,5.4-32.5
			L213.8,859.6z"/>
		<path class="st6" d="M159.4,452.7c0,0-8.8,49.7-3,82.3s33.4,334.7,33.4,334.7l30.7,1.7c0,0,6.4-126.2,5.3-143.7
			c-1.2-17.5-10.3-46.9-10.3-46.9l3.1-101.9L179.8,445L159.4,452.7z"/>
		<path class="st9" d="M249.7,442.2c0,0,24.2,36.4,30,66.4c5.8,30.1-4.2,122.5,6.9,162c6,21.3,28.7,54.3,32.2,81.9
			c3.5,27.6,17,99.8,17,99.8l-30.7,6.1L233.6,678l-56-163.1l-14.3-84L249.7,442.2z"/>
		<path class="st10" d="M230.1,235.4c0,0,16.6,2.7,29,14.8c26.5,25.9-15.6,126-17.9,143.5s18.9,58.5,18.9,58.5s-79.2,14.6-100.7,0.4
			c0,0-2.5-140.8-0.2-153.3s28.1-51.2,32.7-56.2C196.4,238.1,230.1,235.4,230.1,235.4z"/>
		<path class="st8" d="M260.1,262c-2-6.2-9-9.2-15-6.6c-8.2,3.5-19.5,10.3-25,21.8c-9.2,19.2-41.5,85.2-51.5,87.7
			s-50.7-68.5-50.7-68.5s1.2-12.5-2.3-19.6s-13.8-14.6-15.4-12.1c-1.5,2.5,5.8,8.8,5.8,10s-3.1,2.1-7.3-0.4
			c-4.2-2.5-6.5-7.6-6.5-7.6s-6.9,12.6,0.4,23.9s10.4,15.9,10.4,15.9s47.2,104.9,64.5,106.1C183.5,413.7,276.2,310.9,260.1,262z"/>
		<path class="st8" d="M219.4,192.6c0,0,0.2,0.9,0.5,2.5c1.4,7.7,6.9,33.2,10.6,40.2c4.5,8.5-15.4,35.5-34.5,32.2
			c-5.7-1,4.8-24.8,4.3-27.4c-1-4.8-2.3-11.4-3.6-18.2c-0.8-3.8-1.5-7.7-2.2-11.3c-2-10.3-3.7-18.8-3.7-18.8L219.4,192.6z"/>
		<path class="st9" d="M219.9,195.2c-0.3-1.6-0.5-2.5-0.5-2.5l-28.7-0.7c0,0,1.7,8.5,3.7,18.8c0.7,3.6,1.5,7.5,2.2,11.3
			c4.4-0.6,9-2.8,13.7-6.8c5.1-4.4,8.4-9.7,10.4-15.4C220.4,197.9,220.1,196.4,219.9,195.2z"/>
		<path class="st8" d="M202.2,124.5c0,0,11.7,1.6,20.2,12.5s17.6,44.7-3.4,63.1s-41.8-2.4-44.9-24.5
			C170.9,153.7,171.6,123.8,202.2,124.5z"/>
		<path class="st8" d="M167.3,168.2c2.5,4.9,6.7,7.6,9.4,6c2.7-1.5,2.8-6.7,0.3-11.6c-2.5-4.9-6.7-7.6-9.4-6
			C164.9,158.1,164.8,163.3,167.3,168.2z"/>
		<path class="st1" d="M198.6,124c0,0,18,32.1,31,33.6c12.9,1.5,14.6,18.6,14.6,18.6s-4.6-39.3-17.4-46.9
			C214,121.7,198.6,124,198.6,124z"/>
		<path class="st8" d="M225.4,165.3c-1.1,5.7,1.1,10.9,4.7,11.7c3.7,0.7,7.5-3.3,8.5-9s-1.1-10.9-4.7-11.7
			C230.2,155.6,226.4,159.6,225.4,165.3z"/>
		<path class="st3" d="M318,909.1c16.7,3,27.9-6.7,33.7-14c4.3,8.3,6.9,18.6,3.7,25.4c-2.8,6-10,6.5-16.3,6.7
			c-6.7,0.2-13.3-2.1-16.6-7.9C320.9,916.5,319.3,913.1,318,909.1z"/>
		<path class="st3" d="M175.2,906.7c18.4,4.7,32.1,1.5,39.7-1.6c2,5.6,4.6,12.5,3.2,16.6c-1.7,4.9-4.1,6-6.2,6.1
			c-16.8,0.4-61.7,1-74.5,1.2c-1.8,0-2.8-2.1-1.6-3.4C138.9,921.8,173.8,907.5,175.2,906.7z"/>
	</g>
	<path class="st7" d="M234.2,354.2L192.7,327c0,0,17.3-48.8,36.3-66.1s28-13.1,32-9.5c11,9.9,9.1,34.1-3.5,64
		C245,345.1,234.2,354.2,234.2,354.2z"/>
	<path class="st8" d="M299.4,865l1.6,28.6c0.6,3.6,2.9,12.6,2.9,15.9c0,12.4-55.1-10.5-42.8-16c1.1-0.5,7-4.3,7.3-8.5
		c0.6-6.5,2-19.6,2-19.6L299.4,865z"/>
	<path class="st9" d="M261.3,893.4c0,0,12.9,3.8,19.6,4.7c6.6,0.9,16.1-3.6,20.7-1.4c5.2,2.4,3.5,30.5,3.5,30.5s-70,1.8-93.2,0.6
		C203.7,927.4,234.8,902.2,261.3,893.4z"/>
	<path class="st8" d="M420.9,867.8l1.6,28.6c0.6,3.6,2.9,12.6,2.9,15.9c0,12.4-55.1-10.5-42.8-16c1.1-0.5,8.7-7.1,9.1-11.3
		c0.6-6.5,0.3-16.8,0.3-16.8L420.9,867.8z"/>
	<path class="st9" d="M382.8,896.2c0,0,12.9,3.8,19.6,4.7c6.6,0.9,15.4-7,20.1-4.9c5.2,2.4,6.5,31,6.5,31s-76.2,3.4-94,0.8
		C326.9,926.7,356.3,905,382.8,896.2z"/>
	<path class="st2" d="M333.5,455.1l-23.3,10.1l-49,234.2l2,175.6l39.3,0.9c0,0,18.3-153.6,18.3-165.5s84.7-208.3,84.7-208.3
		L333.5,455.1z"/>
	<path class="st11" d="M351.5,468c0,0,6.5,177.7,6.5,208.1c0,30.4,9.3,201.4,9.3,201.4l54.7,1.8c0,0,2.8-51.9,7.1-128.2
		c0.7-12-0.9-36.1,0-48.5c6.1-89,18.3-172.8,12.5-206.1c-0.9-5.3-2.7-19.3-6.1-22.9C409.6,447,351.5,468,351.5,468z"/>
	<path class="st9" d="M416.4,198.1c0,0,27.2,3.8,34.4,9c8.1,5.9,17,19.2,17,19.2s-33.4,157.8-33.4,184.4c0,20.5,7.2,71,7.2,71
		s-100.9,6.4-139.1-8.7c0,0,12.1-60,12.1-75.8s14.4-159,17.7-169c3-9.1,8.4-25.4,26.9-29.4C377.5,194.8,416.4,198.1,416.4,198.1z"/>
	<path class="st8" d="M409,155.6l6.5,42.6c0,0-20.4,36.5-35.1,31.9c-12.3-3.8-8.6-32.8-8.6-32.8s6.7-24.9,4.7-37.4
		C374.4,147.5,409,155.6,409,155.6z"/>
	<path class="st9" d="M376.4,160c-2-12.5,32.6-4.3,32.6-4.3l0.6,3.7c-1,2.4-2.2,4.5-3.7,6.1c-7.7,8.3-19.8,13.2-30.2,13.6
		C376.6,172.3,377.2,165.1,376.4,160z"/>
	<g>
		<path class="st8" d="M414.6,93.3c1-0.4,7.8,50.2-5.2,64.1s-38.4,18.5-47.5,7.5c-10.1-12.1-9.6-66.4,10.7-80.7
			C392.9,69.8,414.6,93.3,414.6,93.3z"/>
		<path class="st1" d="M380.4,57.1c15.6,3.2,25.8,12.7,29.5,16.7c7.1,0.8,16.7,4.7,26.7,21.1c12.3,20.2,3.2,42.5-11.1,53.4
			c-7.7,5.9-11.2,12.4-12.7,17.1c-0.6,1.7-3,1.7-3.6,0l0,0c-1.7-5-2.3-10.2-1.8-15.4c0.3-3.1,1-6.5,2.3-9.3
			c3.4-7.3-7.4-12.2-10.4-18.3c-2.3-4.7-2.4-15.4-6.1-23.2l-4.4-5.9c0,0-10.1-7.8-20-5.6C358.9,90,360.3,53,380.4,57.1z"/>
		<path class="st8" d="M400,131.5c-0.1,6.2,2.7,11.2,6.3,11.3s6.6-4.9,6.7-11.1c0.1-6.2-2.7-11.2-6.3-11.3
			C403.1,120.4,400.1,125.3,400,131.5z"/>
	</g>
	<path class="st1" d="M347,358.7l-0.7,3.8c-0.3,1.9-2.2,3.2-4.1,2.9l-78-13.5c-1.9-0.3-3.2-2.2-2.9-4.1l0.7-3.8
		c0.3-1.9,2.2-3.2,4.1-2.9l78,13.5C346.1,354.9,347.4,356.7,347,358.7z"/>
	<path class="st8" d="M457.6,218.4c-9.1-0.3-17.2,60.1-11.4,66c5.8,6,6.9,80.3,6.9,80.3l-86.3-2.1l0,0c-1.7-1.1-19.8-13.3-22.4-15.9
		c-2.7-2.8-15.9-1.4-19.4,2.4s6.7,2.5,9.7,3.9c3.4,1.6-1.2,6.2-1.2,6.2s-21.9,3.2-26.1-1.4c-4.3-4.5-15.7-12.2-17.2-7.7
		c-0.8,2.3,5.1,9.4,8.4,12.4c-4.1-3.1-9.1-6.4-10.8-5.8c-3.1,1-1.8,5-0.1,6.1c1.7,1.2,19,14.4,21.8,15.3c2.6,0.9,43,1.9,50,3.5
		c0,0,113.8,25.9,120.3,24.3c5.7-1.4,11.4-37.9,11.4-65.8C491.1,312.4,486.2,219.3,457.6,218.4z"/>
	<path class="st9" d="M445.7,204.7c0,0,19.9,4.6,32.4,22.1c13.1,18.3,24.4,110.9,24.4,110.9l-51.6,8.4l-4.1-45.5L433,279.8
		L445.7,204.7z"/>
	<path class="st8" d="M197.5,240.4c0,0-3.6-4-10.3-3.5c-6.7,0.5-15.5,9-16.8,12c-0.6,1.6,3.6,14,5.4,16.7c1.1,1.6,3.6,2.4,4.5,1.6
		c0.6-0.6,0-3.4-0.2-4c-0.3-1.2-2.5-8.8-2.5-8.8s4.3,7.7,6.4,8.2c2,0.5,3.1-1.2,3-1.8c-0.6-3.3-4-9.6-4-9.6s5.1,7.5,7.6,6.7
		s1.5-3.4,1.1-4.3c-0.4-0.9-3.9-6.1-3.9-6.1s5.5,7.6,6.6,4.9c0.7-1.7-3-8.9-3-8.9L197.5,240.4z"/>
	<polygon class="st0" points="448.5,196.8 315.8,329.8 315.8,346.1 467.7,207.7 	"/>
</g>
</svg>
