<?xml version="1.0" encoding="utf-8"?>
<!-- Generator: Adobe Illustrator 23.0.0, SVG Export Plug-In . SVG Version: 6.00 Build 0)  -->
<svg version="1.1" id="Layer_1" xmlns="http://www.w3.org/2000/svg" xmlns:xlink="http://www.w3.org/1999/xlink" x="0px" y="0px"
	 viewBox="0 0 560 960" style="enable-background:new 0 0 560 960;" xml:space="preserve">
<style type="text/css">
	.st0{fill:#F7A491;}
	.st1{fill:#B75742;}
	.st2{fill:#F47458;}
	.st3{fill:#F8A492;}
	.st4{fill:#3C8F7C;}
	.st5{fill:#184655;}
	.st6{fill:#50BFA5;}
	.st7{fill:#13375B;}
	.st8{fill:#355389;}
	.st9{fill:#466EB6;}
	.st10{fill:#96D9C9;}
	.st11{fill:#9BC1F9;}
</style>
<g>
	<path class="st0" d="M431.8,875.9c0,0,10.3,10.2,10.6,14c0.2,3.7,0.9,43.9-3.3,47.6c-4.2,3.7-16.6,6.4-12.6,10.6
		c3,3.2,26.1,2.5,41.5,1.6c4.5-0.3,10.1-36.5,11.9-41.8c2.6-7.7,11.9-24.5,9.5-29.9c-1.1-2.6-9.6-8.6-17.3-13.6
		c-8.1-5.3-15.8-17.1-15.8-17.1L431.8,875.9z"/>
	<path class="st0" d="M293.7,901c0,0,8,22.9,9.1,26.1c0.1,0.2,3.5,14.9,3.5,18.7c0,14.3-63.7-12.1-49.4-18.5c1.3-0.6,5.3-5.2,5.8-10
		c0.7-7.5-5.4-16.9-5.4-16.9L293.7,901z"/>
	<g>
		<path class="st1" d="M205.8,398.8l-23.1,59.7c0,0-15,142.5-6.3,227.8c3.7,35.7,83,226.6,83,226.6l39.4-5.6l-52.8-226.1l19.4-86.5
			L293,423.8L205.8,398.8z"/>
		<path class="st2" d="M314.4,401.9l19.8,66.5L364.3,669L466,856.7c0,0-15.3,23.5-31.7,27.2L289.9,694.2l-78.2-237.5l2.7-52.8
			L314.4,401.9z"/>
	</g>
	<path class="st3" d="M220.9,357.5c2-5.2,21.6-107.8,21.6-107.8l-48.8,5.2l-14.2,86.9c-17.2-7.9-31.6-14.6-31.6-14.6
		s-28.5-12.9-29.8-14.9c-1-1.7,1.5-2.5-6.3-15.7c-2.3-3.8-7.9-7-7.9-7s-6.9-3.8-8.3-2.5c-1.4,1.3-1.1,3.7-0.1,4.9
		c1,1.2,3.9,2.4,4.9,3.5c1,1.2,0.6,5.9-0.1,7.5c-0.8,1.6-20.8-10.3-20.8-10.3s-5.6-3.7-7.3-5c-1.5-1.2-5.7-5-5.7-5s-7.4-5.7-8.9-3.7
		c-1.8,2.4,21.9,22.6,21.1,23.8c-0.9,1.6-12.1-4.7-12.1-4.7s-4.6-4.1-7.1-5.2c-2.4-3-8.5-6.6-10.2-4.1c-0.3,0.5,6.2,7.4,6.2,7.4
		s4.5,3.8,6.5,5.7c3.5,3.4,10,6.7,12.6,8.8c2.1,1.8,0.9,1.9,0.9,2.2c0,0.2-3.2-1.7-7.6-4.2c-2.2-1.3-5-2.3-7.4-4.1
		c-2.2-1.7-5.5-3.7-7.6-4.9c-5.8-3.2-6.8,0.9-1.9,4.7c1.9,1.5,3.9,3.1,6,4.7c8.1,6.2,16.7,10.2,16.4,11.2
		c-0.5,1.3-15.8-6.8-15.8-6.8s-9.5-2.1-2.3,3.6c8.4,6.6,16.1,9.9,16.5,10c2.4,0.9,9.8,6.3,18.5,8.1c8.7,1.7,22.6,4,22.6,4
		c6.8,3.9,62.9,38,96.7,57.9l24.8-30.2c-2.8-1.3-8.3-3.8-15.1-6.9C220.2,358.8,220.7,357.9,220.9,357.5z"/>
	<path class="st4" d="M183.8,284.3l56.1,5.8c0,0,2.6-46.6,2.6-68.9c0-27-3.6-60.6-6.8-59.9c-9,2.1-19.9,6-27.1,16.1
		C183.6,212.3,183.8,284.3,183.8,284.3z"/>
	<path class="st5" d="M471.5,864.1c0,0-21.7,66.7-31,69.9c-2.5,0.9-16.4,4.4-18.6,9.7c-0.1,0.1-0.1,0.3-0.1,0.5
		c-0.7,3.4,2.1,6.5,5.6,6.5h44.2c0,0,6.3-29.9,8.8-43.1c0,0,13.1-32.1,11.7-35C490.3,869.7,471.5,864.1,471.5,864.1z"/>
	<path class="st4" d="M310,950.6l-7.1-23.4c0,0-15.5,6.7-23.1,5.6c-7.7-1.1-22.6-5.5-22.6-5.5c-30.6,10.2-55.6,15.1-51,23.3l0,0H310
		z"/>
	<path class="st6" d="M307.3,158.2c0,0,29.7,4.1,37.5,9.9c8.8,6.5,25.2,32.3,25.2,32.3s-45.9,167-43.7,195.9
		c2.2,28.9,8.4,71.8,8.4,71.8s-110.2,7-152-9.5c0,0,13.2-65.6,13.2-82.8c0-17.2,7.4-189.3,12.7-198.3c5.3-9,15.9-14.1,36-18.5
		C264.8,154.5,307.3,158.2,307.3,158.2z"/>
	<path class="st0" d="M299.2,111.7l7.4,48.2c0,0-25.7,41.1-41.7,36.1c-13.5-4.2-6.3-38.7-6.3-38.7s2.6-9.5,4.2-20.1
		c1.1-7.3,1.8-15.2,0.9-20.7C261.4,102.8,299.2,111.7,299.2,111.7z"/>
	<path class="st2" d="M263.6,116.5c-2.2-13.6,35.6-4.7,35.6-4.7l0.6,4c-1.1,2.7-2.5,5-4.1,6.7c-8.4,9-21.6,14.4-33,14.9
		C263.8,130,264.5,122.1,263.6,116.5z"/>
	<g>
		<path class="st0" d="M305.4,43.6c1.1-0.4,8.6,54.8-5.7,70c-14.2,15.2-41.9,20.2-51.9,8.2c-11-13.2-10.4-72.6,11.7-88.2
			C281.6,18,305.4,43.6,305.4,43.6z"/>
		<path class="st2" d="M274.7,9.3c17.1,3.5,43.8,18.2,54.7,36.1c13.4,22,3.5,46.4-12.1,58.4c-15.6,12-15.4,25.9-15.4,25.9l-2.4-7.2
			c-1.8-5.4-2.6-11.2-2-16.8c0.4-3.4,1.1-7.1,2.5-10.1c3.7-8-8.1-13.3-11.4-20c-2.5-5.1-2.7-16.8-6.7-25.3l-4.8-6.5
			c0,0-10.8-6.5-21.9-6.1C248.6,37.9,252.8,4.9,274.7,9.3z"/>
		<path class="st0" d="M289.4,85.3c-0.1,6.7,3,12.3,6.9,12.3c3.9,0.1,7.2-5.3,7.3-12.1c0.1-6.7-3-12.3-6.9-12.3
			C292.7,73.2,289.5,78.6,289.4,85.3z"/>
	</g>
	<g>
		<rect x="328.8" y="932.7" class="st7" width="24.5" height="18.5"/>
		<g>
			<path class="st8" d="M376.7,537.2c0-2.2,1.6-4,3.6-4h62.2c2,0,3.6,1.8,3.6,4v109.8h11V537.2c0-8.8-6.6-16-14.6-16h-62.2
				c-8.1,0-14.6,7.2-14.6,16v109.8h11V537.2z"/>
		</g>
		<path class="st7" d="M491.2,952l-148.8-8.3c-8,0-14.4-6.8-14.4-15.1l-14.1-264.7c-0.4-18.5,20.6-21.4,28.5-21.4h161.9
			c8,0,14.4,6.8,14.4,15.1v271C518.8,942.6,505,951.8,491.2,952z"/>
		<path class="st9" d="M482.9,952H335.5c-12,0-21.6-9.7-21.6-21.6V672.4c0-12,9.7-21.6,21.6-21.6h147.4c12,0,21.6,9.7,21.6,21.6
			v257.9C504.6,942.3,494.9,952,482.9,952z"/>
		<path class="st8" d="M469.2,952H350.9V794.7c0-28.6,23.2-51.8,51.8-51.8h14.7c28.6,0,51.8,23.2,51.8,51.8V952z"/>
		<path class="st7" d="M414,631.1c15,0,27.7,6.6,28.2,14.6h12C453.8,632.6,436,622,414,622c-21.9,0-39.8,10.6-40.2,23.7h12
			C386.4,637.7,399,631.1,414,631.1z"/>
		<path class="st7" d="M436.9,534.1h-50.2c-3.7,0-6.7-3-6.7-6.7v-1.9c0-3.7,3-6.7,6.7-6.7h50.2c3.7,0,6.7,3,6.7,6.7v1.9
			C443.6,531.1,440.6,534.1,436.9,534.1z"/>
	</g>
	<path class="st3" d="M343.6,274.1c0,0,38.6,67.6,40.6,85.6c1.9,18,7.7,125.5,7.7,125.5s-7.7,46.4-3.9,50.2c3.9,3.9,14.8,2.6,18,3.2
		c2.4,0.5,10.1-0.5,13.9-1c1.4-0.2,2.8-0.6,4.1-1.2l5.3-2.5c0,0-11.1-43.7-10.8-46.9c0.3-3.2,9.3-122.9,4.2-146.7
		c-5.2-23.8-39.9-103.6-39.9-103.6L343.6,274.1z"/>
	<path class="st10" d="M409.2,279.5l-51.9,27c0,0-16.9-39.4-27.9-62.7c-11.2-23.6,4.4-78.8,16.2-75.6
		C372.2,175.4,409.2,279.5,409.2,279.5z"/>
	<path class="st5" d="M270.1,447c0.5,8.8,1,17.5,1.4,26.3c0.8,12.8-11.6,24.3-27.5,24.3c-20.6,0.1-41.1-1.4-61.3-4.3
		c-15.6-2.2-25.4-15.1-22.3-27.6c2-8.5,3.9-17.1,5.8-25.7c2.9-12.5,15.2-20.5,27.8-18.8c16.8,2.3,33.8,3.5,50.9,3.4
		C257.8,424.7,269.1,434.2,270.1,447z"/>
	<path class="st5" d="M331.7,434.6c0,0-43.7,12.2-65.4,15.8l1.5,22.2l66.8-4.6L331.7,434.6z"/>
	<path class="st4" d="M262.3,447c0.5,8.8,1,17.5,1.4,26.3c0.8,12.8-11.6,24.3-27.5,24.3c-20.6,0.1-41.1-1.4-61.3-4.3
		c-15.6-2.2-25.4-15.1-22.3-27.6c2-8.5,3.9-17.1,5.8-25.7c2.9-12.5,15.2-20.5,27.8-18.8c16.8,2.3,33.8,3.5,50.9,3.4
		C250,424.7,261.4,434.2,262.3,447z"/>
	<g>
		<path class="st5" d="M214.5,453.9c-25.3,0-46.5-7-47.8-7.5l1.5-4.4c0.4,0.1,43.7,14.5,79.5,2.1l1.5,4.4
			C237.8,452.6,225.7,453.9,214.5,453.9z"/>
	</g>
	<path class="st8" d="M234.7,453l-2.6,0.4c-1.2,0.2-2.3-0.6-2.5-1.8l-0.2-1.1c-0.2-1.2,0.6-2.3,1.8-2.5l2.6-0.4
		c1.2-0.2,2.3,0.6,2.5,1.8l0.2,1.1C236.7,451.6,235.9,452.8,234.7,453z"/>
	<path class="st7" d="M234.2,450.2l-2.3,0.5l-0.4,9.7l7.2-1L234.2,450.2z M233.4,452.1l3,6l-3.3,0.5L233.4,452.1z"/>
	<rect x="446" y="574.4" class="st11" width="61" height="24.3"/>
</g>
</svg>
