<?xml version="1.0" encoding="utf-8"?>
<!-- Generator: Adobe Illustrator 23.0.0, SVG Export Plug-In . SVG Version: 6.00 Build 0)  -->
<svg version="1.1" id="Layer_1" xmlns="http://www.w3.org/2000/svg" xmlns:xlink="http://www.w3.org/1999/xlink" x="0px" y="0px"
	 viewBox="0 0 1077.3 960" style="enable-background:new 0 0 1077.3 960;" xml:space="preserve">
<style type="text/css">
	.st0{fill:#355389;}
	.st1{fill:#184655;}
	.st2{fill:#F7CC7F;}
	.st3{fill:#13375B;}
	.st4{fill:#50BFA5;}
	.st5{fill:#F7A491;}
	.st6{fill:#F8A492;}
	.st7{fill:#3C8F7C;}
	.st8{fill:#96D9C9;}
	.st9{fill:#9BC1F9;}
	.st10{fill:#F47458;}
	.st11{fill:#F48C7F;}
	.st12{fill:#B75742;}
</style>
<g>
	<g>
		<path class="st0" d="M106.5,195.9c-3.3,72.4-23.4,78.9-23.8,79.9c-0.4,0.1-16.5,12.5-34.3-3.9l5.9-6c2.5,2.6,6.4,5,10.1,6
			c8.3,2.2,13.6-2,14.3-2.2c0.4-0.4,4.7-2.9,6.8-6.4c10.3-13.9,15.3-50.1,16.7-67.4H106.5z"/>
		<path class="st1" d="M315.6,143c0,0-8.7,34.5-9.7,62.6s-20.2,51.5-22.7,121.7s-12.4,134.8-12.4,134.8s-77.3,5.4-92.5-11.1
			c-15.3-16.7-57.4-164-42.4-237.1s-2.3-96,32-119.9c34.4-23.9,79-7.7,98-1.2C284.8,99.3,316.1,127.5,315.6,143z"/>
		<path class="st2" d="M185.6,201.5c0,0-6.8,55.6,0.1,112.4c6.9,56.8-4.1,168.8-4.1,168.8s-57.6,40.5-74.5,8.3
			c-3.2-6-10.8-77.8-11.5-107.8c-0.9-38.2,5.6-190.6,5.6-190.6S121.9,167.6,185.6,201.5z"/>
		<path class="st3" d="M169,132.4c-19.6,5.3-22.9,81.6-22.9,81.6l-62.2-7.2c0,0,11.3-79.5,44.2-112.8C161,60.8,244,81.1,275.5,101.8
			c31.6,20.7,17.9,47.1,17.9,47.1S188.6,127.1,169,132.4z"/>
		<g>
			<path class="st3" d="M197.5,278.2c45.4,0,84-45.4,86.3-47.7l1.7-12.4c-0.5,0.5-45.8,48.8-87.6,48.8L197.5,278.2z"/>
		</g>
		<g>
			<path class="st3" d="M185.3,304.3l-0.6-9.4c-20.2-2.2-68.3-47.3-86.2-64.8l-0.3,11.8C101,244.4,158.2,301.3,185.3,304.3z"/>
		</g>
		<g>
			<path class="st3" d="M188.3,376.6l-0.2-9.2c-15.5,6.9-71.6,2.4-93,0l0.1,8.9C115,378.6,170,384.8,188.3,376.6z"/>
		</g>
		<g>
			<path class="st3" d="M185.5,434.8l0.8-10.3c-18.6,8.1-67.2,28.9-86,24.8l1.1,8.6C123,462.6,165.4,443.6,185.5,434.8z"/>
		</g>
		<g>
			<path class="st3" d="M183.6,468.1l0.6-8.5c-8.1,0-55.9-20.2-86.3-32.9l1.2,10.3C107.4,440.4,171.1,468.1,183.6,468.1z"/>
		</g>
		<g>
			<path class="st4" d="M161.3,462.5h13.2c8.6,0,15.6-7,15.6-15.6v-108c0-8.6-7-15.6-15.6-15.6h-13.2c-8.6,0-15.6,7-15.6,15.6V447
				C145.7,455.5,152.7,462.5,161.3,462.5z"/>
			<rect x="145.7" y="364.7" class="st3" width="44.4" height="9.4"/>
		</g>
	</g>
	<g>
		<g>
			<g>
				<path class="st5" d="M154.6,854.5c0,0-20.6,19-20.6,19.1c-2.9,2.2-10.6,6.9-12.9,9.2c-8.4,8.7,45.6,30.5,40.7,18.2
					c-0.4-1.1-1.3-11,1.3-14.2c4-5,11.3-12.1,11.3-12.1L154.6,854.5z"/>
				<path class="st1" d="M161.8,900.8c0,0-11.6-6.2-16.9-10.1c-5.3-3.9-5.9-15.5-10.7-17.2c-5.2-1.9-27.1,20.7-27.1,20.7
					s42.8,46.9,65.2,62.5c4.8,3.4,10.7,2.3,12.7,2.3C193,959.1,174.2,925.2,161.8,900.8z"/>
				<path class="st5" d="M413.6,891.5l6.4,31.2c0.4,4.1,0.5,14.4,1.4,17.9c3.5,13.3,55.6-27.1,40.9-29.5c-1.3-0.2-7.9-2.9-10.2-7
					c-4-7.2-7.7-20.5-7.7-20.5L413.6,891.5z"/>
				<path class="st1" d="M462.1,911.1c0,0-12.7,7.8-19.4,10.7c-6.8,2.9-19.2-5.2-23.5-1.5c-4.8,4,3,39.7,3,39.7s89.1-23.8,108-36.2
					C537.7,918.9,492.7,913,462.1,911.1z"/>
				<path class="st6" d="M476,441.9c-14.2-6.3-14.8-3.7-16.6-4.6c-2.1-1-17.8-28-17.8-28s-46.8-79.1-49.2-83.5l-9.3-95.4l-49.6-7.2
					c0,0,13,103.4,14.6,108.6c1.6,5.3,77.8,104.5,84.3,113.5c0,0,3.5,13.6,6.1,22.1c2.5,8.5,8.8,15.3,9.8,17.5
					c0.2,0.3,4.2,7.6,11.7,15.3c6.5,6.6,3.5-2.7,3.5-2.7s-9.7-14.3-8.4-14.9c1-0.5,5.8,7.7,12.9,15c1.8,1.9,3.6,3.7,5.3,5.4
					c4.4,4.4,8.5,3,4.7-2.4c-1.3-1.9-3.7-5-5.6-7c-2.1-2.1-3.4-4.8-4.9-6.9c-3-4.1-5.2-7.1-5-7.1c0.3,0,0.3-1.3,2.3,0.6
					c2.4,2.3,6.3,8.4,10.1,11.6c2.2,1.8,6.4,5.8,6.4,5.8s7.6,4.8,8.1,4.5c2.5-1.9-1.8-6.7-5-8.7c-1.4-2.4-6-6.5-6-6.5
					s-7.4-10.4-5.8-11.5c0.6-0.5,6,5.4,12.1,10.2c5.7,4.5,12.3,8.1,13.4,7.1c1.9-1.7-3.9-7.4-3.9-7.4s-4.3-3.8-5.6-5.1
					c-1.5-1.6-5.8-6.7-5.8-6.7S468.9,455,470.5,454c1.5-0.9,6.3-1.8,7.6-0.9c1.3,0.8,2.7,3.6,4,4.5c1.3,0.8,3.7,0.8,5-0.7
					c1.2-1.5-3.3-8-3.3-8S480.1,443.7,476,441.9z"/>
				<path class="st7" d="M337.6,143.2c38.4,9.2,48,95.6,50.4,106.7c-12.7,4.5-27.8,9.1-40.9,12.9l-15.6-121.4
					C331.4,141.5,333.6,142.3,337.6,143.2z"/>
				<path class="st0" d="M365.7,463.7l55.2,222.5l34.9,215.5l-43.5,5.9c0,0-61.2-164.8-62.9-183.7c-1.7-19-32.4-107.6-32.4-107.6
					L365.7,463.7z"/>
				<path class="st3" d="M236.9,437.9c0,0,4.1,213.3,0.7,233.2c-3.4,19.8-95.9,189-95.9,189l31.1,34.1c0,0,132.3-154.7,138.1-168.3
					c9.1-21.4,54.3-262.6,54.3-262.6L236.9,437.9z"/>
				<path class="st8" d="M287.6,142.7c0,0-23.4-2.2-32.8,20.2c-9.4,22.4-18.7,130.2-14.5,181.9c4.3,51.7-8.9,112.6-8.9,112.6
					c81.7,42.7,135,7.3,135,7.3S388,266.8,380,230.2c-16.6-76.4-48.5-88.7-48.5-88.7L287.6,142.7z"/>
				<path class="st6" d="M222.6,499.1c-8.9-14.6-10.8-12.5-11.9-14.4c-1.3-2.2,0.1-36.9,0.1-36.9s3.5-102.1,3.9-107.6l45.3-94.3
					l-39.2-37c0,0-46.7,104-48.2,109.8c-1.5,5.9,9.3,144.7,9.8,156.9c0,0-4.5,14.8-7.1,24.2c-2.6,9.4-0.9,19.5-1.2,22.3
					c0,0.4-0.6,9.7,1.7,21.3c1.9,10,4.5-0.4,4.5-0.4s-0.4-19.2,1.1-19c1.1,0.2,0.7,10.7,2.8,21.8c0.5,2.9,1.1,5.7,1.6,8.3
					c1.3,6.8,5.7,7.9,5.4,0.6c-0.1-2.6-0.4-6.9-1-9.9c-0.7-3.3-0.3-6.5-0.4-9.3c-0.3-5.6-0.6-9.8-0.4-9.6c0.3,0.2,1-1,1.7,2
					c0.8,3.6,0.8,11.7,2.3,17c0.9,3,2.3,9.3,2.3,9.3s3.9,9.2,4.5,9.1c3.2-0.3,2.2-7.3,0.5-11.2c0.1-3-1.6-9.7-1.6-9.7
					s-0.6-14.2,1.3-14.3c0.8,0,2.2,8.6,4.8,16.9c2.4,7.7,6.1,15.1,7.7,14.8c2.6-0.4,0.8-9.3,0.8-9.3s-1.6-6.1-2-8.2
					c-0.4-2.4-1.3-9.8-1.3-9.8s-1.6-25.8,0.2-25.7c1.8,0.1,6.5,2.2,7.2,3.8c0.6,1.6,0.4,5.1,1,6.6c0.6,1.6,2.8,3.1,4.7,2.4
					c1.9-0.6,1.6-9.4,1.6-9.4S225.2,503.3,222.6,499.1z"/>
				<path class="st7" d="M201.6,236.5l51.4,40.2c0,0,22.7-21.8,34.1-45.9c11.5-24.4-2.5-88.8-14.8-85.5
					C244.8,152.7,201.6,236.5,201.6,236.5z"/>
				<g>
					<g>
						<path class="st9" d="M312.7,7.8c0,0-17.6-14.1-27.3,7.2c0.1-0.2-6.6-0.7-7.5-0.4c-3.9,1-8,4.6-11.6,6.5
							c-12.8,6.7-19.8,21.3-21.6,35.1c-2.2,16.7,3.7,29.6,13.7,42.7c3,3.9,6.2,7.6,10.2,10.3c4.9,3.2,9.2,1.4,14,2.9
							c4,1.3,5.1,5.7,10,4.6c6.9-1.6,14.8-9.4,23-7.5c8.3,2,28.2-3.9,28.3-3.9c25.7-7.5,13-56.7,9.7-74.1
							C350.5,14.8,328.6,3.3,312.7,7.8z"/>
						<path class="st5" d="M325.8,118.3l4.9,18.1l2.6,10.1c0,0,9.4,12.1,3.9,14.7c-23.2,11.3-44-17.2-44-17.2l-4.5-55.8L325.8,118.3
							z"/>
						<path class="st10" d="M290.3,106.2c9.6,18,28,27.4,40.5,30.3l-5-18.2l-37-30.2L290.3,106.2z"/>
						<path class="st5" d="M301.2,32.2c15.6-7.7,34.4,0.7,39.1,17.1c2.1,7.1,4.3,16.1,5.8,26.1c3.7,24-5.7,49-16.7,50.5
							s-43.4-10.1-49.1-44.1C276.9,60.9,284.9,40.3,301.2,32.2z"/>
						<path class="st5" d="M288.8,83.5c0.7,5.3-2.3,10.1-6.6,10.6c-4.4,0.6-8.5-3.3-9.2-8.6c-0.7-5.3,2.3-10.1,6.6-10.6
							C284,74.3,288.1,78.2,288.8,83.5z"/>
					</g>
					<path class="st9" d="M321.3,96.1c0,0-14.6,3.4-16.2,8.5s-0.5,12.7,5.9,19.1c6.5,6.4,21.6,4.1,26,1.2c4.3-2.8,8.6-16,5.2-23.9
						C338.7,93.2,321.3,96.1,321.3,96.1z"/>
					<path class="st5" d="M315.7,106.5c0,0-0.4,5.8,1.4,7s4.1,2.2,6.3,2.6c3.5,0.6,6.9-0.6,9-3.2c0.2-0.3,0.4-0.5,0.6-0.8
						c1.7-2.8,2.4-7.8,2.4-7.8s-5.9-2-9.4-1.7S315.7,106.5,315.7,106.5z"/>
				</g>
			</g>
		</g>
	</g>
	<path class="st1" d="M316.9,251c1.1-44.5-1.7-105.7-43.8-123c-15-6.4-33.4,0.8-47.3,6l0,0c17.1-2.4,33.2,4.2,41.5,8.9
		c34.7,17.7,34.4,68.3,33.1,107.7c-3.2,99.1-78.5,88.6-78.5,88.6l-1.8,6.6c0,0,28.3,9.4,64.4-8.6C313.4,322.9,316.9,251,316.9,251z"
		/>
</g>
<g>
	<path class="st11" d="M973,485c-7.9-22.2-52.3-130.6-63.4-133.5l-18.5,47.9c1,0.4,2.7,1.9,44,75.9c1,1.9,2.1,3.8,3.2,5.7
		c2.9,5.2,6,10.8,9.3,16.7l-3.5,20c0,0,0,32.1,3.5,33.3c1.6,0.5,2.6-2.1,3.4-5.3v-0.1c0.1-0.5,0.2-0.9,0.3-1.4v-0.1
		c0.7-3.5,1-7.2,1.4-8.1c0.4-1,1.4-3,2.7-4.7c6.7,20.5,3.9,18.8,3.1,25.4c-0.2,1.7,0.1,3.4-0.1,5c-0.4,2.7-2.2,4.7-2.4,6.8
		c-0.4,3,0.9,5.6,1.4,6.2c0.7,0.8,1.8-0.5,3.1-3c7.8-14.9,6.1-27.9,7.4-31.9c0.9-2.7,1.5,2.4,0.2,10.2c-0.3,1.9,0.2,4.5-0.6,7.1
		c-0.5,1.7-1.7,3.2-2.3,4.8c-0.5,1.5-0.6,3.1-0.9,4.4c-0.4,1.7-1.9,4-2.2,5.4c-0.9,5.1-0.2,7.6,0.2,8.2c1,1.3,11.5-21.3,11.5-21.3
		s3.4-15.8,3.7-19.4c0,0,1.1-2.1,1.5,2.2c0,0.7-0.6,3.8-0.7,6.4c-0.2,3.6,0.1,6.8,0.1,6.8s-1.3,1.3-2.7,3.9
		c-0.6,1.1-0.9,2.9-1.6,4.1c-0.7,1.2-1.9,2.2-2.5,3.4c-1.6,3.1-2.1,6-0.5,7c1.3,0.9,13.3-15.9,13.3-15.9
		C985.5,541,995,524.5,973,485z"/>
	<g>
		<g>
			<path class="st5" d="M970.2,914.8c-3.4-17.9,0.1-55.8-0.2-90.9c-15.7-0.1-25,28.3-40.7,28c8.6,44.4,6.2,66.2,6.2,66.2l-0.7,8.9
				l0.6,26.2l88.8-3.4c0,0-19.1-7.4-46-22.6C976.3,926.1,971.6,922.5,970.2,914.8z"/>
			<path class="st10" d="M933.3,959l93.6-3.2c3.4-0.5,4.1-3.2,2.8-4.9c-2.6-3.4-13.4-5.4-25.6-10.4c-21,3.2-65.7-9.2-69.2-13.9
				C933.4,936.4,931.4,958.7,933.3,959z"/>
		</g>
		<g>
			<path class="st5" d="M698.8,908.8c7.4-16.6,25.1-44.7,44.7-73.8c-12.9-9-30,7.9-42.7-1.2c-18.1,41.4-32.4,58.1-32.4,58.1
				l-5.6,6.9l-14.4,22l64.1,32.3c0,0,0.3-0.6-4.9-11.5c-2-4.2-5.5-10.2-9.2-17.9C697.3,921.5,695.6,915.9,698.8,908.8z"/>
			<path class="st10" d="M643.3,924.3l56.5,36.1c0,0,27.6,2.1,27.5,0c-0.2-4.2-12.5-7.8-19.8-18.9c-19.1-9.3-44.3-37.2-44.6-43
				C656.2,905.7,642,922.9,643.3,924.3z"/>
		</g>
		<path class="st12" d="M951.5,433.4c-7-24.7,19.9-120.5,19.9-145.2s-32.6-108.7-58-124.9c-25.4-16.2-78.9-2.5-78.9-2.5l-19.4,85
			l4.3,90.2L769,540.7l-18.4,94.8l-83.9,212.2c0,0,98.3,66.1,193.1,50.8s127.5-11.4,127.5-11.4l20.9-227.4L951.5,433.4z"/>
		<g>
			<g>
				<path class="st1" d="M822.4,540.9h-11.3V503c0-1.1-0.9-2-2-2h-61.5c-1.1,0-2,0.9-2,2v37.9h-11.3V503c0-7.3,6-13.3,13.3-13.3
					h61.5c7.3,0,13.3,6,13.3,13.3V540.9z"/>
			</g>
			<polygon class="st2" points="651.6,632.2 662.8,708 897.7,708 909.8,632.2 			"/>
			<path class="st2" d="M913.8,633h-266l13.4-90.4c1-6.8,6.9-11.9,13.8-11.9h210.6c6.9,0,12.7,5,13.8,11.8L913.8,633z"/>
			<g>
				<path class="st1" d="M783.1,616.2L783.1,616.2c-4.1,0-7.4-3.3-7.4-7.4v-53.7c0-4.1,3.3-7.4,7.4-7.4l0,0c4.1,0,7.4,3.3,7.4,7.4
					v53.7C790.6,612.8,787.3,616.2,783.1,616.2z"/>
				<path class="st1" d="M747.3,616.2L747.3,616.2c-4.1,0-7.4-3.3-7.4-7.4v-53.7c0-4.1,3.3-7.4,7.4-7.4l0,0c4.1,0,7.4,3.3,7.4,7.4
					v53.7C754.8,612.8,751.4,616.2,747.3,616.2z"/>
				<path class="st1" d="M712.5,616.2L712.5,616.2c-4.1,0-7.4-3.3-7.4-7.4v-53.7c0-4.1,3.3-7.4,7.4-7.4l0,0c4.1,0,7.4,3.3,7.4,7.4
					v53.7C720,612.8,716.6,616.2,712.5,616.2z"/>
				<path class="st1" d="M849,616.2L849,616.2c-4.1,0-7.4-3.3-7.4-7.4v-53.7c0-4.1,3.3-7.4,7.4-7.4l0,0c4.1,0,7.4,3.3,7.4,7.4v53.7
					C856.5,612.8,853.1,616.2,849,616.2z"/>
				<path class="st1" d="M814.2,616.2L814.2,616.2c-4.1,0-7.4-3.3-7.4-7.4v-53.7c0-4.1,3.3-7.4,7.4-7.4l0,0c4.1,0,7.4,3.3,7.4,7.4
					v53.7C821.7,612.8,818.3,616.2,814.2,616.2z"/>
			</g>
			<rect x="643" y="626.4" class="st10" width="276" height="19.3"/>
		</g>
		<path class="st6" d="M796.2,459c-2.2-1.5,0.1-38.1,0.1-38.1s-3.1-103.1-2.7-108.8l37.7-68.3l-52.2-7.1c0,0-34.2,62.4-35.8,68.5
			c-1.6,6.1,22.8,131.7,23.4,144.4c0,0-8.6,19.1-11.2,28.8c-2.7,9.7,2,19.5,1.7,22.3c0,0.4,10.6,6.6,13.4,5.8
			c8.4-2.4,13.1-3.1,15.1-2.7c11.7,2.7,7.8-14.5,9.8-14.4c1.9,0.1,10.2-0.3,10.2-0.3C806.4,489.3,808.2,466.9,796.2,459z"/>
		<path class="st10" d="M834.6,160.9c0,0-18.4,4.2-27.7,13.5s-43.8,77.2-43.8,77.2l49.6,33.1l15.2-27.1
			c14.7-26.4,18.2-57.6,9.7-86.5L834.6,160.9z"/>
	</g>
	<g>
		<path class="st9" d="M959.1,113.6c0,0,33.8-66.6,1.3-87.4c-25-16-36.1-4.3-36.1-4.3s-38.4-28.1-52.7,16.9c0,0-29.6,0.7-35.9,26.1
			s7.9,36.8,7.9,36.8s-15.5,13.1-11.6,32.9c3.9,19.8,33.8,29.3,51.2,18.1s15.4-2.2,29.2-2.2C926.3,150.5,959.1,113.6,959.1,113.6z"
			/>
		<path class="st5" d="M928.5,137.7c0,0-21.7,41-14.6,61.3c3.9,11.3-42.2-36-42.2-36l24.1-46L928.5,137.7z"/>
		<path class="st10" d="M891.7,124.7c3.9,10.9,10.5,21,20.7,28.1c2.6,1.8,5.1,3.2,7.5,4.3c4.2-11,8.6-19.3,8.6-19.3l-32.8-20.7
			L891.7,124.7z"/>
		<path class="st5" d="M918.1,37.7c0,0-16.2,2.6-26.9,16.5s-14.9,64.9,16.5,86.7c31.4,21.8,53.4-13.7,55.4-41.1
			C965,72.3,960.9,35.2,918.1,37.7z"/>
		<path class="st5" d="M892.7,96c1.4,7.4-1.7,14.1-6.9,15c-5.2,0.9-10.5-4.5-11.9-11.9c-1.4-7.4,1.7-14.1,6.9-15
			C886,83.2,891.3,88.6,892.7,96z"/>
		<path class="st9" d="M927.9,31.2c5.2,4.8-2.1,21.3-16.2,36.8c-14.2,15.5-29.9,24.2-35.1,19.3c-5.2-4.8,2.1-21.3,16.2-36.8
			C907,35.1,922.7,26.4,927.9,31.2z"/>
	</g>
</g>
</svg>
