<svg xmlns="http://www.w3.org/2000/svg" xmlns:xlink="http://www.w3.org/1999/xlink" width="27.959" height="39.861" viewBox="0 0 27.959 39.861">
  <defs>
    <linearGradient id="linear-gradient" x1="0.5" x2="0.5" y2="1" gradientUnits="objectBoundingBox">
      <stop offset="0" stop-color="#ef2121"/>
      <stop offset="1" stop-color="#7f3333"/>
    </linearGradient>
    <linearGradient id="linear-gradient-2" x1="0.5" x2="0.5" y2="1" gradientUnits="objectBoundingBox">
      <stop offset="0" stop-color="#f11e1e"/>
      <stop offset="1" stop-color="#ddb1b1"/>
    </linearGradient>
  </defs>
  <g id="spot" transform="translate(156.037 -6.038)">
    <g id="그룹_575" data-name="그룹 575" transform="translate(-156.037 6.038)">
      <path id="패스_1866" data-name="패스 1866" d="M4.073,4.13A13.969,13.969,0,0,1,25.809,6.619a13.519,13.519,0,0,1,1.944,5.191,15.977,15.977,0,0,1-.284,6A35.721,35.721,0,0,1,23.036,28.26a70.653,70.653,0,0,1-5.665,8.083c-.616.782-1.28,1.541-1.92,2.3-.356.4-.782,1-1.28,1.161a1.336,1.336,0,0,1-.284.095,1.116,1.116,0,0,1-.379-.095,1.958,1.958,0,0,1-.664-.5c-.095-.095-.19-.213-.284-.308-.545-.616-1.09-1.256-1.612-1.92a73.005,73.005,0,0,1-5.5-7.68A40.676,40.676,0,0,1,.683,18.968a17.753,17.753,0,0,1-.664-6.21A13.644,13.644,0,0,1,2.105,6.6,12.321,12.321,0,0,1,4.073,4.13M5.519,17.12A8.991,8.991,0,1,0,20.452,7.8a9,9,0,0,0-15.36,7.775,8.738,8.738,0,0,0,.427,1.541C5.59,17.309,5.163,16.148,5.519,17.12Z" transform="translate(0.037 -0.038)" fill="url(#linear-gradient)"/>
      <path id="패스_1867" data-name="패스 1867" d="M0,13.687A24.642,24.642,0,0,0,2.716,23.923a55.572,55.572,0,0,0,5.126,8.609c1.323,1.863,2.74,3.679,4.228,5.425.26.283.5.59.756.849a1.951,1.951,0,0,0,.661.5c.071.024.378.165.449.071.047-.047,0-.283,0-.33V23.05c0-.071.047-.354,0-.425-.071-.094-.567-.047-.709-.047A9.83,9.83,0,0,1,11.6,22.3,8.438,8.438,0,0,1,8.669,20.88,8.967,8.967,0,0,1,10.842,5.219,9.576,9.576,0,0,1,12.4,4.795a7.348,7.348,0,0,1,.756-.094c.142,0,.283-.024.425-.024a2.023,2.023,0,0,0,.378,0c.024-.024,0-.189,0-.236V-.3A14.508,14.508,0,0,0,5.338,2.743,14.033,14.033,0,0,0,.756,9.158,13.5,13.5,0,0,0,0,13.687Z" transform="translate(0.009 0.457)" fill="url(#linear-gradient-2)"/>
    </g>
    <g id="그룹_576" data-name="그룹 576" transform="translate(-151.497 10.563)">
      <path id="패스_1868" data-name="패스 1868" d="M38.026,28.58a9.493,9.493,0,1,1-.119-1.47A10.516,10.516,0,0,1,38.026,28.58ZM25.534,21.848a7.338,7.338,0,1,0,1.209-.427,10.425,10.425,0,0,0-1.209.427Z" transform="translate(-19.114 -19.129)" fill="#f24343"/>
    </g>
    <path id="패스_1869" data-name="패스 1869" d="M47.8,44.4a3.476,3.476,0,0,1,2.2,6.163A3.477,3.477,0,1,1,47.8,44.4Z" transform="translate(-189.846 -27.846)" fill="red"/>
  </g>
</svg>
