<svg xmlns="http://www.w3.org/2000/svg" xmlns:xlink="http://www.w3.org/1999/xlink" width="2561.352" height="1253.995" viewBox="0 0 2561.352 1253.995">
  <defs>
    <style>
      .cls-1 {
        fill: url(#linear-gradient);
      }

      .cls-2 {
        fill: #d6ffff;
      }

      .cls-3 {
        fill: azure;
      }

      .cls-4 {
        fill: #b9ebf8;
      }
    </style>
    <linearGradient id="linear-gradient" x1="0.5" y1="1" x2="0.5" gradientUnits="objectBoundingBox">
      <stop offset="0" stop-color="#fff"/>
      <stop offset="1" stop-color="#90def2"/>
    </linearGradient>
  </defs>
  <g id="구름낀배경" transform="translate(-0.3)">
    <rect id="사각형_1953" data-name="사각형 1953" class="cls-1" width="2561.352" height="1253.995" transform="translate(0.3)"/>
    <path id="패스_2329" data-name="패스 2329" class="cls-2" d="M206.771,109.462a25.081,25.081,0,0,0,1.545-8.758c0-15.583-13.909-28.2-31.038-28.2-14.682,0-26.788,9.144-30.136,21.508a19.258,19.258,0,0,0-7.727-1.545,19.908,19.908,0,0,0-14.3,5.924,32.083,32.083,0,0,0-18.288-5.667c-12.621,0-23.439,6.955-27.432,16.742Z" transform="translate(156.161 324.314)"/>
    <path id="패스_2342" data-name="패스 2342" class="cls-3" d="M206.771,109.462a25.081,25.081,0,0,0,1.545-8.758c0-15.583-13.909-28.2-31.038-28.2-14.682,0-26.788,9.144-30.136,21.508a19.258,19.258,0,0,0-7.727-1.545,19.908,19.908,0,0,0-14.3,5.924,32.083,32.083,0,0,0-18.288-5.667c-12.621,0-23.439,6.955-27.432,16.742Z" transform="translate(784.493 744.571)"/>
    <path id="패스_2330" data-name="패스 2330" class="cls-2" d="M504.156,92.085c-5.151-4.894-14.682-8.114-25.629-8.114a52.278,52.278,0,0,0-12.235,1.417c-2.189-6.826-9.015-11.72-17-11.72A18.027,18.027,0,0,0,435,80.494C431.52,72.638,423.02,67.1,413.1,67.1c-10.689,0-19.7,6.439-22.538,15.326a46.1,46.1,0,0,0-18.159-3.477c-14.3,0-26.273,5.667-29.106,13.136Z" transform="translate(537.222 172.76)"/>
    <path id="패스_2331" data-name="패스 2331" class="cls-3" d="M171.508,193.485c-3.477-3.22-9.788-5.409-17-5.409a32.537,32.537,0,0,0-8.114,1.03,11.556,11.556,0,0,0-11.2-7.727,12.307,12.307,0,0,0-9.53,4.508A15.683,15.683,0,0,0,111.235,177c-7.083,0-13.008,4.25-14.939,10.045a31.008,31.008,0,0,0-11.977-2.318c-9.53,0-17.386,3.735-19.318,8.758H171.508Z" transform="translate(152.016 504.115)"/>
    <path id="패스_2343" data-name="패스 2343" class="cls-4" d="M171.508,193.485c-3.477-3.22-9.788-5.409-17-5.409a32.537,32.537,0,0,0-8.114,1.03,11.556,11.556,0,0,0-11.2-7.727,12.307,12.307,0,0,0-9.53,4.508A15.683,15.683,0,0,0,111.235,177c-7.083,0-13.008,4.25-14.939,10.045a31.008,31.008,0,0,0-11.977-2.318c-9.53,0-17.386,3.735-19.318,8.758H171.508Z" transform="translate(485.525 -71.966)"/>
    <path id="패스_2332" data-name="패스 2332" class="cls-2" d="M732.6,149.617v-1.288c0-13.008-10.174-23.7-22.667-23.7a21.236,21.236,0,0,0-12.492,3.992A29.315,29.315,0,0,0,672.2,114.2c-12.106,0-22.409,7.47-27.174,18.159a23.057,23.057,0,0,0-14.939-5.409A26.166,26.166,0,0,0,623,127.98a15.227,15.227,0,0,0-12.621-6.826,15.067,15.067,0,0,0-12.235,6.311,44.062,44.062,0,0,0-5.924-.515c-11.333,0-21.25,5.023-25.758,12.106a16.089,16.089,0,0,0-7.47-1.932,15.384,15.384,0,0,0-15.2,12.492Z" transform="translate(-145.044 336.177)"/>
    <path id="패스_2333" data-name="패스 2333" class="cls-3" d="M882.1,178.708v-1.159c0-11.076,8.629-19.962,19.19-19.962a18.707,18.707,0,0,1,10.561,3.348,24.657,24.657,0,0,1,44.174,3.22,19.463,19.463,0,0,1,12.621-4.636,21.932,21.932,0,0,1,5.924.9,12.958,12.958,0,0,1,10.689-5.8,12.806,12.806,0,0,1,10.3,5.28,30.6,30.6,0,0,1,5.023-.386c9.659,0,17.9,4.25,21.765,10.3a13.254,13.254,0,0,1,19.19,9.015H882.1Z" transform="translate(915.52 623.211)"/>
    <path id="패스_2334" data-name="패스 2334" class="cls-3" d="M1308.782,231.138a16.423,16.423,0,0,0-9.917-5.667,13.546,13.546,0,0,0,4.121-9.659c0-8.114-7.341-14.682-16.356-14.682a16.624,16.624,0,0,0-14.553,7.985,26.5,26.5,0,0,0-10.174-1.932,25.44,25.44,0,0,0-20.219,9.53,19.839,19.839,0,0,0-5.538-.773,19.222,19.222,0,0,0-9.788,2.7,19.222,19.222,0,0,0-9.788-2.7,22.991,22.991,0,0,0-2.962.258v-.258c0-8.758-7.856-15.841-17.644-15.841-9.659,0-17.644,7.083-17.644,15.841v.258a19.209,19.209,0,0,0-2.7-.258c-9.53,0-17.258,6.826-17.515,15.326h150.682Z" transform="translate(938.945 467.332)"/>
    <path id="패스_2335" data-name="패스 2335" class="cls-2" d="M1248.6,78.371a4.551,4.551,0,0,0,.515-2.189c0-7.212-15.712-13.136-35.159-13.136h-1.932a18.142,18.142,0,0,0,1.932-7.856c0-10.561-9.53-19.189-21.379-19.189S1171.2,44.629,1171.2,55.189v.644a16.357,16.357,0,0,0-4.379-.644c-7.985,0-14.553,5.924-14.553,13.136v.129c-1.159,0-2.447-.129-3.606-.129-16.614,0-30.523,4.25-34.258,10.045h134.2Z" transform="translate(1253.204 243.158)"/>
    <path id="패스_2336" data-name="패스 2336" class="cls-3" d="M1505.956,195.485c-5.151-4.894-14.682-8.114-25.629-8.114a52.273,52.273,0,0,0-12.234,1.417c-2.189-6.826-9.015-11.72-17-11.72a18.027,18.027,0,0,0-14.3,6.826c-3.477-7.856-11.977-13.394-21.894-13.394-10.689,0-19.7,6.439-22.538,15.326a46.1,46.1,0,0,0-18.159-3.477c-14.3,0-26.273,5.667-29.106,13.136Z" transform="translate(1022.127 591.246)"/>
    <path id="패스_2341" data-name="패스 2341" class="cls-3" d="M1505.956,195.485c-5.151-4.894-14.682-8.114-25.629-8.114a52.273,52.273,0,0,0-12.234,1.417c-2.189-6.826-9.015-11.72-17-11.72a18.027,18.027,0,0,0-14.3,6.826c-3.477-7.856-11.977-13.394-21.894-13.394-10.689,0-19.7,6.439-22.538,15.326a46.1,46.1,0,0,0-18.159-3.477c-14.3,0-26.273,5.667-29.106,13.136Z" transform="translate(-265.22 422.221)"/>
    <path id="패스_2337" data-name="패스 2337" class="cls-3" d="M1143.932,223.961a12.139,12.139,0,0,0-3.863.644,15.765,15.765,0,0,0-8.886-2.7c-7.212,0-13.265,4.636-14.682,10.689h39.28C1154.621,227.7,1149.727,223.961,1143.932,223.961Z" transform="translate(926.969 471.867)"/>
    <path id="패스_2338" data-name="패스 2338" class="cls-2" d="M858.026,165.07a28.539,28.539,0,0,1,8.854,1.328,37.456,37.456,0,0,1,20.364-6.2c16.6,0,30.325,10.625,33.645,24.57H830.8C833.456,173.7,844.524,165.07,858.026,165.07Z" transform="translate(1036.823 321.501)"/>
    <path id="패스_2339" data-name="패스 2339" class="cls-2" d="M1175.145,145.853c-.9-8.114-10.561-14.553-22.28-14.553a23.7,23.7,0,0,0-5.28.515V131.3c0-6.439-7.727-11.591-17.129-11.591a23.536,23.536,0,0,0-10.818,2.576c-1.546-7.985-10.3-14.167-20.864-14.167a24.627,24.627,0,0,0-13.909,4.121,23.684,23.684,0,0,0-16.614-6.439c-9.917,0-18.288,5.409-20.477,12.75a47.279,47.279,0,0,0-20.091-4.121c-14.682,0-26.917,5.538-30.008,13.008a17.235,17.235,0,0,0-12.106-4.894c-9.015,0-16.356,6.568-16.356,14.682v1.03a25.447,25.447,0,0,0-7.083-1.03,22.416,22.416,0,0,0-18.03,8.629h231.046Z" transform="translate(429.102 229.347)"/>
    <path id="패스_2340" data-name="패스 2340" class="cls-3" d="M928.071,214.527c-5.954-5.513-16.76-9.262-29.109-9.262a55.711,55.711,0,0,0-13.893,1.764c-2.426-7.718-10.144-13.231-19.186-13.231a21.074,21.074,0,0,0-16.319,7.718c-3.969-8.821-13.452-15.216-24.7-15.216-12.129,0-22.273,7.277-25.58,17.2a53.1,53.1,0,0,0-20.509-3.969c-16.319,0-29.77,6.4-33.078,15H928.071Z" transform="translate(390.664 403.314)"/>
  </g>
</svg>
