<?xml version="1.0" encoding="utf-8"?>
<!-- Generator: Adobe Illustrator 25.0.0, SVG Export Plug-In . SVG Version: 6.00 Build 0)  -->
<svg version="1.1" id="네이버블로그" xmlns="http://www.w3.org/2000/svg" xmlns:xlink="http://www.w3.org/1999/xlink" x="0px"
	 y="0px" viewBox="0 0 80 80" style="enable-background:new 0 0 80 80;" xml:space="preserve">
<style type="text/css">
	.st0{fill:#32B34A;}
	.st1{fill:#FFFFFF;}
	.st2{fill:#F37527;}
</style>
<circle class="st0" cx="40" cy="40" r="40"/>
<g>
	<path class="st1" d="M55.1,22.6h-30c-3.8,0-6.9,3.1-6.9,6.9V46c0,3.8,3.1,6.9,6.9,6.9h10.3l3.5,5.7c0,0,0,0.1,0.1,0.2
		c0.2,0.4,0.6,0.6,1,0.6c0.4,0,0.8-0.2,1-0.6c0.1-0.1,0.1-0.2,0.1-0.2l3.5-5.7h10.3c3.8,0,6.9-3.1,6.9-6.9V29.5
		C62,25.7,58.9,22.6,55.1,22.6"/>
	<g>
		<path class="st2" d="M28,34c0,0-1.2,0-2.3,1.1v-4.3H23V42h2.7v-0.9c0,0,0.6,1.2,2.3,1.2c0,0,3.8-0.1,3.8-4.2
			C31.7,38.1,31.6,34,28,34 M27.4,39.9c-1,0-1.7-0.8-1.7-1.7c0-1,0.8-1.7,1.7-1.7c1,0,1.7,0.8,1.7,1.7
			C29.1,39.1,28.3,39.9,27.4,39.9"/>
		<path class="st2" d="M32.6,30.5v2.6c0,0,1.2-0.1,1.2,2.2V42h2.6v-7.2C36.4,34.8,36.5,30.5,32.6,30.5"/>
		<path class="st2" d="M42.7,34c0,0-4.4,0-4.4,4.1c0,0-0.1,4.1,4.4,4.1c0,0,4.5,0,4.5-4.1C47.3,38.2,47.4,34,42.7,34 M42.7,39.9
			c-1,0-1.7-0.8-1.7-1.7c0-1,0.8-1.7,1.7-1.7c1,0,1.7,0.8,1.7,1.7C44.5,39.1,43.7,39.9,42.7,39.9"/>
		<path class="st2" d="M54.7,34.3v0.8c0,0-0.8-1-2.3-1c0,0-3.8-0.2-3.8,4.1c0,0,0,4,3.7,4c0,0,1.5,0.1,2.4-1v0.6c0,0,0.2,2-1.7,2
			h-0.6v2.4h1c0,0,3.9,0,3.9-4.2v-7.6H54.7z M53.1,39.9c-1,0-1.7-0.8-1.7-1.7c0-1,0.8-1.7,1.7-1.7c1,0,1.7,0.8,1.7,1.7
			C54.8,39.1,54,39.9,53.1,39.9"/>
	</g>
</g>
</svg>
