<svg id="네이버블로그" xmlns="http://www.w3.org/2000/svg" viewBox="0 0 80 80"><defs><style>.cls-1{fill:#f00075;}.cls-2{fill:#fff;}</style></defs><circle class="cls-1" cx="40" cy="40" r="40"/><path class="cls-2" d="M40.15,21.39c6.06,0,6.78,0,9.17.14a12.57,12.57,0,0,1,4.22.78A7,7,0,0,1,56.15,24a7.2,7.2,0,0,1,1.7,2.6,12.63,12.63,0,0,1,.78,4.22c.11,2.39.13,3.11.13,9.17s0,6.78-.13,9.17a12.63,12.63,0,0,1-.78,4.22,7.2,7.2,0,0,1-1.7,2.6,7,7,0,0,1-2.61,1.7,12.57,12.57,0,0,1-4.22.78c-2.39.11-3.11.14-9.17.14s-6.77,0-9.17-.14a12.55,12.55,0,0,1-4.21-.78,7.56,7.56,0,0,1-4.31-4.3,12.63,12.63,0,0,1-.78-4.22c-.11-2.39-.13-3.11-.13-9.17s0-6.78.13-9.17a12.63,12.63,0,0,1,.78-4.22,7.56,7.56,0,0,1,4.31-4.3A12.55,12.55,0,0,1,31,21.53c2.4-.11,3.11-.14,9.17-.14m0-4.09c-6.16,0-6.93,0-9.35.14a16.38,16.38,0,0,0-5.51,1.06,11,11,0,0,0-4,2.61,11.25,11.25,0,0,0-2.62,4,16.74,16.74,0,0,0-1.06,5.51c-.11,2.42-.13,3.2-.13,9.36s0,6.94.13,9.36a16.74,16.74,0,0,0,1.06,5.51,11.25,11.25,0,0,0,2.62,4,11,11,0,0,0,4,2.61,16.38,16.38,0,0,0,5.51,1.06c2.42.11,3.19.14,9.35.14s6.94,0,9.36-.14A16.38,16.38,0,0,0,55,61.5a11.13,11.13,0,0,0,4-2.61,11.25,11.25,0,0,0,2.62-4,16.76,16.76,0,0,0,1.05-5.51c.11-2.42.14-3.2.14-9.36s0-6.94-.14-9.36a16.76,16.76,0,0,0-1.05-5.51,11.25,11.25,0,0,0-2.62-4,11.13,11.13,0,0,0-4-2.61,16.38,16.38,0,0,0-5.51-1.06c-2.42-.11-3.19-.14-9.36-.14Z" transform="translate(-0.15)"/><path class="cls-2" d="M40.15,28.35A11.65,11.65,0,1,0,51.81,40,11.65,11.65,0,0,0,40.15,28.35Zm0,19.22A7.57,7.57,0,1,1,47.72,40,7.57,7.57,0,0,1,40.15,47.57Z" transform="translate(-0.15)"/><circle class="cls-2" cx="52.11" cy="27.89" r="2.72"/></svg>